%TF.GenerationSoftware,KiCad,Pcbnew,(6.0.4-0)*%
%TF.CreationDate,2022-05-06T03:23:39+03:00*%
%TF.ProjectId,Flux_Capacitor_Mini,466c7578-5f43-4617-9061-6369746f725f,4*%
%TF.SameCoordinates,PX55d4a80PY7270e00*%
%TF.FileFunction,Paste,Bot*%
%TF.FilePolarity,Positive*%
%FSLAX46Y46*%
G04 Gerber Fmt 4.6, Leading zero omitted, Abs format (unit mm)*
G04 Created by KiCad (PCBNEW (6.0.4-0)) date 2022-05-06 03:23:39*
%MOMM*%
%LPD*%
G01*
G04 APERTURE LIST*
G04 Aperture macros list*
%AMRoundRect*
0 Rectangle with rounded corners*
0 $1 Rounding radius*
0 $2 $3 $4 $5 $6 $7 $8 $9 X,Y pos of 4 corners*
0 Add a 4 corners polygon primitive as box body*
4,1,4,$2,$3,$4,$5,$6,$7,$8,$9,$2,$3,0*
0 Add four circle primitives for the rounded corners*
1,1,$1+$1,$2,$3*
1,1,$1+$1,$4,$5*
1,1,$1+$1,$6,$7*
1,1,$1+$1,$8,$9*
0 Add four rect primitives between the rounded corners*
20,1,$1+$1,$2,$3,$4,$5,0*
20,1,$1+$1,$4,$5,$6,$7,0*
20,1,$1+$1,$6,$7,$8,$9,0*
20,1,$1+$1,$8,$9,$2,$3,0*%
G04 Aperture macros list end*
%ADD10C,0.100000*%
%ADD11RoundRect,0.082500X-0.192500X0.192500X-0.192500X-0.192500X0.192500X-0.192500X0.192500X0.192500X0*%
%ADD12RoundRect,0.050000X-0.050000X0.350000X-0.050000X-0.350000X0.050000X-0.350000X0.050000X0.350000X0*%
%ADD13RoundRect,0.050000X-0.350000X0.050000X-0.350000X-0.050000X0.350000X-0.050000X0.350000X0.050000X0*%
%ADD14RoundRect,0.350000X0.350000X0.450000X-0.350000X0.450000X-0.350000X-0.450000X0.350000X-0.450000X0*%
%ADD15RoundRect,0.350000X0.350000X0.350000X-0.350000X0.350000X-0.350000X-0.350000X0.350000X-0.350000X0*%
%ADD16RoundRect,0.112500X0.137500X-0.112500X0.137500X0.112500X-0.137500X0.112500X-0.137500X-0.112500X0*%
%ADD17RoundRect,0.112500X0.112500X0.137500X-0.112500X0.137500X-0.112500X-0.137500X0.112500X-0.137500X0*%
%ADD18RoundRect,0.060000X-0.310000X-0.140000X0.310000X-0.140000X0.310000X0.140000X-0.310000X0.140000X0*%
%ADD19RoundRect,0.037500X-0.087500X-0.087500X0.087500X-0.087500X0.087500X0.087500X-0.087500X0.087500X0*%
%ADD20RoundRect,0.200000X0.300000X-0.550000X0.300000X0.550000X-0.300000X0.550000X-0.300000X-0.550000X0*%
%ADD21RoundRect,0.200000X-0.300000X0.550000X-0.300000X-0.550000X0.300000X-0.550000X0.300000X0.550000X0*%
G04 APERTURE END LIST*
G36*
X103729921Y4443692D02*
G01*
X103826538Y4140466D01*
X103963451Y3853175D01*
X104138123Y3587148D01*
X104347315Y3347315D01*
X104587148Y3138123D01*
X104853175Y2963451D01*
X105140466Y2826538D01*
X105443692Y2729921D01*
X105600000Y2700000D01*
X105600000Y2100000D01*
X105429368Y2126072D01*
X105095338Y2213126D01*
X104773864Y2338859D01*
X104469407Y2501528D01*
X104186194Y2698873D01*
X103928156Y2928156D01*
X103698873Y3186194D01*
X103501528Y3469407D01*
X103338859Y3773864D01*
X103213126Y4095338D01*
X103126072Y4429368D01*
X103100000Y4600000D01*
X103700000Y4600000D01*
X103729921Y4443692D01*
G37*
D10*
X103729921Y4443692D02*
X103826538Y4140466D01*
X103963451Y3853175D01*
X104138123Y3587148D01*
X104347315Y3347315D01*
X104587148Y3138123D01*
X104853175Y2963451D01*
X105140466Y2826538D01*
X105443692Y2729921D01*
X105600000Y2700000D01*
X105600000Y2100000D01*
X105429368Y2126072D01*
X105095338Y2213126D01*
X104773864Y2338859D01*
X104469407Y2501528D01*
X104186194Y2698873D01*
X103928156Y2928156D01*
X103698873Y3186194D01*
X103501528Y3469407D01*
X103338859Y3773864D01*
X103213126Y4095338D01*
X103126072Y4429368D01*
X103100000Y4600000D01*
X103700000Y4600000D01*
X103729921Y4443692D01*
G36*
X105600000Y7300000D02*
G01*
X105443692Y7270079D01*
X105140466Y7173462D01*
X104853175Y7036549D01*
X104587148Y6861877D01*
X104347315Y6652685D01*
X104138123Y6412852D01*
X103963451Y6146825D01*
X103826538Y5859534D01*
X103729921Y5556308D01*
X103700000Y5400000D01*
X103100000Y5400000D01*
X103126072Y5570632D01*
X103213126Y5904662D01*
X103338859Y6226136D01*
X103501528Y6530593D01*
X103698873Y6813806D01*
X103928156Y7071844D01*
X104186194Y7301127D01*
X104469407Y7498472D01*
X104773864Y7661141D01*
X105095338Y7786874D01*
X105429368Y7873928D01*
X105600000Y7900000D01*
X105600000Y7300000D01*
G37*
X105600000Y7300000D02*
X105443692Y7270079D01*
X105140466Y7173462D01*
X104853175Y7036549D01*
X104587148Y6861877D01*
X104347315Y6652685D01*
X104138123Y6412852D01*
X103963451Y6146825D01*
X103826538Y5859534D01*
X103729921Y5556308D01*
X103700000Y5400000D01*
X103100000Y5400000D01*
X103126072Y5570632D01*
X103213126Y5904662D01*
X103338859Y6226136D01*
X103501528Y6530593D01*
X103698873Y6813806D01*
X103928156Y7071844D01*
X104186194Y7301127D01*
X104469407Y7498472D01*
X104773864Y7661141D01*
X105095338Y7786874D01*
X105429368Y7873928D01*
X105600000Y7900000D01*
X105600000Y7300000D01*
G36*
X106570632Y7873928D02*
G01*
X106904662Y7786874D01*
X107226137Y7661141D01*
X107530593Y7498473D01*
X107813806Y7301128D01*
X108071845Y7071845D01*
X108301128Y6813806D01*
X108498473Y6530593D01*
X108661141Y6226137D01*
X108786874Y5904662D01*
X108873928Y5570632D01*
X108900000Y5400000D01*
X108300000Y5400000D01*
X108270079Y5556308D01*
X108173462Y5859534D01*
X108036549Y6146825D01*
X107861877Y6412852D01*
X107652685Y6652685D01*
X107412852Y6861877D01*
X107146825Y7036549D01*
X106859534Y7173462D01*
X106556308Y7270079D01*
X106400000Y7300000D01*
X106400000Y7900000D01*
X106570632Y7873928D01*
G37*
X106570632Y7873928D02*
X106904662Y7786874D01*
X107226137Y7661141D01*
X107530593Y7498473D01*
X107813806Y7301128D01*
X108071845Y7071845D01*
X108301128Y6813806D01*
X108498473Y6530593D01*
X108661141Y6226137D01*
X108786874Y5904662D01*
X108873928Y5570632D01*
X108900000Y5400000D01*
X108300000Y5400000D01*
X108270079Y5556308D01*
X108173462Y5859534D01*
X108036549Y6146825D01*
X107861877Y6412852D01*
X107652685Y6652685D01*
X107412852Y6861877D01*
X107146825Y7036549D01*
X106859534Y7173462D01*
X106556308Y7270079D01*
X106400000Y7300000D01*
X106400000Y7900000D01*
X106570632Y7873928D01*
G36*
X108873928Y4429368D02*
G01*
X108786874Y4095338D01*
X108661141Y3773863D01*
X108498473Y3469407D01*
X108301128Y3186194D01*
X108071845Y2928155D01*
X107813806Y2698872D01*
X107530593Y2501527D01*
X107226137Y2338859D01*
X106904662Y2213126D01*
X106570632Y2126072D01*
X106400000Y2100000D01*
X106400000Y2700000D01*
X106556308Y2729921D01*
X106859534Y2826538D01*
X107146825Y2963451D01*
X107412852Y3138123D01*
X107652685Y3347315D01*
X107861877Y3587148D01*
X108036549Y3853175D01*
X108173462Y4140466D01*
X108270079Y4443692D01*
X108300000Y4600000D01*
X108900000Y4600000D01*
X108873928Y4429368D01*
G37*
X108873928Y4429368D02*
X108786874Y4095338D01*
X108661141Y3773863D01*
X108498473Y3469407D01*
X108301128Y3186194D01*
X108071845Y2928155D01*
X107813806Y2698872D01*
X107530593Y2501527D01*
X107226137Y2338859D01*
X106904662Y2213126D01*
X106570632Y2126072D01*
X106400000Y2100000D01*
X106400000Y2700000D01*
X106556308Y2729921D01*
X106859534Y2826538D01*
X107146825Y2963451D01*
X107412852Y3138123D01*
X107652685Y3347315D01*
X107861877Y3587148D01*
X108036549Y3853175D01*
X108173462Y4140466D01*
X108270079Y4443692D01*
X108300000Y4600000D01*
X108900000Y4600000D01*
X108873928Y4429368D01*
G36*
X80600000Y42300000D02*
G01*
X80443692Y42270079D01*
X80140466Y42173462D01*
X79853175Y42036549D01*
X79587148Y41861877D01*
X79347315Y41652685D01*
X79138123Y41412852D01*
X78963451Y41146825D01*
X78826538Y40859534D01*
X78729921Y40556308D01*
X78700000Y40400000D01*
X78100000Y40400000D01*
X78126072Y40570632D01*
X78213126Y40904662D01*
X78338859Y41226136D01*
X78501528Y41530593D01*
X78698873Y41813806D01*
X78928156Y42071844D01*
X79186194Y42301127D01*
X79469407Y42498472D01*
X79773864Y42661141D01*
X80095338Y42786874D01*
X80429368Y42873928D01*
X80600000Y42900000D01*
X80600000Y42300000D01*
G37*
X80600000Y42300000D02*
X80443692Y42270079D01*
X80140466Y42173462D01*
X79853175Y42036549D01*
X79587148Y41861877D01*
X79347315Y41652685D01*
X79138123Y41412852D01*
X78963451Y41146825D01*
X78826538Y40859534D01*
X78729921Y40556308D01*
X78700000Y40400000D01*
X78100000Y40400000D01*
X78126072Y40570632D01*
X78213126Y40904662D01*
X78338859Y41226136D01*
X78501528Y41530593D01*
X78698873Y41813806D01*
X78928156Y42071844D01*
X79186194Y42301127D01*
X79469407Y42498472D01*
X79773864Y42661141D01*
X80095338Y42786874D01*
X80429368Y42873928D01*
X80600000Y42900000D01*
X80600000Y42300000D01*
G36*
X83873928Y39429368D02*
G01*
X83786874Y39095338D01*
X83661141Y38773863D01*
X83498473Y38469407D01*
X83301128Y38186194D01*
X83071845Y37928155D01*
X82813806Y37698872D01*
X82530593Y37501527D01*
X82226137Y37338859D01*
X81904662Y37213126D01*
X81570632Y37126072D01*
X81400000Y37100000D01*
X81400000Y37700000D01*
X81556308Y37729921D01*
X81859534Y37826538D01*
X82146825Y37963451D01*
X82412852Y38138123D01*
X82652685Y38347315D01*
X82861877Y38587148D01*
X83036549Y38853175D01*
X83173462Y39140466D01*
X83270079Y39443692D01*
X83300000Y39600000D01*
X83900000Y39600000D01*
X83873928Y39429368D01*
G37*
X83873928Y39429368D02*
X83786874Y39095338D01*
X83661141Y38773863D01*
X83498473Y38469407D01*
X83301128Y38186194D01*
X83071845Y37928155D01*
X82813806Y37698872D01*
X82530593Y37501527D01*
X82226137Y37338859D01*
X81904662Y37213126D01*
X81570632Y37126072D01*
X81400000Y37100000D01*
X81400000Y37700000D01*
X81556308Y37729921D01*
X81859534Y37826538D01*
X82146825Y37963451D01*
X82412852Y38138123D01*
X82652685Y38347315D01*
X82861877Y38587148D01*
X83036549Y38853175D01*
X83173462Y39140466D01*
X83270079Y39443692D01*
X83300000Y39600000D01*
X83900000Y39600000D01*
X83873928Y39429368D01*
G36*
X81570632Y42873928D02*
G01*
X81904662Y42786874D01*
X82226137Y42661141D01*
X82530593Y42498473D01*
X82813806Y42301128D01*
X83071845Y42071845D01*
X83301128Y41813806D01*
X83498473Y41530593D01*
X83661141Y41226137D01*
X83786874Y40904662D01*
X83873928Y40570632D01*
X83900000Y40400000D01*
X83300000Y40400000D01*
X83270079Y40556308D01*
X83173462Y40859534D01*
X83036549Y41146825D01*
X82861877Y41412852D01*
X82652685Y41652685D01*
X82412852Y41861877D01*
X82146825Y42036549D01*
X81859534Y42173462D01*
X81556308Y42270079D01*
X81400000Y42300000D01*
X81400000Y42900000D01*
X81570632Y42873928D01*
G37*
X81570632Y42873928D02*
X81904662Y42786874D01*
X82226137Y42661141D01*
X82530593Y42498473D01*
X82813806Y42301128D01*
X83071845Y42071845D01*
X83301128Y41813806D01*
X83498473Y41530593D01*
X83661141Y41226137D01*
X83786874Y40904662D01*
X83873928Y40570632D01*
X83900000Y40400000D01*
X83300000Y40400000D01*
X83270079Y40556308D01*
X83173462Y40859534D01*
X83036549Y41146825D01*
X82861877Y41412852D01*
X82652685Y41652685D01*
X82412852Y41861877D01*
X82146825Y42036549D01*
X81859534Y42173462D01*
X81556308Y42270079D01*
X81400000Y42300000D01*
X81400000Y42900000D01*
X81570632Y42873928D01*
G36*
X78729921Y39443692D02*
G01*
X78826538Y39140466D01*
X78963451Y38853175D01*
X79138123Y38587148D01*
X79347315Y38347315D01*
X79587148Y38138123D01*
X79853175Y37963451D01*
X80140466Y37826538D01*
X80443692Y37729921D01*
X80600000Y37700000D01*
X80600000Y37100000D01*
X80429368Y37126072D01*
X80095338Y37213126D01*
X79773864Y37338859D01*
X79469407Y37501528D01*
X79186194Y37698873D01*
X78928156Y37928156D01*
X78698873Y38186194D01*
X78501528Y38469407D01*
X78338859Y38773864D01*
X78213126Y39095338D01*
X78126072Y39429368D01*
X78100000Y39600000D01*
X78700000Y39600000D01*
X78729921Y39443692D01*
G37*
X78729921Y39443692D02*
X78826538Y39140466D01*
X78963451Y38853175D01*
X79138123Y38587148D01*
X79347315Y38347315D01*
X79587148Y38138123D01*
X79853175Y37963451D01*
X80140466Y37826538D01*
X80443692Y37729921D01*
X80600000Y37700000D01*
X80600000Y37100000D01*
X80429368Y37126072D01*
X80095338Y37213126D01*
X79773864Y37338859D01*
X79469407Y37501528D01*
X79186194Y37698873D01*
X78928156Y37928156D01*
X78698873Y38186194D01*
X78501528Y38469407D01*
X78338859Y38773864D01*
X78213126Y39095338D01*
X78126072Y39429368D01*
X78100000Y39600000D01*
X78700000Y39600000D01*
X78729921Y39443692D01*
G36*
X105600000Y42300000D02*
G01*
X105443692Y42270079D01*
X105140466Y42173462D01*
X104853175Y42036549D01*
X104587148Y41861877D01*
X104347315Y41652685D01*
X104138123Y41412852D01*
X103963451Y41146825D01*
X103826538Y40859534D01*
X103729921Y40556308D01*
X103700000Y40400000D01*
X103100000Y40400000D01*
X103126072Y40570632D01*
X103213126Y40904662D01*
X103338859Y41226136D01*
X103501528Y41530593D01*
X103698873Y41813806D01*
X103928156Y42071844D01*
X104186194Y42301127D01*
X104469407Y42498472D01*
X104773864Y42661141D01*
X105095338Y42786874D01*
X105429368Y42873928D01*
X105600000Y42900000D01*
X105600000Y42300000D01*
G37*
X105600000Y42300000D02*
X105443692Y42270079D01*
X105140466Y42173462D01*
X104853175Y42036549D01*
X104587148Y41861877D01*
X104347315Y41652685D01*
X104138123Y41412852D01*
X103963451Y41146825D01*
X103826538Y40859534D01*
X103729921Y40556308D01*
X103700000Y40400000D01*
X103100000Y40400000D01*
X103126072Y40570632D01*
X103213126Y40904662D01*
X103338859Y41226136D01*
X103501528Y41530593D01*
X103698873Y41813806D01*
X103928156Y42071844D01*
X104186194Y42301127D01*
X104469407Y42498472D01*
X104773864Y42661141D01*
X105095338Y42786874D01*
X105429368Y42873928D01*
X105600000Y42900000D01*
X105600000Y42300000D01*
G36*
X106570632Y42873928D02*
G01*
X106904662Y42786874D01*
X107226137Y42661141D01*
X107530593Y42498473D01*
X107813806Y42301128D01*
X108071845Y42071845D01*
X108301128Y41813806D01*
X108498473Y41530593D01*
X108661141Y41226137D01*
X108786874Y40904662D01*
X108873928Y40570632D01*
X108900000Y40400000D01*
X108300000Y40400000D01*
X108270079Y40556308D01*
X108173462Y40859534D01*
X108036549Y41146825D01*
X107861877Y41412852D01*
X107652685Y41652685D01*
X107412852Y41861877D01*
X107146825Y42036549D01*
X106859534Y42173462D01*
X106556308Y42270079D01*
X106400000Y42300000D01*
X106400000Y42900000D01*
X106570632Y42873928D01*
G37*
X106570632Y42873928D02*
X106904662Y42786874D01*
X107226137Y42661141D01*
X107530593Y42498473D01*
X107813806Y42301128D01*
X108071845Y42071845D01*
X108301128Y41813806D01*
X108498473Y41530593D01*
X108661141Y41226137D01*
X108786874Y40904662D01*
X108873928Y40570632D01*
X108900000Y40400000D01*
X108300000Y40400000D01*
X108270079Y40556308D01*
X108173462Y40859534D01*
X108036549Y41146825D01*
X107861877Y41412852D01*
X107652685Y41652685D01*
X107412852Y41861877D01*
X107146825Y42036549D01*
X106859534Y42173462D01*
X106556308Y42270079D01*
X106400000Y42300000D01*
X106400000Y42900000D01*
X106570632Y42873928D01*
G36*
X103729921Y39443692D02*
G01*
X103826538Y39140466D01*
X103963451Y38853175D01*
X104138123Y38587148D01*
X104347315Y38347315D01*
X104587148Y38138123D01*
X104853175Y37963451D01*
X105140466Y37826538D01*
X105443692Y37729921D01*
X105600000Y37700000D01*
X105600000Y37100000D01*
X105429368Y37126072D01*
X105095338Y37213126D01*
X104773864Y37338859D01*
X104469407Y37501528D01*
X104186194Y37698873D01*
X103928156Y37928156D01*
X103698873Y38186194D01*
X103501528Y38469407D01*
X103338859Y38773864D01*
X103213126Y39095338D01*
X103126072Y39429368D01*
X103100000Y39600000D01*
X103700000Y39600000D01*
X103729921Y39443692D01*
G37*
X103729921Y39443692D02*
X103826538Y39140466D01*
X103963451Y38853175D01*
X104138123Y38587148D01*
X104347315Y38347315D01*
X104587148Y38138123D01*
X104853175Y37963451D01*
X105140466Y37826538D01*
X105443692Y37729921D01*
X105600000Y37700000D01*
X105600000Y37100000D01*
X105429368Y37126072D01*
X105095338Y37213126D01*
X104773864Y37338859D01*
X104469407Y37501528D01*
X104186194Y37698873D01*
X103928156Y37928156D01*
X103698873Y38186194D01*
X103501528Y38469407D01*
X103338859Y38773864D01*
X103213126Y39095338D01*
X103126072Y39429368D01*
X103100000Y39600000D01*
X103700000Y39600000D01*
X103729921Y39443692D01*
G36*
X108873928Y39429368D02*
G01*
X108786874Y39095338D01*
X108661141Y38773863D01*
X108498473Y38469407D01*
X108301128Y38186194D01*
X108071845Y37928155D01*
X107813806Y37698872D01*
X107530593Y37501527D01*
X107226137Y37338859D01*
X106904662Y37213126D01*
X106570632Y37126072D01*
X106400000Y37100000D01*
X106400000Y37700000D01*
X106556308Y37729921D01*
X106859534Y37826538D01*
X107146825Y37963451D01*
X107412852Y38138123D01*
X107652685Y38347315D01*
X107861877Y38587148D01*
X108036549Y38853175D01*
X108173462Y39140466D01*
X108270079Y39443692D01*
X108300000Y39600000D01*
X108900000Y39600000D01*
X108873928Y39429368D01*
G37*
X108873928Y39429368D02*
X108786874Y39095338D01*
X108661141Y38773863D01*
X108498473Y38469407D01*
X108301128Y38186194D01*
X108071845Y37928155D01*
X107813806Y37698872D01*
X107530593Y37501527D01*
X107226137Y37338859D01*
X106904662Y37213126D01*
X106570632Y37126072D01*
X106400000Y37100000D01*
X106400000Y37700000D01*
X106556308Y37729921D01*
X106859534Y37826538D01*
X107146825Y37963451D01*
X107412852Y38138123D01*
X107652685Y38347315D01*
X107861877Y38587148D01*
X108036549Y38853175D01*
X108173462Y39140466D01*
X108270079Y39443692D01*
X108300000Y39600000D01*
X108900000Y39600000D01*
X108873928Y39429368D01*
G36*
X78729921Y4443692D02*
G01*
X78826538Y4140466D01*
X78963451Y3853175D01*
X79138123Y3587148D01*
X79347315Y3347315D01*
X79587148Y3138123D01*
X79853175Y2963451D01*
X80140466Y2826538D01*
X80443692Y2729921D01*
X80600000Y2700000D01*
X80600000Y2100000D01*
X80429368Y2126072D01*
X80095338Y2213126D01*
X79773864Y2338859D01*
X79469407Y2501528D01*
X79186194Y2698873D01*
X78928156Y2928156D01*
X78698873Y3186194D01*
X78501528Y3469407D01*
X78338859Y3773864D01*
X78213126Y4095338D01*
X78126072Y4429368D01*
X78100000Y4600000D01*
X78700000Y4600000D01*
X78729921Y4443692D01*
G37*
X78729921Y4443692D02*
X78826538Y4140466D01*
X78963451Y3853175D01*
X79138123Y3587148D01*
X79347315Y3347315D01*
X79587148Y3138123D01*
X79853175Y2963451D01*
X80140466Y2826538D01*
X80443692Y2729921D01*
X80600000Y2700000D01*
X80600000Y2100000D01*
X80429368Y2126072D01*
X80095338Y2213126D01*
X79773864Y2338859D01*
X79469407Y2501528D01*
X79186194Y2698873D01*
X78928156Y2928156D01*
X78698873Y3186194D01*
X78501528Y3469407D01*
X78338859Y3773864D01*
X78213126Y4095338D01*
X78126072Y4429368D01*
X78100000Y4600000D01*
X78700000Y4600000D01*
X78729921Y4443692D01*
G36*
X80600000Y7300000D02*
G01*
X80443692Y7270079D01*
X80140466Y7173462D01*
X79853175Y7036549D01*
X79587148Y6861877D01*
X79347315Y6652685D01*
X79138123Y6412852D01*
X78963451Y6146825D01*
X78826538Y5859534D01*
X78729921Y5556308D01*
X78700000Y5400000D01*
X78100000Y5400000D01*
X78126072Y5570632D01*
X78213126Y5904662D01*
X78338859Y6226136D01*
X78501528Y6530593D01*
X78698873Y6813806D01*
X78928156Y7071844D01*
X79186194Y7301127D01*
X79469407Y7498472D01*
X79773864Y7661141D01*
X80095338Y7786874D01*
X80429368Y7873928D01*
X80600000Y7900000D01*
X80600000Y7300000D01*
G37*
X80600000Y7300000D02*
X80443692Y7270079D01*
X80140466Y7173462D01*
X79853175Y7036549D01*
X79587148Y6861877D01*
X79347315Y6652685D01*
X79138123Y6412852D01*
X78963451Y6146825D01*
X78826538Y5859534D01*
X78729921Y5556308D01*
X78700000Y5400000D01*
X78100000Y5400000D01*
X78126072Y5570632D01*
X78213126Y5904662D01*
X78338859Y6226136D01*
X78501528Y6530593D01*
X78698873Y6813806D01*
X78928156Y7071844D01*
X79186194Y7301127D01*
X79469407Y7498472D01*
X79773864Y7661141D01*
X80095338Y7786874D01*
X80429368Y7873928D01*
X80600000Y7900000D01*
X80600000Y7300000D01*
G36*
X81570632Y7873928D02*
G01*
X81904662Y7786874D01*
X82226137Y7661141D01*
X82530593Y7498473D01*
X82813806Y7301128D01*
X83071845Y7071845D01*
X83301128Y6813806D01*
X83498473Y6530593D01*
X83661141Y6226137D01*
X83786874Y5904662D01*
X83873928Y5570632D01*
X83900000Y5400000D01*
X83300000Y5400000D01*
X83270079Y5556308D01*
X83173462Y5859534D01*
X83036549Y6146825D01*
X82861877Y6412852D01*
X82652685Y6652685D01*
X82412852Y6861877D01*
X82146825Y7036549D01*
X81859534Y7173462D01*
X81556308Y7270079D01*
X81400000Y7300000D01*
X81400000Y7900000D01*
X81570632Y7873928D01*
G37*
X81570632Y7873928D02*
X81904662Y7786874D01*
X82226137Y7661141D01*
X82530593Y7498473D01*
X82813806Y7301128D01*
X83071845Y7071845D01*
X83301128Y6813806D01*
X83498473Y6530593D01*
X83661141Y6226137D01*
X83786874Y5904662D01*
X83873928Y5570632D01*
X83900000Y5400000D01*
X83300000Y5400000D01*
X83270079Y5556308D01*
X83173462Y5859534D01*
X83036549Y6146825D01*
X82861877Y6412852D01*
X82652685Y6652685D01*
X82412852Y6861877D01*
X82146825Y7036549D01*
X81859534Y7173462D01*
X81556308Y7270079D01*
X81400000Y7300000D01*
X81400000Y7900000D01*
X81570632Y7873928D01*
G36*
X83873928Y4429368D02*
G01*
X83786874Y4095338D01*
X83661141Y3773863D01*
X83498473Y3469407D01*
X83301128Y3186194D01*
X83071845Y2928155D01*
X82813806Y2698872D01*
X82530593Y2501527D01*
X82226137Y2338859D01*
X81904662Y2213126D01*
X81570632Y2126072D01*
X81400000Y2100000D01*
X81400000Y2700000D01*
X81556308Y2729921D01*
X81859534Y2826538D01*
X82146825Y2963451D01*
X82412852Y3138123D01*
X82652685Y3347315D01*
X82861877Y3587148D01*
X83036549Y3853175D01*
X83173462Y4140466D01*
X83270079Y4443692D01*
X83300000Y4600000D01*
X83900000Y4600000D01*
X83873928Y4429368D01*
G37*
X83873928Y4429368D02*
X83786874Y4095338D01*
X83661141Y3773863D01*
X83498473Y3469407D01*
X83301128Y3186194D01*
X83071845Y2928155D01*
X82813806Y2698872D01*
X82530593Y2501527D01*
X82226137Y2338859D01*
X81904662Y2213126D01*
X81570632Y2126072D01*
X81400000Y2100000D01*
X81400000Y2700000D01*
X81556308Y2729921D01*
X81859534Y2826538D01*
X82146825Y2963451D01*
X82412852Y3138123D01*
X82652685Y3347315D01*
X82861877Y3587148D01*
X83036549Y3853175D01*
X83173462Y4140466D01*
X83270079Y4443692D01*
X83300000Y4600000D01*
X83900000Y4600000D01*
X83873928Y4429368D01*
D11*
X93100000Y35400000D03*
X93900000Y34600000D03*
X93100000Y34600000D03*
X93900000Y35400000D03*
D12*
X92700000Y36450000D03*
X93100000Y36450000D03*
X93500000Y36450000D03*
X93900000Y36450000D03*
X94300000Y36450000D03*
D13*
X94950000Y35800000D03*
X94950000Y35400000D03*
X94950000Y35000000D03*
X94950000Y34600000D03*
X94950000Y34200000D03*
D12*
X94300000Y33550000D03*
X93900000Y33550000D03*
X93500000Y33550000D03*
X93100000Y33550000D03*
X92700000Y33550000D03*
D13*
X92050000Y34200000D03*
X92050000Y34600000D03*
X92050000Y35000000D03*
X92050000Y35400000D03*
X92050000Y35800000D03*
D14*
X92675000Y15050000D03*
D15*
X94325000Y28075000D03*
D14*
X94325000Y16950000D03*
D15*
X92675000Y29725000D03*
D14*
X94325000Y15050000D03*
D15*
X92675000Y28075000D03*
D14*
X92675000Y16950000D03*
D15*
X94325000Y29725000D03*
D16*
X91500000Y39525000D03*
X91500000Y40475000D03*
X89500000Y39490000D03*
X89500000Y40510000D03*
D17*
X91760000Y37750000D03*
X90740000Y37750000D03*
D18*
X93500000Y40000000D03*
X93500000Y39450000D03*
X93500000Y40550000D03*
D19*
X92650000Y39250000D03*
X92650000Y39750000D03*
X92650000Y40250000D03*
X92650000Y40750000D03*
X94350000Y40750000D03*
X94350000Y40250000D03*
X94350000Y39750000D03*
X94350000Y39250000D03*
D16*
X96500000Y40510000D03*
X96500000Y39490000D03*
X90500000Y40475000D03*
X90500000Y39525000D03*
D17*
X93025000Y37750000D03*
X93975000Y37750000D03*
D20*
X102250000Y29450000D03*
X105250000Y29450000D03*
X105250000Y35550000D03*
X102250000Y35550000D03*
D16*
X95500000Y40510000D03*
X95500000Y39490000D03*
D21*
X84750000Y29450000D03*
X81750000Y29450000D03*
X81750000Y35550000D03*
X84750000Y35550000D03*
M02*
