M48
; DRILL file {KiCad (6.0.4-0)} date 2022 May 06, Friday 03:25:05
; FORMAT={-:-/ absolute / metric / decimal}
; #@! TF.CreationDate,2022-05-06T03:25:05+03:00
; #@! TF.GenerationSoftware,Kicad,Pcbnew,(6.0.4-0)
; #@! TF.FileFunction,MixedPlating,1,2
FMAT,2
METRIC
; #@! TA.AperFunction,Plated,PTH,ViaDrill
T1C0.300
; #@! TA.AperFunction,Plated,PTH,ComponentDrill
T2C4.220
; #@! TA.AperFunction,NonPlated,NPTH,ComponentDrill
T3C0.500
%
G90
G05
T1
X82.75Y35.55
X88.0Y35.0
X89.5Y35.0
X89.5Y33.5
X89.95Y36.6
X90.5Y41.05
X90.5Y38.75
X90.847Y27.447
X91.0Y33.5
X91.0Y17.2
X91.0Y16.0
X91.0Y14.8
X91.5Y42.1
X91.5Y41.05
X91.76Y38.49
X92.047Y26.247
X92.15Y36.95
X92.273Y24.823
X92.5Y31.25
X92.62Y38.65
X93.5Y41.2
X93.5Y38.65
X93.5Y35.0
X93.5Y31.25
X94.06Y42.18
X94.5Y31.25
X94.92Y38.95
X94.953Y26.247
X95.325Y42.2
X95.5Y41.05
X95.8Y36.7
X96.0Y38.0
X96.0Y35.0
X96.0Y33.5
X96.153Y27.447
X96.5Y41.05
X97.353Y28.647
X97.4Y27.5
X97.5Y33.5
X98.553Y29.847
X98.6Y28.7
X99.0Y35.0
X99.753Y31.047
X99.8Y29.9
X100.953Y32.247
X101.0Y31.1
X102.153Y33.447
X102.2Y32.3
X103.353Y34.647
X103.4Y33.5
X104.25Y35.55
T2
X81.0Y40.0
X81.0Y5.0
X106.0Y40.0
X106.0Y5.0
T3
X35.35Y24.75
X35.35Y24.0
X35.35Y23.25
X35.35Y22.5
X35.35Y21.75
X35.35Y21.0
X35.35Y20.25
X37.65Y24.75
X37.65Y24.0
X37.65Y23.25
X37.65Y22.5
X37.65Y21.75
X37.65Y21.0
X37.65Y20.25
X73.35Y24.75
X73.35Y24.0
X73.35Y23.25
X73.35Y22.5
X73.35Y21.75
X73.35Y21.0
X73.35Y20.25
X75.65Y24.75
X75.65Y24.0
X75.65Y23.25
X75.65Y22.5
X75.65Y21.75
X75.65Y21.0
X75.65Y20.25
X111.35Y24.75
X111.35Y24.0
X111.35Y23.25
X111.35Y22.5
X111.35Y21.75
X111.35Y21.0
X111.35Y20.25
X113.65Y24.75
X113.65Y24.0
X113.65Y23.25
X113.65Y22.5
X113.65Y21.75
X113.65Y21.0
X113.65Y20.25
T0
M30
