%TF.GenerationSoftware,KiCad,Pcbnew,(6.0.4-0)*%
%TF.CreationDate,2022-05-06T03:23:39+03:00*%
%TF.ProjectId,Flux_Capacitor_Mini,466c7578-5f43-4617-9061-6369746f725f,4*%
%TF.SameCoordinates,PX55d4a80PY7270e00*%
%TF.FileFunction,Profile,NP*%
%FSLAX46Y46*%
G04 Gerber Fmt 4.6, Leading zero omitted, Abs format (unit mm)*
G04 Created by KiCad (PCBNEW (6.0.4-0)) date 2022-05-06 03:23:39*
%MOMM*%
%LPD*%
G01*
G04 APERTURE LIST*
%TA.AperFunction,Profile*%
%ADD10C,0.100000*%
%TD*%
G04 APERTURE END LIST*
D10*
X52174472Y25199469D02*
X44185786Y33185786D01*
X120350000Y40000000D02*
G75*
G03*
X120350000Y40000000I-1350000J0D01*
G01*
X38000000Y5000000D02*
G75*
G03*
X43000000Y0I5000000J0D01*
G01*
X114000000Y25500000D02*
X114000000Y40000000D01*
X0Y5000000D02*
G75*
G03*
X5000000Y0I5000000J0D01*
G01*
X111000000Y40000000D02*
G75*
G03*
X106000000Y45000000I-5000000J0D01*
G01*
X58825527Y25199470D02*
G75*
G03*
X57500000Y22010000I3174473J-3189470D01*
G01*
X81000000Y45000000D02*
X106000000Y45000000D01*
X35000000Y25500000D02*
X35000000Y40000000D01*
X70500000Y5000000D02*
G75*
G03*
X70500000Y5000000I-2500000J0D01*
G01*
X53499998Y22010000D02*
G75*
G03*
X52174472Y25199469I-4499998J0D01*
G01*
X45500000Y40000000D02*
G75*
G03*
X45500000Y40000000I-2500000J0D01*
G01*
X66814214Y33185786D02*
G75*
G03*
X63985786Y36014214I-1414214J1414214D01*
G01*
X120350000Y5000000D02*
G75*
G03*
X120350000Y5000000I-1350000J0D01*
G01*
X47014214Y36014214D02*
G75*
G03*
X44185786Y33185786I-1414214J-1414214D01*
G01*
X114000000Y5000000D02*
G75*
G03*
X119000000Y0I5000000J0D01*
G01*
X70500000Y40000000D02*
G75*
G03*
X70500000Y40000000I-2500000J0D01*
G01*
X119000000Y45000000D02*
X144000000Y45000000D01*
X53875001Y29150001D02*
X47014214Y36014214D01*
X81000000Y0D02*
X106000000Y0D01*
X5000000Y0D02*
X30000000Y0D01*
X76000000Y5000000D02*
G75*
G03*
X81000000Y0I5000000J0D01*
G01*
X122750000Y32500000D02*
G75*
G03*
X122750000Y32500000I-1500000J0D01*
G01*
X5000000Y45000000D02*
G75*
G03*
X0Y40000000I0J-5000000D01*
G01*
X30000000Y0D02*
G75*
G03*
X35000000Y5000000I0J5000000D01*
G01*
X73000000Y40000000D02*
G75*
G03*
X68000000Y45000000I-5000000J0D01*
G01*
X43000000Y0D02*
X68000000Y0D01*
X111000000Y19500000D02*
X111000000Y5000000D01*
X68000000Y0D02*
G75*
G03*
X73000000Y5000000I0J5000000D01*
G01*
X35000000Y19500000D02*
X35000000Y5000000D01*
X5000000Y45000000D02*
X30000000Y45000000D01*
X106000000Y0D02*
G75*
G03*
X111000000Y5000000I0J5000000D01*
G01*
X58825527Y25199470D02*
X66814214Y33185786D01*
X0Y40000000D02*
X0Y5000000D01*
X43000000Y45000000D02*
G75*
G03*
X38000000Y40000000I0J-5000000D01*
G01*
X143250000Y32500000D02*
G75*
G03*
X143250000Y32500000I-1500000J0D01*
G01*
X53499999Y22010000D02*
X53500000Y11700000D01*
X149000000Y40000000D02*
G75*
G03*
X144000000Y45000000I-5000000J0D01*
G01*
X114000000Y19500000D02*
X114000000Y5000000D01*
X45500000Y5000000D02*
G75*
G03*
X45500000Y5000000I-2500000J0D01*
G01*
X73000000Y19500000D02*
X73000000Y5000000D01*
X57124999Y29150001D02*
X63985786Y36014214D01*
X145350000Y5000000D02*
G75*
G03*
X145350000Y5000000I-1350000J0D01*
G01*
X57500000Y22010000D02*
X57500000Y11700000D01*
X119000000Y0D02*
X144000000Y0D01*
X111000000Y25500000D02*
X111000000Y40000000D01*
X81000000Y45000000D02*
G75*
G03*
X76000000Y40000000I0J-5000000D01*
G01*
X53875001Y29150001D02*
G75*
G03*
X57124999Y29150001I1624999J1725001D01*
G01*
X38000000Y25500000D02*
X38000000Y40000000D01*
X76000000Y25500000D02*
X76000000Y40000000D01*
X119000000Y45000000D02*
G75*
G03*
X114000000Y40000000I0J-5000000D01*
G01*
X43000000Y45000000D02*
X68000000Y45000000D01*
X35000000Y40000000D02*
G75*
G03*
X30000000Y45000000I-5000000J0D01*
G01*
X53500000Y11700000D02*
G75*
G03*
X57500000Y11700000I2000000J0D01*
G01*
X149000000Y5000000D02*
X149000000Y40000000D01*
X144000000Y0D02*
G75*
G03*
X149000000Y5000000I0J5000000D01*
G01*
X73000000Y25500000D02*
X73000000Y40000000D01*
X38000000Y19500000D02*
X38000000Y5000000D01*
X145350000Y40000000D02*
G75*
G03*
X145350000Y40000000I-1350000J0D01*
G01*
X76000000Y19500000D02*
X76000000Y5000000D01*
X35500000Y25000000D02*
X37500000Y25000000D01*
X35500000Y20000000D02*
X37500000Y20000000D01*
X35000000Y25500000D02*
G75*
G03*
X35500000Y25000000I500001J1D01*
G01*
X35500000Y20000000D02*
G75*
G03*
X35000000Y19500000I1J-500001D01*
G01*
X38000000Y19500000D02*
G75*
G03*
X37500000Y20000000I-500000J0D01*
G01*
X37500000Y25000000D02*
G75*
G03*
X38000000Y25500000I0J500000D01*
G01*
X111500000Y20000000D02*
X113500000Y20000000D01*
X111500000Y25000000D02*
X113500000Y25000000D01*
X111500000Y20000000D02*
G75*
G03*
X111000000Y19500000I1J-500001D01*
G01*
X113500000Y25000000D02*
G75*
G03*
X114000000Y25500000I0J500000D01*
G01*
X111000000Y25500000D02*
G75*
G03*
X111500000Y25000000I500001J1D01*
G01*
X114000000Y19500000D02*
G75*
G03*
X113500000Y20000000I-500000J0D01*
G01*
X73500000Y25000000D02*
X75500000Y25000000D01*
X73500000Y20000000D02*
X75500000Y20000000D01*
X75500000Y25000000D02*
G75*
G03*
X76000000Y25500000I0J500000D01*
G01*
X76000000Y19500000D02*
G75*
G03*
X75500000Y20000000I-500000J0D01*
G01*
X73500000Y20000000D02*
G75*
G03*
X73000000Y19500000I1J-500001D01*
G01*
X73000000Y25500000D02*
G75*
G03*
X73500000Y25000000I500001J1D01*
G01*
M02*
