%TF.GenerationSoftware,KiCad,Pcbnew,(6.0.4-0)*%
%TF.CreationDate,2022-05-06T03:23:39+03:00*%
%TF.ProjectId,Flux_Capacitor_Mini,466c7578-5f43-4617-9061-6369746f725f,4*%
%TF.SameCoordinates,PX55d4a80PY7270e00*%
%TF.FileFunction,Copper,L2,Bot*%
%TF.FilePolarity,Positive*%
%FSLAX46Y46*%
G04 Gerber Fmt 4.6, Leading zero omitted, Abs format (unit mm)*
G04 Created by KiCad (PCBNEW (6.0.4-0)) date 2022-05-06 03:23:39*
%MOMM*%
%LPD*%
G01*
G04 APERTURE LIST*
G04 Aperture macros list*
%AMRoundRect*
0 Rectangle with rounded corners*
0 $1 Rounding radius*
0 $2 $3 $4 $5 $6 $7 $8 $9 X,Y pos of 4 corners*
0 Add a 4 corners polygon primitive as box body*
4,1,4,$2,$3,$4,$5,$6,$7,$8,$9,$2,$3,0*
0 Add four circle primitives for the rounded corners*
1,1,$1+$1,$2,$3*
1,1,$1+$1,$4,$5*
1,1,$1+$1,$6,$7*
1,1,$1+$1,$8,$9*
0 Add four rect primitives between the rounded corners*
20,1,$1+$1,$2,$3,$4,$5,0*
20,1,$1+$1,$4,$5,$6,$7,0*
20,1,$1+$1,$6,$7,$8,$9,0*
20,1,$1+$1,$8,$9,$2,$3,0*%
G04 Aperture macros list end*
%TA.AperFunction,SMDPad,CuDef*%
%ADD10RoundRect,0.050000X-0.050000X0.350000X-0.050000X-0.350000X0.050000X-0.350000X0.050000X0.350000X0*%
%TD*%
%TA.AperFunction,SMDPad,CuDef*%
%ADD11RoundRect,0.050000X-0.350000X0.050000X-0.350000X-0.050000X0.350000X-0.050000X0.350000X0.050000X0*%
%TD*%
%TA.AperFunction,SMDPad,CuDef*%
%ADD12RoundRect,0.170000X-0.680000X0.680000X-0.680000X-0.680000X0.680000X-0.680000X0.680000X0.680000X0*%
%TD*%
%TA.AperFunction,SMDPad,CuDef*%
%ADD13RoundRect,1.000000X0.500000X0.000000X-0.500000X0.000000X-0.500000X0.000000X0.500000X0.000000X0*%
%TD*%
%TA.AperFunction,SMDPad,CuDef*%
%ADD14RoundRect,1.000000X0.000000X-0.500000X0.000000X0.500000X0.000000X0.500000X0.000000X-0.500000X0*%
%TD*%
%TA.AperFunction,SMDPad,CuDef*%
%ADD15RoundRect,1.000000X-0.500000X0.000000X0.500000X0.000000X0.500000X0.000000X-0.500000X0.000000X0*%
%TD*%
%TA.AperFunction,ComponentPad*%
%ADD16C,6.300000*%
%TD*%
%TA.AperFunction,SMDPad,CuDef*%
%ADD17RoundRect,0.177500X1.597500X1.597500X-1.597500X1.597500X-1.597500X-1.597500X1.597500X-1.597500X0*%
%TD*%
%TA.AperFunction,SMDPad,CuDef*%
%ADD18RoundRect,0.177500X1.597500X1.822500X-1.597500X1.822500X-1.597500X-1.822500X1.597500X-1.822500X0*%
%TD*%
%TA.AperFunction,SMDPad,CuDef*%
%ADD19RoundRect,0.140000X0.160000X-0.140000X0.160000X0.140000X-0.160000X0.140000X-0.160000X-0.140000X0*%
%TD*%
%TA.AperFunction,SMDPad,CuDef*%
%ADD20C,1.000000*%
%TD*%
%TA.AperFunction,SMDPad,CuDef*%
%ADD21O,1.000000X1.000000*%
%TD*%
%TA.AperFunction,SMDPad,CuDef*%
%ADD22RoundRect,1.000000X0.000000X0.500000X0.000000X-0.500000X0.000000X-0.500000X0.000000X0.500000X0*%
%TD*%
%TA.AperFunction,SMDPad,CuDef*%
%ADD23RoundRect,0.135000X0.185000X-0.135000X0.185000X0.135000X-0.185000X0.135000X-0.185000X-0.135000X0*%
%TD*%
%TA.AperFunction,SMDPad,CuDef*%
%ADD24RoundRect,0.135000X0.135000X0.185000X-0.135000X0.185000X-0.135000X-0.185000X0.135000X-0.185000X0*%
%TD*%
%TA.AperFunction,SMDPad,CuDef*%
%ADD25RoundRect,0.037500X-0.087500X-0.087500X0.087500X-0.087500X0.087500X0.087500X-0.087500X0.087500X0*%
%TD*%
%TA.AperFunction,SMDPad,CuDef*%
%ADD26RoundRect,0.104000X-0.416000X-0.796000X0.416000X-0.796000X0.416000X0.796000X-0.416000X0.796000X0*%
%TD*%
%TA.AperFunction,SMDPad,CuDef*%
%ADD27RoundRect,0.140000X0.140000X0.160000X-0.140000X0.160000X-0.140000X-0.160000X0.140000X-0.160000X0*%
%TD*%
%TA.AperFunction,SMDPad,CuDef*%
%ADD28RoundRect,0.200000X0.300000X-0.550000X0.300000X0.550000X-0.300000X0.550000X-0.300000X-0.550000X0*%
%TD*%
%TA.AperFunction,SMDPad,CuDef*%
%ADD29RoundRect,0.200000X-0.300000X0.550000X-0.300000X-0.550000X0.300000X-0.550000X0.300000X0.550000X0*%
%TD*%
%TA.AperFunction,ViaPad*%
%ADD30C,0.500000*%
%TD*%
%TA.AperFunction,Conductor*%
%ADD31C,0.250000*%
%TD*%
%TA.AperFunction,Conductor*%
%ADD32C,0.160000*%
%TD*%
%TA.AperFunction,Conductor*%
%ADD33C,0.200000*%
%TD*%
G04 APERTURE END LIST*
D10*
X92700000Y36450000D03*
X93100000Y36450000D03*
X93500000Y36450000D03*
X93900000Y36450000D03*
X94300000Y36450000D03*
D11*
X94950000Y35800000D03*
X94950000Y35400000D03*
X94950000Y35000000D03*
X94950000Y34600000D03*
X94950000Y34200000D03*
D10*
X94300000Y33550000D03*
X93900000Y33550000D03*
X93500000Y33550000D03*
X93100000Y33550000D03*
X92700000Y33550000D03*
D11*
X92050000Y34200000D03*
X92050000Y34600000D03*
X92050000Y35000000D03*
X92050000Y35400000D03*
X92050000Y35800000D03*
D12*
X93500000Y35000000D03*
D13*
X20000000Y3000000D03*
X15000000Y3000000D03*
D14*
X17500000Y5500000D03*
D15*
X11500000Y42000000D03*
D16*
X106000000Y5000000D03*
D14*
X55500000Y5500000D03*
D13*
X53000000Y3000000D03*
X58000000Y3000000D03*
D15*
X43500000Y22500000D03*
D14*
X41000000Y25000000D03*
X41000000Y20000000D03*
D17*
X93500000Y28900000D03*
D18*
X93500000Y16000000D03*
D15*
X23500000Y42000000D03*
D19*
X91500000Y39520000D03*
X91500000Y40480000D03*
D16*
X81000000Y40000000D03*
X106000000Y40000000D03*
X81000000Y5000000D03*
D20*
X94770000Y42750000D03*
D21*
X93500000Y42750000D03*
X92230000Y42750000D03*
D13*
X67500000Y22500000D03*
D22*
X70000000Y20000000D03*
X70000000Y25000000D03*
D23*
X89500000Y39490000D03*
X89500000Y40510000D03*
D24*
X91760000Y37750000D03*
X90740000Y37750000D03*
D14*
X3000000Y25000000D03*
X3000000Y20000000D03*
D15*
X5500000Y22500000D03*
D25*
X92650000Y39250000D03*
X92650000Y39750000D03*
X92650000Y40250000D03*
X92650000Y40750000D03*
X94350000Y40750000D03*
X94350000Y40250000D03*
X94350000Y39750000D03*
X94350000Y39250000D03*
D26*
X93500000Y40000000D03*
D23*
X96500000Y39490000D03*
X96500000Y40510000D03*
D19*
X90500000Y39520000D03*
X90500000Y40480000D03*
D22*
X32000000Y20000000D03*
X32000000Y25000000D03*
D13*
X29500000Y22500000D03*
D15*
X49500000Y42000000D03*
D27*
X93980000Y37750000D03*
X93020000Y37750000D03*
D28*
X102250000Y29450000D03*
X105250000Y29450000D03*
X105250000Y35550000D03*
X102250000Y35550000D03*
D23*
X95500000Y39490000D03*
X95500000Y40510000D03*
D29*
X84750000Y29450000D03*
X81750000Y29450000D03*
X81750000Y35550000D03*
X84750000Y35550000D03*
D15*
X61500000Y42000000D03*
D30*
X93500000Y31250000D03*
X90500000Y38750000D03*
X97352624Y28647377D03*
X96152623Y27447377D03*
X102152624Y33447377D03*
X99752624Y31047377D03*
X103352624Y34647377D03*
X94952624Y26247377D03*
X92273457Y24823457D03*
X98552623Y29847377D03*
X100952624Y32247377D03*
X92150000Y36950000D03*
X103400000Y33500000D03*
X95800000Y36700000D03*
X102200000Y32300000D03*
X101000000Y31100000D03*
X99800000Y29900000D03*
X98600000Y28700000D03*
X97400000Y27500000D03*
X90847377Y27447377D03*
X92047377Y26247377D03*
X94920000Y38950000D03*
X95325000Y42200000D03*
X91760000Y38490000D03*
X94060000Y42180000D03*
X89950000Y36600000D03*
X91000000Y16000000D03*
X104250000Y35550000D03*
X91000000Y33500000D03*
X96000000Y33500000D03*
X89500000Y35000000D03*
X82750000Y35550000D03*
X89500000Y33500000D03*
X94500000Y31250000D03*
X91000000Y17200000D03*
X99000000Y35000000D03*
X92620000Y38650000D03*
X96500000Y41050000D03*
X93500000Y41200000D03*
X88000000Y35000000D03*
X90500000Y41050000D03*
X96000000Y38000000D03*
X93500000Y35000000D03*
X92500000Y31250000D03*
X91000000Y14800000D03*
X91500000Y42100000D03*
X95500000Y41050000D03*
X96000000Y35000000D03*
X91500000Y41050000D03*
X97500000Y33500000D03*
X93500000Y38650000D03*
D31*
X92000000Y39500000D02*
X89510000Y39500000D01*
D32*
X89510000Y39500000D02*
X89500000Y39490000D01*
D31*
X93500000Y28900000D02*
X93500000Y31250000D01*
X92250000Y39250000D02*
X92000000Y39500000D01*
X90500000Y38750000D02*
X90500000Y39520000D01*
X92650000Y39250000D02*
X92250000Y39250000D01*
D32*
X92200000Y40350000D02*
X92200000Y40850000D01*
X89500000Y40900000D02*
X90200000Y41600000D01*
X92350000Y41750000D02*
X93797726Y41750000D01*
X97000000Y41600000D02*
X97825000Y40775000D01*
X97825000Y40775000D02*
X97825000Y38600000D01*
X93797726Y41750000D02*
X93947726Y41600000D01*
X92200000Y41600000D02*
X92350000Y41750000D01*
X89500000Y40510000D02*
X89500000Y40900000D01*
X92650000Y40250000D02*
X92300000Y40250000D01*
X92200000Y41100000D02*
X92200000Y41600000D01*
X93947726Y41600000D02*
X97000000Y41600000D01*
X92200000Y40850000D02*
X92200000Y40975000D01*
X92200000Y40850000D02*
X92200000Y41100000D01*
X100875000Y35550000D02*
X102250000Y35550000D01*
X90200000Y41600000D02*
X92200000Y41600000D01*
X92300000Y40250000D02*
X92200000Y40350000D01*
X97825000Y38600000D02*
X100875000Y35550000D01*
D31*
X98300000Y27700000D02*
X98600000Y27700000D01*
X101900000Y31300000D02*
X102200000Y31300000D01*
X100952624Y32247376D02*
X102050000Y31150000D01*
X103100000Y32500000D02*
X103400000Y32500000D01*
X92273457Y24823457D02*
X95723457Y24823457D01*
X97100000Y26500000D02*
X97400000Y26500000D01*
X103250000Y32350000D02*
X104150000Y33250000D01*
X97352624Y28647376D02*
X98450000Y27550000D01*
X100850000Y29950000D02*
X102050000Y31150000D01*
X95723457Y24823457D02*
X96025000Y25125000D01*
X95900000Y25300000D02*
X96200000Y25300000D01*
X98450000Y27550000D02*
X99650000Y28750000D01*
X103100000Y32500000D02*
X103100000Y32200000D01*
X98552623Y29847377D02*
X99650000Y28750000D01*
X102925000Y32675000D02*
X103100000Y32500000D01*
X96500000Y38750000D02*
X96500000Y39490000D01*
X96200000Y25300000D02*
X97250000Y26350000D01*
X98300000Y27700000D02*
X98300000Y27400000D01*
X95900000Y25300000D02*
X95900000Y25000000D01*
X104150000Y33850001D02*
X103352624Y34647377D01*
X99650000Y28750000D02*
X100850000Y29950000D01*
D32*
X96025000Y25175001D02*
X96025000Y25125000D01*
D31*
X102750000Y34400000D02*
X100850000Y34400000D01*
X99500000Y28900000D02*
X99500000Y28600000D01*
X102152624Y33447376D02*
X102925000Y32675000D01*
X100850000Y34400000D02*
X96500000Y38750000D01*
X101900000Y31300000D02*
X101900000Y31000000D01*
X99752624Y31047376D02*
X100850000Y29950000D01*
D32*
X99752624Y31047377D02*
X99752624Y31047376D01*
D31*
X97100000Y26500000D02*
X97100000Y26200000D01*
X104150000Y33250000D02*
X104150000Y33850001D01*
X100700000Y30100000D02*
X100700000Y29800000D01*
X96025000Y25125000D02*
X96200000Y25300000D01*
X102997377Y34647377D02*
X102750000Y34400000D01*
X96152623Y27447377D02*
X97250000Y26350000D01*
D32*
X102152624Y33447377D02*
X102152624Y33447376D01*
X100952624Y32247377D02*
X100952624Y32247376D01*
D31*
X103352624Y34647377D02*
X102997377Y34647377D01*
X102925000Y32675000D02*
X103250000Y32350000D01*
X103100000Y32200000D02*
X103250000Y32350000D01*
D32*
X97352624Y28647377D02*
X97352624Y28647376D01*
D31*
X100700000Y30100000D02*
X101000000Y30100000D01*
X99500000Y28900000D02*
X99800000Y28900000D01*
X102050000Y31150000D02*
X103100000Y32200000D01*
X97250000Y26350000D02*
X98450000Y27550000D01*
X94952624Y26247377D02*
X96025000Y25175001D01*
D32*
X99003740Y34000000D02*
X96564700Y36439040D01*
X102900000Y34000000D02*
X99003740Y34000000D01*
X92150000Y36950000D02*
X92400000Y37200000D01*
X103400000Y33500000D02*
X102900000Y34000000D01*
X96060960Y36439040D02*
X95800000Y36700000D01*
X92829722Y37200000D02*
X93100000Y36929722D01*
X96564700Y36439040D02*
X96060960Y36439040D01*
X93100000Y36929722D02*
X93100000Y36450000D01*
X92400000Y37200000D02*
X92829722Y37200000D01*
X101600000Y32900000D02*
X102200000Y32300000D01*
X96432350Y36119520D02*
X99651870Y32900000D01*
X94300000Y36450000D02*
X95250000Y36450000D01*
X99651870Y32900000D02*
X101600000Y32900000D01*
X95250000Y36450000D02*
X95580480Y36119520D01*
X95580480Y36119520D02*
X96432350Y36119520D01*
X96300000Y35800000D02*
X94950000Y35800000D01*
X101000000Y31100000D02*
X96300000Y35800000D01*
X93900000Y33550000D02*
X93900000Y32950000D01*
X99200000Y30500000D02*
X99800000Y29900000D01*
X95201870Y32550000D02*
X97251870Y30500000D01*
X97251870Y30500000D02*
X99200000Y30500000D01*
X94300000Y32550000D02*
X95201870Y32550000D01*
X93900000Y32950000D02*
X94300000Y32550000D01*
X98600000Y28700000D02*
X95069520Y32230480D01*
X93500000Y32898130D02*
X93500000Y33550000D01*
X94167650Y32230480D02*
X93500000Y32898130D01*
X95069520Y32230480D02*
X94167650Y32230480D01*
X94035300Y31910960D02*
X94937170Y31910960D01*
X93100000Y32846260D02*
X94035300Y31910960D01*
X93100000Y33550000D02*
X93100000Y32846260D01*
X96775000Y30073130D02*
X96775000Y28125000D01*
X94937170Y31910960D02*
X96775000Y30073130D01*
X96775000Y28125000D02*
X97400000Y27500000D01*
X90847377Y30997377D02*
X90847377Y27447377D01*
X92700000Y32850000D02*
X90847377Y30997377D01*
X92700000Y33550000D02*
X92700000Y32850000D01*
X91302623Y26247377D02*
X90300000Y27250000D01*
X90300000Y27700000D02*
X90527857Y27927857D01*
X92300000Y33250000D02*
X92050000Y33500000D01*
X90527857Y27927857D02*
X90527857Y31129726D01*
X92047377Y26247377D02*
X91302623Y26247377D01*
X90527857Y31129726D02*
X92300000Y32901869D01*
X92300000Y32901869D02*
X92300000Y33250000D01*
X90300000Y27250000D02*
X90300000Y27700000D01*
X92050000Y33500000D02*
X92050000Y34200000D01*
D31*
X94350000Y39250000D02*
X94350000Y38950000D01*
D33*
X93980000Y37230000D02*
X93980000Y37750000D01*
X93900000Y37150000D02*
X93980000Y37230000D01*
X93900000Y36450000D02*
X93900000Y37150000D01*
D31*
X94350000Y38750000D02*
X93980000Y38380000D01*
X93980000Y38380000D02*
X93980000Y37750000D01*
D33*
X95325000Y42200000D02*
X95320000Y42200000D01*
X95320000Y42200000D02*
X94770000Y42750000D01*
D31*
X94350000Y38950000D02*
X94350000Y38750000D01*
D32*
X91760000Y37750000D02*
X91760000Y38490000D01*
D31*
X94920000Y38950000D02*
X94350000Y38950000D01*
D32*
X90420480Y36327650D02*
X91348130Y35400000D01*
X93500000Y42750000D02*
X93500000Y42740000D01*
X93500000Y42740000D02*
X94060000Y42180000D01*
X90222350Y36327650D02*
X90420480Y36327650D01*
X89950000Y36600000D02*
X90222350Y36327650D01*
X91348130Y35400000D02*
X92050000Y35400000D01*
X93500000Y37270000D02*
X93020000Y37750000D01*
X93500000Y36450000D02*
X93500000Y37270000D01*
X85800000Y35550000D02*
X88000000Y37750000D01*
X91400000Y35800000D02*
X90740000Y36460000D01*
X90740000Y36460000D02*
X90740000Y37750000D01*
X88000000Y37750000D02*
X90740000Y37750000D01*
X92050000Y35800000D02*
X91400000Y35800000D01*
X84750000Y35550000D02*
X85800000Y35550000D01*
X94700000Y39750000D02*
X94350000Y39750000D01*
X94960000Y39490000D02*
X94700000Y39750000D01*
X95500000Y39490000D02*
X94960000Y39490000D01*
%TA.AperFunction,Conductor*%
G36*
X105990498Y44837491D02*
G01*
X105999713Y44835372D01*
X106008390Y44837336D01*
X106013848Y44837326D01*
X106025616Y44838382D01*
X106223325Y44829749D01*
X106418347Y44821234D01*
X106425212Y44820633D01*
X106836952Y44766427D01*
X106843740Y44765230D01*
X107249180Y44675346D01*
X107255837Y44673563D01*
X107651916Y44548679D01*
X107658392Y44546322D01*
X108042079Y44387395D01*
X108048325Y44384482D01*
X108416688Y44192724D01*
X108422657Y44189278D01*
X108772917Y43966137D01*
X108778562Y43962184D01*
X109108031Y43709374D01*
X109113311Y43704944D01*
X109419500Y43424373D01*
X109424373Y43419500D01*
X109704944Y43113311D01*
X109709374Y43108031D01*
X109962184Y42778562D01*
X109966137Y42772917D01*
X110189278Y42422657D01*
X110192724Y42416688D01*
X110379038Y42058782D01*
X110384482Y42048325D01*
X110387395Y42042079D01*
X110546322Y41658392D01*
X110548679Y41651916D01*
X110673563Y41255837D01*
X110675346Y41249180D01*
X110708962Y41097547D01*
X110754809Y40890748D01*
X110765230Y40843740D01*
X110766427Y40836952D01*
X110820633Y40425212D01*
X110821234Y40418347D01*
X110825898Y40311538D01*
X110837990Y40034606D01*
X110838364Y40026033D01*
X110837377Y40015255D01*
X110837366Y40008958D01*
X110835372Y40000287D01*
X110837336Y39991609D01*
X110837552Y39990653D01*
X110839500Y39973218D01*
X110839500Y25527206D01*
X110837491Y25509502D01*
X110835372Y25500287D01*
X110835437Y25500000D01*
X110835321Y25500000D01*
X110839500Y25462912D01*
X110839503Y25462884D01*
X110840000Y25454039D01*
X110840000Y19545969D01*
X110839871Y19541462D01*
X110839869Y19541427D01*
X110838073Y19537250D01*
X110839500Y19537089D01*
X110835321Y19500000D01*
X110835437Y19500000D01*
X110838129Y19488105D01*
X110837982Y19486804D01*
X110839500Y19473218D01*
X110839500Y5027206D01*
X110837491Y5009502D01*
X110835372Y5000287D01*
X110837336Y4991610D01*
X110837326Y4986152D01*
X110838382Y4974384D01*
X110829749Y4776675D01*
X110821234Y4581653D01*
X110820633Y4574788D01*
X110766427Y4163048D01*
X110765230Y4156260D01*
X110675346Y3750820D01*
X110673563Y3744163D01*
X110548679Y3348084D01*
X110546322Y3341608D01*
X110387395Y2957921D01*
X110384482Y2951675D01*
X110192724Y2583312D01*
X110189278Y2577343D01*
X109966137Y2227083D01*
X109962184Y2221438D01*
X109709374Y1891969D01*
X109704944Y1886689D01*
X109424373Y1580500D01*
X109419500Y1575627D01*
X109113311Y1295056D01*
X109108031Y1290626D01*
X108778562Y1037816D01*
X108772917Y1033863D01*
X108422657Y810722D01*
X108416688Y807276D01*
X108048325Y615518D01*
X108042079Y612605D01*
X107658392Y453678D01*
X107651916Y451321D01*
X107255837Y326437D01*
X107249180Y324654D01*
X106843740Y234770D01*
X106836952Y233573D01*
X106425212Y179367D01*
X106418347Y178766D01*
X106242142Y171072D01*
X106026030Y161636D01*
X106015255Y162623D01*
X106008958Y162634D01*
X106000287Y164628D01*
X105990653Y162448D01*
X105973218Y160500D01*
X81027206Y160500D01*
X81009502Y162509D01*
X81000287Y164628D01*
X80991610Y162664D01*
X80986152Y162674D01*
X80974384Y161618D01*
X80776675Y170251D01*
X80581653Y178766D01*
X80574788Y179367D01*
X80163048Y233573D01*
X80156260Y234770D01*
X79750820Y324654D01*
X79744163Y326437D01*
X79348084Y451321D01*
X79341608Y453678D01*
X78957921Y612605D01*
X78951675Y615518D01*
X78583312Y807276D01*
X78577343Y810722D01*
X78227083Y1033863D01*
X78221438Y1037816D01*
X77891969Y1290626D01*
X77886689Y1295056D01*
X77580500Y1575627D01*
X77575627Y1580500D01*
X77295056Y1886689D01*
X77290626Y1891969D01*
X77037816Y2221438D01*
X77033863Y2227083D01*
X76810722Y2577343D01*
X76807276Y2583312D01*
X76615518Y2951675D01*
X76612605Y2957921D01*
X76453678Y3341608D01*
X76451321Y3348084D01*
X76326437Y3744163D01*
X76324654Y3750820D01*
X76234770Y4156260D01*
X76233573Y4163048D01*
X76179367Y4574788D01*
X76178766Y4581653D01*
X76161646Y4973758D01*
X76163202Y4990621D01*
X76163106Y4990632D01*
X76163594Y4994866D01*
X76163610Y4995038D01*
X76163618Y4995072D01*
X76163618Y4995073D01*
X76164627Y4999425D01*
X76164628Y5000000D01*
X76163635Y5004355D01*
X76163634Y5004360D01*
X76162478Y5009427D01*
X76162236Y5011573D01*
X77684658Y5011573D01*
X77684766Y5009440D01*
X77684766Y5009431D01*
X77702692Y4655576D01*
X77702800Y4653450D01*
X77759512Y4299382D01*
X77760073Y4297330D01*
X77760074Y4297327D01*
X77796809Y4163048D01*
X77854133Y3953509D01*
X77985553Y3619878D01*
X78152237Y3302393D01*
X78352234Y3004765D01*
X78353599Y3003144D01*
X78353605Y3003136D01*
X78419168Y2925278D01*
X78583205Y2730479D01*
X78842448Y2482741D01*
X79126930Y2264450D01*
X79128756Y2263340D01*
X79128760Y2263337D01*
X79193167Y2224177D01*
X79433323Y2078160D01*
X79619932Y1990746D01*
X79756107Y1926957D01*
X79756113Y1926955D01*
X79758044Y1926050D01*
X80097292Y1809899D01*
X80368236Y1748839D01*
X80445006Y1731538D01*
X80445008Y1731538D01*
X80447101Y1731066D01*
X80803378Y1690474D01*
X80994260Y1689474D01*
X81159819Y1688607D01*
X81159822Y1688607D01*
X81161955Y1688596D01*
X81164073Y1688815D01*
X81164076Y1688815D01*
X81302146Y1703084D01*
X81518637Y1725456D01*
X81544806Y1731066D01*
X81625573Y1748381D01*
X81869252Y1800621D01*
X81871279Y1801291D01*
X81871285Y1801293D01*
X82034008Y1855109D01*
X82209699Y1913213D01*
X82211631Y1914094D01*
X82211640Y1914097D01*
X82534053Y2061029D01*
X82534059Y2061032D01*
X82535994Y2061914D01*
X82537827Y2063003D01*
X82537832Y2063005D01*
X82842480Y2243893D01*
X82844321Y2244986D01*
X83131074Y2460285D01*
X83155071Y2482741D01*
X83391335Y2703834D01*
X83391337Y2703836D01*
X83392896Y2705295D01*
X83626727Y2977148D01*
X83646924Y3006534D01*
X83828621Y3270905D01*
X83829830Y3272664D01*
X83845838Y3302393D01*
X83998819Y3586512D01*
X83998820Y3586514D01*
X83999829Y3588388D01*
X84134736Y3920624D01*
X84203793Y4163048D01*
X84232389Y4263437D01*
X84232973Y4265487D01*
X84233332Y4267587D01*
X84293030Y4616835D01*
X84293030Y4616838D01*
X84293390Y4618942D01*
X84295373Y4651349D01*
X84315212Y4975724D01*
X84315212Y4975730D01*
X84315281Y4976855D01*
X84315362Y5000000D01*
X84314852Y5009427D01*
X84314736Y5011573D01*
X102684658Y5011573D01*
X102684766Y5009440D01*
X102684766Y5009431D01*
X102702692Y4655576D01*
X102702800Y4653450D01*
X102759512Y4299382D01*
X102760073Y4297330D01*
X102760074Y4297327D01*
X102796809Y4163048D01*
X102854133Y3953509D01*
X102985553Y3619878D01*
X103152237Y3302393D01*
X103352234Y3004765D01*
X103353599Y3003144D01*
X103353605Y3003136D01*
X103419168Y2925278D01*
X103583205Y2730479D01*
X103842448Y2482741D01*
X104126930Y2264450D01*
X104128756Y2263340D01*
X104128760Y2263337D01*
X104193167Y2224177D01*
X104433323Y2078160D01*
X104619932Y1990746D01*
X104756107Y1926957D01*
X104756113Y1926955D01*
X104758044Y1926050D01*
X105097292Y1809899D01*
X105368236Y1748839D01*
X105445006Y1731538D01*
X105445008Y1731538D01*
X105447101Y1731066D01*
X105803378Y1690474D01*
X105994260Y1689474D01*
X106159819Y1688607D01*
X106159822Y1688607D01*
X106161955Y1688596D01*
X106164073Y1688815D01*
X106164076Y1688815D01*
X106302146Y1703084D01*
X106518637Y1725456D01*
X106544806Y1731066D01*
X106625573Y1748381D01*
X106869252Y1800621D01*
X106871279Y1801291D01*
X106871285Y1801293D01*
X107034008Y1855109D01*
X107209699Y1913213D01*
X107211631Y1914094D01*
X107211640Y1914097D01*
X107534053Y2061029D01*
X107534059Y2061032D01*
X107535994Y2061914D01*
X107537827Y2063003D01*
X107537832Y2063005D01*
X107842480Y2243893D01*
X107844321Y2244986D01*
X108131074Y2460285D01*
X108155071Y2482741D01*
X108391335Y2703834D01*
X108391337Y2703836D01*
X108392896Y2705295D01*
X108626727Y2977148D01*
X108646924Y3006534D01*
X108828621Y3270905D01*
X108829830Y3272664D01*
X108845838Y3302393D01*
X108998819Y3586512D01*
X108998820Y3586514D01*
X108999829Y3588388D01*
X109134736Y3920624D01*
X109203793Y4163048D01*
X109232389Y4263437D01*
X109232973Y4265487D01*
X109233332Y4267587D01*
X109293030Y4616835D01*
X109293030Y4616838D01*
X109293390Y4618942D01*
X109295373Y4651349D01*
X109315212Y4975724D01*
X109315212Y4975730D01*
X109315281Y4976855D01*
X109315362Y5000000D01*
X109314852Y5009427D01*
X109296086Y5355915D01*
X109295970Y5358057D01*
X109294087Y5369560D01*
X109238367Y5709817D01*
X109238022Y5711925D01*
X109234889Y5723224D01*
X109142768Y6055401D01*
X109142766Y6055406D01*
X109142195Y6057466D01*
X109009611Y6390635D01*
X108841820Y6707538D01*
X108640785Y7004465D01*
X108639397Y7006102D01*
X108410240Y7276315D01*
X108410235Y7276320D01*
X108408858Y7277944D01*
X108148752Y7524775D01*
X107863510Y7742072D01*
X107854892Y7747271D01*
X107558308Y7926181D01*
X107558309Y7926181D01*
X107556468Y7927291D01*
X107554523Y7928194D01*
X107554517Y7928197D01*
X107233156Y8077368D01*
X107233154Y8077369D01*
X107231219Y8078267D01*
X107229207Y8078948D01*
X107229202Y8078950D01*
X107056675Y8137347D01*
X106891567Y8193233D01*
X106889486Y8193694D01*
X106889480Y8193696D01*
X106743095Y8226148D01*
X106541485Y8270844D01*
X106539358Y8271079D01*
X106539351Y8271080D01*
X106333438Y8293813D01*
X106185068Y8310193D01*
X106182934Y8310197D01*
X106182929Y8310197D01*
X106006343Y8310505D01*
X105826487Y8310818D01*
X105469936Y8272714D01*
X105467853Y8272260D01*
X105467848Y8272259D01*
X105168433Y8206976D01*
X105119585Y8196325D01*
X105117565Y8195649D01*
X105117561Y8195648D01*
X104948089Y8138943D01*
X104779534Y8082546D01*
X104453759Y7932706D01*
X104451937Y7931616D01*
X104451934Y7931614D01*
X104147909Y7749659D01*
X104146073Y7748560D01*
X104144374Y7747275D01*
X104144368Y7747271D01*
X103861773Y7533545D01*
X103860074Y7532260D01*
X103599108Y7286338D01*
X103597721Y7284714D01*
X103597720Y7284713D01*
X103569852Y7252083D01*
X103366228Y7013671D01*
X103164158Y6717447D01*
X102995262Y6401133D01*
X102994465Y6399151D01*
X102994462Y6399144D01*
X102869587Y6088506D01*
X102861515Y6068427D01*
X102860937Y6066372D01*
X102860935Y6066365D01*
X102798110Y5842854D01*
X102764483Y5723224D01*
X102705300Y5369560D01*
X102684658Y5011573D01*
X84314736Y5011573D01*
X84296086Y5355915D01*
X84295970Y5358057D01*
X84294087Y5369560D01*
X84238367Y5709817D01*
X84238022Y5711925D01*
X84234889Y5723224D01*
X84142768Y6055401D01*
X84142766Y6055406D01*
X84142195Y6057466D01*
X84009611Y6390635D01*
X83841820Y6707538D01*
X83640785Y7004465D01*
X83639397Y7006102D01*
X83410240Y7276315D01*
X83410235Y7276320D01*
X83408858Y7277944D01*
X83148752Y7524775D01*
X82863510Y7742072D01*
X82854892Y7747271D01*
X82558308Y7926181D01*
X82558309Y7926181D01*
X82556468Y7927291D01*
X82554523Y7928194D01*
X82554517Y7928197D01*
X82233156Y8077368D01*
X82233154Y8077369D01*
X82231219Y8078267D01*
X82229207Y8078948D01*
X82229202Y8078950D01*
X82056675Y8137347D01*
X81891567Y8193233D01*
X81889486Y8193694D01*
X81889480Y8193696D01*
X81743095Y8226148D01*
X81541485Y8270844D01*
X81539358Y8271079D01*
X81539351Y8271080D01*
X81333438Y8293813D01*
X81185068Y8310193D01*
X81182934Y8310197D01*
X81182929Y8310197D01*
X81006343Y8310505D01*
X80826487Y8310818D01*
X80469936Y8272714D01*
X80467853Y8272260D01*
X80467848Y8272259D01*
X80168433Y8206976D01*
X80119585Y8196325D01*
X80117565Y8195649D01*
X80117561Y8195648D01*
X79948089Y8138943D01*
X79779534Y8082546D01*
X79453759Y7932706D01*
X79451937Y7931616D01*
X79451934Y7931614D01*
X79147909Y7749659D01*
X79146073Y7748560D01*
X79144374Y7747275D01*
X79144368Y7747271D01*
X78861773Y7533545D01*
X78860074Y7532260D01*
X78599108Y7286338D01*
X78597721Y7284714D01*
X78597720Y7284713D01*
X78569852Y7252083D01*
X78366228Y7013671D01*
X78164158Y6717447D01*
X77995262Y6401133D01*
X77994465Y6399151D01*
X77994462Y6399144D01*
X77869587Y6088506D01*
X77861515Y6068427D01*
X77860937Y6066372D01*
X77860935Y6066365D01*
X77798110Y5842854D01*
X77764483Y5723224D01*
X77705300Y5369560D01*
X77684658Y5011573D01*
X76162236Y5011573D01*
X76160500Y5026995D01*
X76160500Y14144604D01*
X91525001Y14144604D01*
X91525421Y14138867D01*
X91535028Y14073596D01*
X91538628Y14062009D01*
X91588432Y13960572D01*
X91595931Y13950097D01*
X91675632Y13870535D01*
X91686121Y13863054D01*
X91787653Y13813424D01*
X91799225Y13809846D01*
X91863893Y13800412D01*
X91869579Y13800000D01*
X93386070Y13800000D01*
X93396741Y13803884D01*
X93400000Y13809528D01*
X93400000Y13813931D01*
X93600000Y13813931D01*
X93603884Y13803260D01*
X93609528Y13800001D01*
X95130396Y13800001D01*
X95136133Y13800421D01*
X95201404Y13810028D01*
X95212991Y13813628D01*
X95314428Y13863432D01*
X95324903Y13870931D01*
X95404465Y13950632D01*
X95411946Y13961121D01*
X95461576Y14062653D01*
X95465154Y14074225D01*
X95474588Y14138893D01*
X95475000Y14144579D01*
X95475000Y15886070D01*
X95471116Y15896741D01*
X95465472Y15900000D01*
X93613930Y15900000D01*
X93603259Y15896116D01*
X93600000Y15890472D01*
X93600000Y13813931D01*
X93400000Y13813931D01*
X93400000Y15886070D01*
X93396116Y15896741D01*
X93390472Y15900000D01*
X91538931Y15900000D01*
X91528260Y15896116D01*
X91525001Y15890472D01*
X91525001Y14144604D01*
X76160500Y14144604D01*
X76160500Y16113930D01*
X91525000Y16113930D01*
X91528884Y16103259D01*
X91534528Y16100000D01*
X93386070Y16100000D01*
X93396741Y16103884D01*
X93400000Y16109528D01*
X93400000Y16113930D01*
X93600000Y16113930D01*
X93603884Y16103259D01*
X93609528Y16100000D01*
X95461069Y16100000D01*
X95471740Y16103884D01*
X95474999Y16109528D01*
X95474999Y17855396D01*
X95474579Y17861133D01*
X95464972Y17926404D01*
X95461372Y17937991D01*
X95411568Y18039428D01*
X95404069Y18049903D01*
X95324368Y18129465D01*
X95313879Y18136946D01*
X95212347Y18186576D01*
X95200775Y18190154D01*
X95136107Y18199588D01*
X95130421Y18200000D01*
X93613930Y18200000D01*
X93603259Y18196116D01*
X93600000Y18190472D01*
X93600000Y16113930D01*
X93400000Y16113930D01*
X93400000Y18186069D01*
X93396116Y18196740D01*
X93390472Y18199999D01*
X91869604Y18199999D01*
X91863867Y18199579D01*
X91798596Y18189972D01*
X91787009Y18186372D01*
X91685572Y18136568D01*
X91675097Y18129069D01*
X91595535Y18049368D01*
X91588054Y18038879D01*
X91538424Y17937347D01*
X91534846Y17925775D01*
X91525412Y17861107D01*
X91525000Y17855421D01*
X91525000Y16113930D01*
X76160500Y16113930D01*
X76160500Y19472583D01*
X76162540Y19490421D01*
X76163890Y19496247D01*
X76164627Y19499425D01*
X76164628Y19500000D01*
X76164679Y19500000D01*
X76160497Y19537116D01*
X76160000Y19545961D01*
X76160000Y25454031D01*
X76160122Y25458413D01*
X76160124Y25458449D01*
X76161964Y25462747D01*
X76160500Y25462912D01*
X76163118Y25486144D01*
X76163118Y25486145D01*
X76164602Y25499318D01*
X76164627Y25499425D01*
X76164627Y25499540D01*
X76164679Y25500000D01*
X76164628Y25500000D01*
X76161856Y25512153D01*
X76162014Y25513550D01*
X76160500Y25526995D01*
X76160500Y28871626D01*
X81050001Y28871626D01*
X81050486Y28865455D01*
X81063862Y28780995D01*
X81067660Y28769308D01*
X81119536Y28667496D01*
X81126757Y28657557D01*
X81207557Y28576757D01*
X81217496Y28569536D01*
X81319311Y28517659D01*
X81330994Y28513862D01*
X81415453Y28500486D01*
X81421621Y28500000D01*
X81636070Y28500000D01*
X81646741Y28503884D01*
X81650000Y28509528D01*
X81650000Y28513931D01*
X81850000Y28513931D01*
X81853884Y28503260D01*
X81859528Y28500001D01*
X82078374Y28500001D01*
X82084545Y28500486D01*
X82169005Y28513862D01*
X82180692Y28517660D01*
X82282504Y28569536D01*
X82292443Y28576757D01*
X82373243Y28657557D01*
X82380464Y28667496D01*
X82432341Y28769311D01*
X82436138Y28780994D01*
X82449514Y28865453D01*
X82449544Y28865828D01*
X84089500Y28865828D01*
X84099930Y28794974D01*
X84152824Y28687243D01*
X84237762Y28602453D01*
X84345585Y28549747D01*
X84371775Y28545926D01*
X84413001Y28539912D01*
X84413006Y28539912D01*
X84415828Y28539500D01*
X85084172Y28539500D01*
X85155026Y28549930D01*
X85262757Y28602824D01*
X85347547Y28687762D01*
X85400253Y28795585D01*
X85408116Y28849483D01*
X85410088Y28863001D01*
X85410088Y28863006D01*
X85410500Y28865828D01*
X85410500Y30034172D01*
X85400070Y30105026D01*
X85347176Y30212757D01*
X85262238Y30297547D01*
X85154415Y30350253D01*
X85128225Y30354074D01*
X85086999Y30360088D01*
X85086994Y30360088D01*
X85084172Y30360500D01*
X84415828Y30360500D01*
X84344974Y30350070D01*
X84237243Y30297176D01*
X84152453Y30212238D01*
X84099747Y30104415D01*
X84098862Y30098347D01*
X84089916Y30037022D01*
X84089500Y30034172D01*
X84089500Y28865828D01*
X82449544Y28865828D01*
X82450000Y28871621D01*
X82450000Y29336070D01*
X82446116Y29346741D01*
X82440472Y29350000D01*
X81863930Y29350000D01*
X81853259Y29346116D01*
X81850000Y29340472D01*
X81850000Y28513931D01*
X81650000Y28513931D01*
X81650000Y29336070D01*
X81646116Y29346741D01*
X81640472Y29350000D01*
X81063931Y29350000D01*
X81053260Y29346116D01*
X81050001Y29340472D01*
X81050001Y28871626D01*
X76160500Y28871626D01*
X76160500Y29563930D01*
X81050000Y29563930D01*
X81053884Y29553259D01*
X81059528Y29550000D01*
X81636070Y29550000D01*
X81646741Y29553884D01*
X81650000Y29559528D01*
X81650000Y29563930D01*
X81850000Y29563930D01*
X81853884Y29553259D01*
X81859528Y29550000D01*
X82436069Y29550000D01*
X82446740Y29553884D01*
X82449999Y29559528D01*
X82449999Y30028374D01*
X82449514Y30034545D01*
X82436138Y30119005D01*
X82432340Y30130692D01*
X82380464Y30232504D01*
X82373243Y30242443D01*
X82292443Y30323243D01*
X82282504Y30330464D01*
X82180689Y30382341D01*
X82169006Y30386138D01*
X82084547Y30399514D01*
X82078379Y30400000D01*
X81863930Y30400000D01*
X81853259Y30396116D01*
X81850000Y30390472D01*
X81850000Y29563930D01*
X81650000Y29563930D01*
X81650000Y30386069D01*
X81646116Y30396740D01*
X81640472Y30399999D01*
X81421626Y30399999D01*
X81415455Y30399514D01*
X81330995Y30386138D01*
X81319308Y30382340D01*
X81217496Y30330464D01*
X81207557Y30323243D01*
X81126757Y30242443D01*
X81119536Y30232504D01*
X81067659Y30130689D01*
X81063862Y30119006D01*
X81050486Y30034547D01*
X81050000Y30028379D01*
X81050000Y29563930D01*
X76160500Y29563930D01*
X76160500Y34971626D01*
X81050001Y34971626D01*
X81050486Y34965455D01*
X81063862Y34880995D01*
X81067660Y34869308D01*
X81119536Y34767496D01*
X81126757Y34757557D01*
X81207557Y34676757D01*
X81217496Y34669536D01*
X81319311Y34617659D01*
X81330994Y34613862D01*
X81415453Y34600486D01*
X81421621Y34600000D01*
X81636070Y34600000D01*
X81646741Y34603884D01*
X81650000Y34609528D01*
X81650000Y34613931D01*
X81850000Y34613931D01*
X81853884Y34603260D01*
X81859528Y34600001D01*
X82078374Y34600001D01*
X82084545Y34600486D01*
X82169005Y34613862D01*
X82180692Y34617660D01*
X82282504Y34669536D01*
X82292443Y34676757D01*
X82373243Y34757557D01*
X82380464Y34767496D01*
X82432341Y34869311D01*
X82436138Y34880994D01*
X82449514Y34965453D01*
X82449544Y34965828D01*
X84089500Y34965828D01*
X84099930Y34894974D01*
X84152824Y34787243D01*
X84237762Y34702453D01*
X84345585Y34649747D01*
X84371775Y34645926D01*
X84413001Y34639912D01*
X84413006Y34639912D01*
X84415828Y34639500D01*
X85084172Y34639500D01*
X85155026Y34649930D01*
X85262757Y34702824D01*
X85347547Y34787762D01*
X85400253Y34895585D01*
X85404074Y34921775D01*
X85410088Y34963001D01*
X85410088Y34963006D01*
X85410500Y34965828D01*
X85410500Y35230500D01*
X85428982Y35281280D01*
X85475782Y35308300D01*
X85489500Y35309500D01*
X85791625Y35309500D01*
X85795760Y35309392D01*
X85830172Y35307588D01*
X85830174Y35307588D01*
X85838462Y35307154D01*
X85862718Y35316465D01*
X85874587Y35319981D01*
X85900006Y35325384D01*
X85907330Y35330706D01*
X85925463Y35340551D01*
X85926162Y35340819D01*
X85926163Y35340820D01*
X85933912Y35343794D01*
X85952276Y35362158D01*
X85961696Y35370205D01*
X85982719Y35385479D01*
X85987251Y35393329D01*
X85999804Y35409686D01*
X88076480Y37486361D01*
X88125456Y37509199D01*
X88132341Y37509500D01*
X90254920Y37509500D01*
X90305700Y37491018D01*
X90327118Y37462569D01*
X90328703Y37459001D01*
X90352154Y37406206D01*
X90357252Y37394728D01*
X90362415Y37389574D01*
X90429691Y37322415D01*
X90435160Y37316955D01*
X90452444Y37309314D01*
X90491414Y37271876D01*
X90499500Y37237060D01*
X90499500Y36776838D01*
X90481018Y36726058D01*
X90434218Y36699038D01*
X90381000Y36708422D01*
X90350111Y36740973D01*
X90297259Y36844700D01*
X90297257Y36844703D01*
X90294433Y36850245D01*
X90200245Y36944433D01*
X90189320Y36950000D01*
X90103033Y36993965D01*
X90081562Y37004905D01*
X90075423Y37005877D01*
X90075421Y37005878D01*
X89956143Y37024769D01*
X89950000Y37025742D01*
X89943857Y37024769D01*
X89824579Y37005878D01*
X89824577Y37005877D01*
X89818438Y37004905D01*
X89796967Y36993965D01*
X89710681Y36950000D01*
X89699755Y36944433D01*
X89605567Y36850245D01*
X89602745Y36844706D01*
X89602744Y36844705D01*
X89588554Y36816855D01*
X89545095Y36731562D01*
X89544123Y36725423D01*
X89544122Y36725421D01*
X89530269Y36637955D01*
X89524258Y36600000D01*
X89525231Y36593857D01*
X89542303Y36486069D01*
X89545095Y36468438D01*
X89605567Y36349755D01*
X89699755Y36255567D01*
X89818438Y36195095D01*
X89824577Y36194123D01*
X89824579Y36194122D01*
X89943857Y36175231D01*
X89950000Y36174258D01*
X89983639Y36179586D01*
X90036683Y36169274D01*
X90054702Y36154419D01*
X90072269Y36134909D01*
X90072272Y36134907D01*
X90077829Y36128735D01*
X90085415Y36125358D01*
X90085417Y36125356D01*
X90101556Y36118171D01*
X90112450Y36112256D01*
X90127271Y36102631D01*
X90127274Y36102630D01*
X90134237Y36098108D01*
X90142438Y36096809D01*
X90143182Y36096691D01*
X90162953Y36090835D01*
X90171230Y36087150D01*
X90197207Y36087150D01*
X90209565Y36086177D01*
X90227014Y36083413D01*
X90227016Y36083413D01*
X90235218Y36082114D01*
X90243965Y36084458D01*
X90264413Y36087150D01*
X90288140Y36087150D01*
X90338920Y36068668D01*
X90344001Y36064011D01*
X91172142Y35235870D01*
X91174990Y35232870D01*
X91203609Y35201085D01*
X91211195Y35197708D01*
X91211197Y35197706D01*
X91227336Y35190521D01*
X91238230Y35184606D01*
X91253051Y35174981D01*
X91253054Y35174980D01*
X91260017Y35170458D01*
X91268218Y35169159D01*
X91268962Y35169041D01*
X91288733Y35163185D01*
X91297010Y35159500D01*
X91322987Y35159500D01*
X91335345Y35158527D01*
X91352794Y35155763D01*
X91352796Y35155763D01*
X91360998Y35154464D01*
X91369745Y35156808D01*
X91390193Y35159500D01*
X91411462Y35159500D01*
X91462242Y35141018D01*
X91489262Y35094218D01*
X91490053Y35073514D01*
X91489500Y35070733D01*
X91489501Y34929268D01*
X91501713Y34867867D01*
X91506037Y34861396D01*
X91506038Y34861393D01*
X91517733Y34843891D01*
X91530579Y34791401D01*
X91517733Y34756109D01*
X91506037Y34738605D01*
X91506036Y34738603D01*
X91501713Y34732133D01*
X91489500Y34670733D01*
X91489500Y34666848D01*
X91489501Y34599928D01*
X91489501Y34529268D01*
X91501713Y34467867D01*
X91506037Y34461396D01*
X91506038Y34461393D01*
X91517733Y34443891D01*
X91530579Y34391401D01*
X91517733Y34356109D01*
X91506037Y34338605D01*
X91506036Y34338603D01*
X91501713Y34332133D01*
X91489500Y34270733D01*
X91489501Y34129268D01*
X91501713Y34067867D01*
X91548238Y33998238D01*
X91617867Y33951713D01*
X91625494Y33950196D01*
X91625496Y33950195D01*
X91675455Y33940258D01*
X91675457Y33940258D01*
X91679267Y33939500D01*
X91730500Y33939500D01*
X91781280Y33921018D01*
X91808300Y33874218D01*
X91809500Y33860500D01*
X91809500Y33508375D01*
X91809392Y33504241D01*
X91807154Y33461538D01*
X91816465Y33437282D01*
X91819981Y33425413D01*
X91825384Y33399994D01*
X91830706Y33392670D01*
X91840551Y33374537D01*
X91843794Y33366088D01*
X91862158Y33347724D01*
X91870205Y33338304D01*
X91885479Y33317281D01*
X91893329Y33312749D01*
X91909686Y33300196D01*
X92036361Y33173521D01*
X92059199Y33124545D01*
X92059500Y33117660D01*
X92059500Y33034210D01*
X92041018Y32983430D01*
X92036361Y32978349D01*
X90363727Y31305714D01*
X90360727Y31302866D01*
X90328942Y31274247D01*
X90325565Y31266661D01*
X90325563Y31266659D01*
X90318378Y31250520D01*
X90312463Y31239626D01*
X90302838Y31224805D01*
X90302837Y31224802D01*
X90298315Y31217839D01*
X90297016Y31209638D01*
X90296898Y31208894D01*
X90291042Y31189123D01*
X90287357Y31180846D01*
X90287357Y31154869D01*
X90286384Y31142511D01*
X90285062Y31134161D01*
X90282321Y31116858D01*
X90284471Y31108836D01*
X90284665Y31108110D01*
X90287357Y31087663D01*
X90287357Y28060197D01*
X90268875Y28009417D01*
X90264218Y28004336D01*
X90135870Y27875988D01*
X90132870Y27873140D01*
X90101085Y27844521D01*
X90097708Y27836935D01*
X90097706Y27836933D01*
X90090521Y27820794D01*
X90084606Y27809900D01*
X90074981Y27795079D01*
X90074980Y27795076D01*
X90070458Y27788113D01*
X90069159Y27779912D01*
X90069041Y27779168D01*
X90063185Y27759397D01*
X90059500Y27751120D01*
X90059500Y27725143D01*
X90058527Y27712785D01*
X90054464Y27687132D01*
X90056614Y27679110D01*
X90056808Y27678384D01*
X90059500Y27657937D01*
X90059500Y27258375D01*
X90059392Y27254241D01*
X90057154Y27211538D01*
X90066465Y27187282D01*
X90069981Y27175413D01*
X90075384Y27149994D01*
X90080706Y27142670D01*
X90090551Y27124537D01*
X90093794Y27116088D01*
X90112158Y27097724D01*
X90120205Y27088304D01*
X90135479Y27067281D01*
X90143329Y27062749D01*
X90159686Y27050196D01*
X91126635Y26083247D01*
X91129483Y26080247D01*
X91158102Y26048462D01*
X91165688Y26045085D01*
X91165690Y26045083D01*
X91181829Y26037898D01*
X91192723Y26031983D01*
X91207544Y26022358D01*
X91207547Y26022357D01*
X91214510Y26017835D01*
X91222711Y26016536D01*
X91223455Y26016418D01*
X91243226Y26010562D01*
X91251503Y26006877D01*
X91277480Y26006877D01*
X91289838Y26005904D01*
X91307287Y26003140D01*
X91307289Y26003140D01*
X91315491Y26001841D01*
X91324238Y26004185D01*
X91344686Y26006877D01*
X91660477Y26006877D01*
X91711257Y25988395D01*
X91716338Y25983738D01*
X91797132Y25902944D01*
X91915815Y25842472D01*
X91921954Y25841500D01*
X91921956Y25841499D01*
X92041234Y25822608D01*
X92047377Y25821635D01*
X92053520Y25822608D01*
X92172798Y25841499D01*
X92172800Y25841500D01*
X92178939Y25842472D01*
X92297622Y25902944D01*
X92391810Y25997132D01*
X92396776Y26006877D01*
X92449460Y26110277D01*
X92452282Y26115815D01*
X92458413Y26154521D01*
X92472146Y26241234D01*
X92473119Y26247377D01*
X92464042Y26304687D01*
X92453255Y26372798D01*
X92453254Y26372800D01*
X92452282Y26378939D01*
X92420954Y26440424D01*
X92394633Y26492082D01*
X92394632Y26492083D01*
X92391810Y26497622D01*
X92297622Y26591810D01*
X92178939Y26652282D01*
X92172800Y26653254D01*
X92172798Y26653255D01*
X92053520Y26672146D01*
X92047377Y26673119D01*
X92041234Y26672146D01*
X91921956Y26653255D01*
X91921954Y26653254D01*
X91915815Y26652282D01*
X91797132Y26591810D01*
X91716338Y26511016D01*
X91667362Y26488178D01*
X91660477Y26487877D01*
X91434963Y26487877D01*
X91384183Y26506359D01*
X91379102Y26511016D01*
X90968849Y26921269D01*
X90946011Y26970245D01*
X90959997Y27022443D01*
X90988843Y27047518D01*
X91080308Y27094122D01*
X91092082Y27100121D01*
X91092083Y27100122D01*
X91097622Y27102944D01*
X91191810Y27197132D01*
X91197445Y27208190D01*
X91249460Y27310277D01*
X91252282Y27315815D01*
X91254711Y27331147D01*
X91270113Y27428399D01*
X91273119Y27447377D01*
X91266266Y27490645D01*
X91253255Y27572798D01*
X91253254Y27572800D01*
X91252282Y27578939D01*
X91201612Y27678384D01*
X91194633Y27692082D01*
X91194632Y27692083D01*
X91191810Y27697622D01*
X91111016Y27778416D01*
X91088178Y27827392D01*
X91087877Y27834277D01*
X91087877Y30537103D01*
X91564500Y30537103D01*
X91564501Y27262898D01*
X91564839Y27260333D01*
X91564839Y27260327D01*
X91566231Y27249755D01*
X91570981Y27213670D01*
X91573534Y27208195D01*
X91573535Y27208192D01*
X91616484Y27116088D01*
X91621356Y27105641D01*
X91705641Y27021356D01*
X91711907Y27018434D01*
X91808190Y26973536D01*
X91808192Y26973535D01*
X91813670Y26970981D01*
X91835526Y26968104D01*
X91860328Y26964838D01*
X91860331Y26964838D01*
X91862897Y26964500D01*
X93499368Y26964500D01*
X95137102Y26964501D01*
X95165316Y26968215D01*
X95180338Y26970192D01*
X95180340Y26970192D01*
X95186330Y26970981D01*
X95191805Y26973534D01*
X95191808Y26973535D01*
X95288093Y27018434D01*
X95294359Y27021356D01*
X95378644Y27105641D01*
X95383516Y27116088D01*
X95426464Y27208190D01*
X95426465Y27208192D01*
X95429019Y27213670D01*
X95435500Y27262897D01*
X95435499Y30537102D01*
X95429019Y30586330D01*
X95422893Y30599469D01*
X95381566Y30688093D01*
X95378644Y30694359D01*
X95294359Y30778644D01*
X95288093Y30781566D01*
X95191810Y30826464D01*
X95191808Y30826465D01*
X95186330Y30829019D01*
X95164474Y30831896D01*
X95139672Y30835162D01*
X95139669Y30835162D01*
X95137103Y30835500D01*
X93870900Y30835500D01*
X93820120Y30853982D01*
X93793100Y30900782D01*
X93802484Y30954000D01*
X93815039Y30970361D01*
X93844433Y30999755D01*
X93904905Y31118438D01*
X93907396Y31134161D01*
X93924769Y31243857D01*
X93925742Y31250000D01*
X93904905Y31381562D01*
X93858750Y31472146D01*
X93847256Y31494705D01*
X93847255Y31494706D01*
X93844433Y31500245D01*
X93750245Y31594433D01*
X93743671Y31597783D01*
X93646446Y31647321D01*
X93631562Y31654905D01*
X93625423Y31655877D01*
X93625421Y31655878D01*
X93506143Y31674769D01*
X93500000Y31675742D01*
X93493857Y31674769D01*
X93374579Y31655878D01*
X93374577Y31655877D01*
X93368438Y31654905D01*
X93353554Y31647321D01*
X93256330Y31597783D01*
X93249755Y31594433D01*
X93155567Y31500245D01*
X93152745Y31494706D01*
X93152744Y31494705D01*
X93141250Y31472146D01*
X93095095Y31381562D01*
X93074258Y31250000D01*
X93075231Y31243857D01*
X93092605Y31134161D01*
X93095095Y31118438D01*
X93155567Y30999755D01*
X93184962Y30970360D01*
X93207800Y30921384D01*
X93193814Y30869186D01*
X93149548Y30838191D01*
X93129101Y30835499D01*
X91862898Y30835499D01*
X91834684Y30831785D01*
X91819662Y30829808D01*
X91819660Y30829808D01*
X91813670Y30829019D01*
X91808195Y30826466D01*
X91808192Y30826465D01*
X91711907Y30781566D01*
X91705641Y30778644D01*
X91621356Y30694359D01*
X91618434Y30688093D01*
X91577108Y30599469D01*
X91570981Y30586330D01*
X91564500Y30537103D01*
X91087877Y30537103D01*
X91087877Y30865037D01*
X91106359Y30915817D01*
X91111016Y30920898D01*
X92840744Y32650625D01*
X92889720Y32673463D01*
X92936107Y32663178D01*
X92943329Y32659009D01*
X92959686Y32646456D01*
X93859312Y31746830D01*
X93862160Y31743830D01*
X93890779Y31712045D01*
X93898365Y31708668D01*
X93898367Y31708666D01*
X93914506Y31701481D01*
X93925400Y31695566D01*
X93940221Y31685941D01*
X93940224Y31685940D01*
X93947187Y31681418D01*
X93955388Y31680119D01*
X93956132Y31680001D01*
X93975903Y31674145D01*
X93984180Y31670460D01*
X94010157Y31670460D01*
X94022515Y31669487D01*
X94039964Y31666723D01*
X94039966Y31666723D01*
X94048168Y31665424D01*
X94056915Y31667768D01*
X94077363Y31670460D01*
X94804830Y31670460D01*
X94855610Y31651978D01*
X94860691Y31647321D01*
X96511361Y29996651D01*
X96534199Y29947675D01*
X96534500Y29940790D01*
X96534500Y28133375D01*
X96534392Y28129241D01*
X96532154Y28086538D01*
X96541465Y28062282D01*
X96544981Y28050413D01*
X96550384Y28024994D01*
X96555706Y28017670D01*
X96565551Y27999537D01*
X96568794Y27991088D01*
X96587158Y27972724D01*
X96595205Y27963304D01*
X96610479Y27942281D01*
X96618329Y27937749D01*
X96634686Y27925196D01*
X96957502Y27602380D01*
X96980340Y27553404D01*
X96979669Y27534165D01*
X96974258Y27500000D01*
X96975231Y27493857D01*
X96982593Y27447377D01*
X96995095Y27368438D01*
X96997917Y27362900D01*
X97052232Y27256301D01*
X97055567Y27249755D01*
X97149755Y27155567D01*
X97155294Y27152745D01*
X97155295Y27152744D01*
X97173875Y27143277D01*
X97268438Y27095095D01*
X97274577Y27094123D01*
X97274579Y27094122D01*
X97394051Y27075200D01*
X97441315Y27049002D01*
X97460681Y26998552D01*
X97443088Y26947457D01*
X97437554Y26941312D01*
X97305861Y26809619D01*
X97256885Y26786781D01*
X97204687Y26800767D01*
X97194139Y26809619D01*
X96600531Y27403227D01*
X96579835Y27447610D01*
X96578365Y27447377D01*
X96558501Y27572798D01*
X96558500Y27572800D01*
X96557528Y27578939D01*
X96506858Y27678384D01*
X96499879Y27692082D01*
X96499878Y27692083D01*
X96497056Y27697622D01*
X96402868Y27791810D01*
X96396453Y27795079D01*
X96314309Y27836933D01*
X96284185Y27852282D01*
X96278046Y27853254D01*
X96278044Y27853255D01*
X96158766Y27872146D01*
X96152623Y27873119D01*
X96146480Y27872146D01*
X96027202Y27853255D01*
X96027200Y27853254D01*
X96021061Y27852282D01*
X95990937Y27836933D01*
X95908794Y27795079D01*
X95902378Y27791810D01*
X95808190Y27697622D01*
X95805368Y27692083D01*
X95805367Y27692082D01*
X95798388Y27678384D01*
X95747718Y27578939D01*
X95746746Y27572800D01*
X95746745Y27572798D01*
X95733734Y27490645D01*
X95726881Y27447377D01*
X95729887Y27428399D01*
X95745290Y27331147D01*
X95747718Y27315815D01*
X95750540Y27310277D01*
X95802556Y27208190D01*
X95808190Y27197132D01*
X95902378Y27102944D01*
X95907917Y27100122D01*
X95907918Y27100121D01*
X95919692Y27094122D01*
X96021061Y27042472D01*
X96027200Y27041500D01*
X96027202Y27041499D01*
X96152623Y27021635D01*
X96152130Y27018525D01*
X96191692Y27004126D01*
X96196773Y26999469D01*
X96790381Y26405861D01*
X96813219Y26356885D01*
X96799233Y26304687D01*
X96790381Y26294139D01*
X96105860Y25609618D01*
X96056886Y25586781D01*
X96004689Y25600767D01*
X95994140Y25609619D01*
X95400532Y26203227D01*
X95379836Y26247610D01*
X95378366Y26247377D01*
X95358502Y26372798D01*
X95358501Y26372800D01*
X95357529Y26378939D01*
X95326201Y26440424D01*
X95299880Y26492082D01*
X95299879Y26492083D01*
X95297057Y26497622D01*
X95202869Y26591810D01*
X95084186Y26652282D01*
X95078047Y26653254D01*
X95078045Y26653255D01*
X94958767Y26672146D01*
X94952624Y26673119D01*
X94946481Y26672146D01*
X94827203Y26653255D01*
X94827201Y26653254D01*
X94821062Y26652282D01*
X94702379Y26591810D01*
X94608191Y26497622D01*
X94605369Y26492083D01*
X94605368Y26492082D01*
X94579047Y26440424D01*
X94547719Y26378939D01*
X94546747Y26372800D01*
X94546746Y26372798D01*
X94535959Y26304687D01*
X94526882Y26247377D01*
X94527855Y26241234D01*
X94541589Y26154521D01*
X94547719Y26115815D01*
X94550541Y26110277D01*
X94603226Y26006877D01*
X94608191Y25997132D01*
X94702379Y25902944D01*
X94821062Y25842472D01*
X94827201Y25841500D01*
X94827203Y25841499D01*
X94952624Y25821635D01*
X94952131Y25818525D01*
X94991693Y25804126D01*
X94996774Y25799469D01*
X95552425Y25243818D01*
X95575263Y25194842D01*
X95561277Y25142644D01*
X95517011Y25111649D01*
X95496564Y25108957D01*
X92615357Y25108957D01*
X92564577Y25127439D01*
X92559496Y25132096D01*
X92523702Y25167890D01*
X92405019Y25228362D01*
X92398880Y25229334D01*
X92398878Y25229335D01*
X92279600Y25248226D01*
X92273457Y25249199D01*
X92267314Y25248226D01*
X92148036Y25229335D01*
X92148034Y25229334D01*
X92141895Y25228362D01*
X92023212Y25167890D01*
X91929024Y25073702D01*
X91868552Y24955019D01*
X91847715Y24823457D01*
X91868552Y24691895D01*
X91895390Y24639222D01*
X91908190Y24614102D01*
X91929024Y24573212D01*
X92023212Y24479024D01*
X92141895Y24418552D01*
X92148034Y24417580D01*
X92148036Y24417579D01*
X92267314Y24398688D01*
X92273457Y24397715D01*
X92279600Y24398688D01*
X92398878Y24417579D01*
X92398880Y24417580D01*
X92405019Y24418552D01*
X92523702Y24479024D01*
X92559496Y24514818D01*
X92608472Y24537656D01*
X92615357Y24537957D01*
X95671983Y24537957D01*
X95676712Y24537610D01*
X95681028Y24536128D01*
X95728256Y24537901D01*
X95731219Y24537957D01*
X95750009Y24537957D01*
X95753586Y24538623D01*
X95755629Y24538812D01*
X95759926Y24539090D01*
X95780020Y24539844D01*
X95780022Y24539844D01*
X95787310Y24540118D01*
X95798899Y24545097D01*
X95815612Y24550174D01*
X95820841Y24551148D01*
X95820845Y24551149D01*
X95828016Y24552485D01*
X95850502Y24566345D01*
X95860767Y24571677D01*
X95864340Y24573212D01*
X95885031Y24582102D01*
X95889672Y24585914D01*
X95895063Y24591305D01*
X95909471Y24602694D01*
X95912343Y24604464D01*
X95912346Y24604467D01*
X95918555Y24608294D01*
X95935957Y24631179D01*
X95942980Y24639222D01*
X96065476Y24761718D01*
X96069071Y24764822D01*
X96073171Y24766826D01*
X96105331Y24801495D01*
X96107388Y24803630D01*
X96371606Y25067848D01*
X96386014Y25079237D01*
X96388886Y25081007D01*
X96388889Y25081010D01*
X96395098Y25084837D01*
X96412500Y25107722D01*
X96419523Y25115765D01*
X97265476Y25961718D01*
X97269071Y25964822D01*
X97273171Y25966826D01*
X97305331Y26001495D01*
X97307388Y26003630D01*
X97415224Y26111466D01*
X97422639Y26117039D01*
X97422329Y26117416D01*
X97427961Y26122042D01*
X97434354Y26125564D01*
X97458696Y26154522D01*
X97463307Y26159549D01*
X97571606Y26267848D01*
X97586014Y26279237D01*
X97588886Y26281007D01*
X97588889Y26281010D01*
X97595098Y26284837D01*
X97612500Y26307722D01*
X97619523Y26315765D01*
X98465476Y27161718D01*
X98469071Y27164822D01*
X98473171Y27166826D01*
X98505331Y27201495D01*
X98507388Y27203630D01*
X98615220Y27311462D01*
X98622639Y27317038D01*
X98622330Y27317414D01*
X98627968Y27322045D01*
X98634355Y27325564D01*
X98658702Y27354528D01*
X98663313Y27359555D01*
X98771606Y27467848D01*
X98786014Y27479237D01*
X98788886Y27481007D01*
X98788889Y27481010D01*
X98795098Y27484837D01*
X98812500Y27507722D01*
X98819523Y27515765D01*
X99665476Y28361718D01*
X99669071Y28364822D01*
X99673171Y28366826D01*
X99705331Y28401495D01*
X99707388Y28403630D01*
X99815224Y28511466D01*
X99822639Y28517039D01*
X99822329Y28517416D01*
X99827961Y28522042D01*
X99834354Y28525564D01*
X99858696Y28554522D01*
X99863307Y28559549D01*
X99971606Y28667848D01*
X99986014Y28679237D01*
X99988886Y28681007D01*
X99988889Y28681010D01*
X99995098Y28684837D01*
X100012500Y28707722D01*
X100019523Y28715765D01*
X100865476Y29561718D01*
X100869071Y29564822D01*
X100873171Y29566826D01*
X100905331Y29601495D01*
X100907388Y29603630D01*
X101015220Y29711462D01*
X101022639Y29717038D01*
X101022330Y29717414D01*
X101027968Y29722045D01*
X101034355Y29725564D01*
X101058702Y29754528D01*
X101063313Y29759555D01*
X101171606Y29867848D01*
X101186014Y29879237D01*
X101188886Y29881007D01*
X101188889Y29881010D01*
X101195098Y29884837D01*
X101212500Y29907722D01*
X101219523Y29915765D01*
X101464052Y30160294D01*
X101513028Y30183132D01*
X101565226Y30169146D01*
X101596221Y30124880D01*
X101598086Y30093029D01*
X101589916Y30037022D01*
X101589500Y30034172D01*
X101589500Y28865828D01*
X101599930Y28794974D01*
X101652824Y28687243D01*
X101737762Y28602453D01*
X101845585Y28549747D01*
X101871775Y28545926D01*
X101913001Y28539912D01*
X101913006Y28539912D01*
X101915828Y28539500D01*
X102584172Y28539500D01*
X102655026Y28549930D01*
X102762757Y28602824D01*
X102847547Y28687762D01*
X102900253Y28795585D01*
X102908116Y28849483D01*
X102910088Y28863001D01*
X102910088Y28863006D01*
X102910500Y28865828D01*
X102910500Y28871626D01*
X104550001Y28871626D01*
X104550486Y28865455D01*
X104563862Y28780995D01*
X104567660Y28769308D01*
X104619536Y28667496D01*
X104626757Y28657557D01*
X104707557Y28576757D01*
X104717496Y28569536D01*
X104819311Y28517659D01*
X104830994Y28513862D01*
X104915453Y28500486D01*
X104921621Y28500000D01*
X105136070Y28500000D01*
X105146741Y28503884D01*
X105150000Y28509528D01*
X105150000Y28513931D01*
X105350000Y28513931D01*
X105353884Y28503260D01*
X105359528Y28500001D01*
X105578374Y28500001D01*
X105584545Y28500486D01*
X105669005Y28513862D01*
X105680692Y28517660D01*
X105782504Y28569536D01*
X105792443Y28576757D01*
X105873243Y28657557D01*
X105880464Y28667496D01*
X105932341Y28769311D01*
X105936138Y28780994D01*
X105949514Y28865453D01*
X105950000Y28871621D01*
X105950000Y29336070D01*
X105946116Y29346741D01*
X105940472Y29350000D01*
X105363930Y29350000D01*
X105353259Y29346116D01*
X105350000Y29340472D01*
X105350000Y28513931D01*
X105150000Y28513931D01*
X105150000Y29336070D01*
X105146116Y29346741D01*
X105140472Y29350000D01*
X104563931Y29350000D01*
X104553260Y29346116D01*
X104550001Y29340472D01*
X104550001Y28871626D01*
X102910500Y28871626D01*
X102910500Y29563930D01*
X104550000Y29563930D01*
X104553884Y29553259D01*
X104559528Y29550000D01*
X105136070Y29550000D01*
X105146741Y29553884D01*
X105150000Y29559528D01*
X105150000Y29563930D01*
X105350000Y29563930D01*
X105353884Y29553259D01*
X105359528Y29550000D01*
X105936069Y29550000D01*
X105946740Y29553884D01*
X105949999Y29559528D01*
X105949999Y30028374D01*
X105949514Y30034545D01*
X105936138Y30119005D01*
X105932340Y30130692D01*
X105880464Y30232504D01*
X105873243Y30242443D01*
X105792443Y30323243D01*
X105782504Y30330464D01*
X105680689Y30382341D01*
X105669006Y30386138D01*
X105584547Y30399514D01*
X105578379Y30400000D01*
X105363930Y30400000D01*
X105353259Y30396116D01*
X105350000Y30390472D01*
X105350000Y29563930D01*
X105150000Y29563930D01*
X105150000Y30386069D01*
X105146116Y30396740D01*
X105140472Y30399999D01*
X104921626Y30399999D01*
X104915455Y30399514D01*
X104830995Y30386138D01*
X104819308Y30382340D01*
X104717496Y30330464D01*
X104707557Y30323243D01*
X104626757Y30242443D01*
X104619536Y30232504D01*
X104567659Y30130689D01*
X104563862Y30119006D01*
X104550486Y30034547D01*
X104550000Y30028379D01*
X104550000Y29563930D01*
X102910500Y29563930D01*
X102910500Y30034172D01*
X102900070Y30105026D01*
X102847176Y30212757D01*
X102762238Y30297547D01*
X102654415Y30350253D01*
X102628225Y30354074D01*
X102586999Y30360088D01*
X102586994Y30360088D01*
X102584172Y30360500D01*
X101915828Y30360500D01*
X101912983Y30360081D01*
X101912980Y30360081D01*
X101894447Y30357353D01*
X101856980Y30351837D01*
X101804050Y30362727D01*
X101770503Y30405092D01*
X101772036Y30459110D01*
X101789614Y30485856D01*
X102065476Y30761718D01*
X102069071Y30764822D01*
X102073171Y30766826D01*
X102105331Y30801495D01*
X102107388Y30803630D01*
X102215220Y30911462D01*
X102222639Y30917038D01*
X102222330Y30917414D01*
X102227968Y30922045D01*
X102234355Y30925564D01*
X102258702Y30954528D01*
X102263313Y30959555D01*
X102371606Y31067848D01*
X102386014Y31079237D01*
X102388886Y31081007D01*
X102388889Y31081010D01*
X102395098Y31084837D01*
X102412500Y31107722D01*
X102419523Y31115765D01*
X103265476Y31961718D01*
X103269071Y31964822D01*
X103273171Y31966826D01*
X103305331Y32001495D01*
X103307388Y32003630D01*
X103415224Y32111466D01*
X103422639Y32117039D01*
X103422329Y32117416D01*
X103427961Y32122042D01*
X103434354Y32125564D01*
X103458696Y32154522D01*
X103463307Y32159549D01*
X103571606Y32267848D01*
X103586014Y32279237D01*
X103588886Y32281007D01*
X103588889Y32281010D01*
X103595098Y32284837D01*
X103612500Y32307722D01*
X103619523Y32315765D01*
X104315476Y33011718D01*
X104319071Y33014822D01*
X104323171Y33016826D01*
X104355331Y33051495D01*
X104357388Y33053630D01*
X104370654Y33066896D01*
X104372716Y33069902D01*
X104374010Y33071459D01*
X104376852Y33074695D01*
X104390540Y33089451D01*
X104395502Y33094800D01*
X104400177Y33106517D01*
X104408405Y33121926D01*
X104411412Y33126310D01*
X104411413Y33126311D01*
X104415540Y33132328D01*
X104417480Y33140500D01*
X104421638Y33158023D01*
X104425127Y33169054D01*
X104432846Y33188402D01*
X104432846Y33188403D01*
X104434914Y33193586D01*
X104435500Y33199563D01*
X104435500Y33207192D01*
X104437635Y33225433D01*
X104438413Y33228712D01*
X104440098Y33235812D01*
X104436222Y33264291D01*
X104435500Y33274945D01*
X104435500Y33798527D01*
X104435847Y33803256D01*
X104437329Y33807572D01*
X104435556Y33854800D01*
X104435500Y33857763D01*
X104435500Y33876553D01*
X104434834Y33880130D01*
X104434645Y33882173D01*
X104434367Y33886470D01*
X104433613Y33906564D01*
X104433613Y33906566D01*
X104433339Y33913854D01*
X104428360Y33925443D01*
X104423283Y33942156D01*
X104422309Y33947385D01*
X104422308Y33947389D01*
X104420972Y33954560D01*
X104407112Y33977046D01*
X104401780Y33987311D01*
X104397085Y33998238D01*
X104391355Y34011575D01*
X104387543Y34016216D01*
X104382152Y34021607D01*
X104370763Y34036015D01*
X104368993Y34038887D01*
X104368990Y34038890D01*
X104365163Y34045099D01*
X104342279Y34062501D01*
X104334235Y34069524D01*
X103800532Y34603227D01*
X103779836Y34647610D01*
X103778366Y34647377D01*
X103758502Y34772798D01*
X103758501Y34772800D01*
X103757529Y34778939D01*
X103708328Y34875502D01*
X103699880Y34892082D01*
X103699879Y34892083D01*
X103697057Y34897622D01*
X103623053Y34971626D01*
X104550001Y34971626D01*
X104550486Y34965455D01*
X104563862Y34880995D01*
X104567660Y34869308D01*
X104619536Y34767496D01*
X104626757Y34757557D01*
X104707557Y34676757D01*
X104717496Y34669536D01*
X104819311Y34617659D01*
X104830994Y34613862D01*
X104915453Y34600486D01*
X104921621Y34600000D01*
X105136070Y34600000D01*
X105146741Y34603884D01*
X105150000Y34609528D01*
X105150000Y34613931D01*
X105350000Y34613931D01*
X105353884Y34603260D01*
X105359528Y34600001D01*
X105578374Y34600001D01*
X105584545Y34600486D01*
X105669005Y34613862D01*
X105680692Y34617660D01*
X105782504Y34669536D01*
X105792443Y34676757D01*
X105873243Y34757557D01*
X105880464Y34767496D01*
X105932341Y34869311D01*
X105936138Y34880994D01*
X105949514Y34965453D01*
X105950000Y34971621D01*
X105950000Y35436070D01*
X105946116Y35446741D01*
X105940472Y35450000D01*
X105363930Y35450000D01*
X105353259Y35446116D01*
X105350000Y35440472D01*
X105350000Y34613931D01*
X105150000Y34613931D01*
X105150000Y35436070D01*
X105146116Y35446741D01*
X105140472Y35450000D01*
X104563931Y35450000D01*
X104553260Y35446116D01*
X104550001Y35440472D01*
X104550001Y34971626D01*
X103623053Y34971626D01*
X103602869Y34991810D01*
X103590409Y34998159D01*
X103489724Y35049460D01*
X103489725Y35049460D01*
X103484186Y35052282D01*
X103478047Y35053254D01*
X103478045Y35053255D01*
X103358767Y35072146D01*
X103352624Y35073119D01*
X103346481Y35072146D01*
X103227203Y35053255D01*
X103227201Y35053254D01*
X103221062Y35052282D01*
X103215523Y35049460D01*
X103215524Y35049460D01*
X103114840Y34998159D01*
X103102379Y34991810D01*
X103067408Y34956839D01*
X103014510Y34933756D01*
X102996321Y34933073D01*
X102992577Y34932933D01*
X102989615Y34932877D01*
X102989500Y34932877D01*
X102938720Y34951359D01*
X102911700Y34998159D01*
X102910500Y35011877D01*
X102910500Y35663930D01*
X104550000Y35663930D01*
X104553884Y35653259D01*
X104559528Y35650000D01*
X105136070Y35650000D01*
X105146741Y35653884D01*
X105150000Y35659528D01*
X105150000Y35663930D01*
X105350000Y35663930D01*
X105353884Y35653259D01*
X105359528Y35650000D01*
X105936069Y35650000D01*
X105946740Y35653884D01*
X105949999Y35659528D01*
X105949999Y36128374D01*
X105949514Y36134545D01*
X105936138Y36219005D01*
X105932340Y36230692D01*
X105880464Y36332504D01*
X105873243Y36342443D01*
X105792443Y36423243D01*
X105782504Y36430464D01*
X105680689Y36482341D01*
X105669006Y36486138D01*
X105584547Y36499514D01*
X105578379Y36500000D01*
X105363930Y36500000D01*
X105353259Y36496116D01*
X105350000Y36490472D01*
X105350000Y35663930D01*
X105150000Y35663930D01*
X105150000Y36486069D01*
X105146116Y36496740D01*
X105140472Y36499999D01*
X104921626Y36499999D01*
X104915455Y36499514D01*
X104830995Y36486138D01*
X104819308Y36482340D01*
X104717496Y36430464D01*
X104707557Y36423243D01*
X104626757Y36342443D01*
X104619536Y36332504D01*
X104567659Y36230689D01*
X104563862Y36219006D01*
X104550486Y36134547D01*
X104550000Y36128379D01*
X104550000Y35663930D01*
X102910500Y35663930D01*
X102910500Y36134172D01*
X102900070Y36205026D01*
X102847176Y36312757D01*
X102762238Y36397547D01*
X102654415Y36450253D01*
X102628225Y36454074D01*
X102586999Y36460088D01*
X102586994Y36460088D01*
X102584172Y36460500D01*
X101915828Y36460500D01*
X101844974Y36450070D01*
X101737243Y36397176D01*
X101652453Y36312238D01*
X101599747Y36204415D01*
X101597056Y36185965D01*
X101589916Y36137022D01*
X101589500Y36134172D01*
X101589500Y35869500D01*
X101571018Y35818720D01*
X101524218Y35791700D01*
X101510500Y35790500D01*
X101007340Y35790500D01*
X100956560Y35808982D01*
X100951479Y35813639D01*
X98088639Y38676479D01*
X98065801Y38725455D01*
X98065500Y38732340D01*
X98065500Y40011573D01*
X102684658Y40011573D01*
X102684766Y40009440D01*
X102684766Y40009431D01*
X102702267Y39663971D01*
X102702800Y39653450D01*
X102730542Y39480250D01*
X102758009Y39308768D01*
X102759512Y39299382D01*
X102760073Y39297330D01*
X102760074Y39297327D01*
X102837483Y39014372D01*
X102854133Y38953509D01*
X102917584Y38792429D01*
X102975484Y38645441D01*
X102985553Y38619878D01*
X103152237Y38302393D01*
X103153432Y38300614D01*
X103153433Y38300613D01*
X103348990Y38009593D01*
X103352234Y38004765D01*
X103353599Y38003144D01*
X103353605Y38003136D01*
X103550773Y37768993D01*
X103583205Y37730479D01*
X103671486Y37646116D01*
X103833787Y37491018D01*
X103842448Y37482741D01*
X104126930Y37264450D01*
X104128756Y37263340D01*
X104128760Y37263337D01*
X104261786Y37182456D01*
X104433323Y37078160D01*
X104603834Y36998287D01*
X104756107Y36926957D01*
X104756113Y36926955D01*
X104758044Y36926050D01*
X104760064Y36925358D01*
X104760065Y36925358D01*
X104908606Y36874501D01*
X105097292Y36809899D01*
X105335191Y36756286D01*
X105445006Y36731538D01*
X105445008Y36731538D01*
X105447101Y36731066D01*
X105803378Y36690474D01*
X105994260Y36689474D01*
X106159819Y36688607D01*
X106159822Y36688607D01*
X106161955Y36688596D01*
X106164073Y36688815D01*
X106164076Y36688815D01*
X106302146Y36703084D01*
X106518637Y36725456D01*
X106544806Y36731066D01*
X106724085Y36769500D01*
X106869252Y36800621D01*
X106871279Y36801291D01*
X106871285Y36801293D01*
X107034008Y36855109D01*
X107209699Y36913213D01*
X107211631Y36914094D01*
X107211640Y36914097D01*
X107534053Y37061029D01*
X107534059Y37061032D01*
X107535994Y37061914D01*
X107537827Y37063003D01*
X107537832Y37063005D01*
X107831088Y37237129D01*
X107844321Y37244986D01*
X108131074Y37460285D01*
X108155071Y37482741D01*
X108391335Y37703834D01*
X108391337Y37703836D01*
X108392896Y37705295D01*
X108572859Y37914521D01*
X108625333Y37975527D01*
X108625335Y37975530D01*
X108626727Y37977148D01*
X108635472Y37989871D01*
X108794259Y38220908D01*
X108829830Y38272664D01*
X108833673Y38279800D01*
X108998819Y38586512D01*
X108998820Y38586514D01*
X108999829Y38588388D01*
X109134736Y38920624D01*
X109141355Y38943857D01*
X109232389Y39263437D01*
X109232973Y39265487D01*
X109237921Y39294433D01*
X109293030Y39616835D01*
X109293030Y39616838D01*
X109293390Y39618942D01*
X109294862Y39642999D01*
X109315212Y39975724D01*
X109315212Y39975730D01*
X109315281Y39976855D01*
X109315362Y40000000D01*
X109315127Y40004349D01*
X109296086Y40355915D01*
X109295970Y40358057D01*
X109295009Y40363930D01*
X109249723Y40640472D01*
X109238022Y40711925D01*
X109237403Y40714157D01*
X109142768Y41055401D01*
X109142766Y41055406D01*
X109142195Y41057466D01*
X109017640Y41370458D01*
X109010403Y41388645D01*
X109010402Y41388646D01*
X109009611Y41390635D01*
X108947311Y41508300D01*
X108842815Y41705659D01*
X108842814Y41705661D01*
X108841820Y41707538D01*
X108640785Y42004465D01*
X108639397Y42006102D01*
X108410240Y42276315D01*
X108410235Y42276320D01*
X108408858Y42277944D01*
X108148752Y42524775D01*
X107863510Y42742072D01*
X107854892Y42747271D01*
X107558308Y42926181D01*
X107558309Y42926181D01*
X107556468Y42927291D01*
X107554523Y42928194D01*
X107554517Y42928197D01*
X107233156Y43077368D01*
X107233154Y43077369D01*
X107231219Y43078267D01*
X107229207Y43078948D01*
X107229202Y43078950D01*
X106912708Y43186077D01*
X106891567Y43193233D01*
X106889486Y43193694D01*
X106889480Y43193696D01*
X106743095Y43226148D01*
X106541485Y43270844D01*
X106539358Y43271079D01*
X106539351Y43271080D01*
X106333438Y43293813D01*
X106185068Y43310193D01*
X106182934Y43310197D01*
X106182929Y43310197D01*
X106006343Y43310505D01*
X105826487Y43310818D01*
X105469936Y43272714D01*
X105467853Y43272260D01*
X105467848Y43272259D01*
X105250926Y43224962D01*
X105119585Y43196325D01*
X105117565Y43195649D01*
X105117561Y43195648D01*
X105047946Y43172355D01*
X104779534Y43082546D01*
X104453759Y42932706D01*
X104451937Y42931616D01*
X104451934Y42931614D01*
X104160120Y42756967D01*
X104146073Y42748560D01*
X104144374Y42747275D01*
X104144368Y42747271D01*
X103870354Y42540035D01*
X103860074Y42532260D01*
X103747226Y42425917D01*
X103606389Y42293199D01*
X103599108Y42286338D01*
X103597721Y42284714D01*
X103597720Y42284713D01*
X103584824Y42269614D01*
X103366228Y42013671D01*
X103164158Y41717447D01*
X103163150Y41715559D01*
X103010943Y41430500D01*
X102995262Y41401133D01*
X102994465Y41399151D01*
X102994462Y41399144D01*
X102873266Y41097659D01*
X102861515Y41068427D01*
X102860937Y41066372D01*
X102860935Y41066365D01*
X102814085Y40899690D01*
X102764483Y40723224D01*
X102751684Y40646741D01*
X102707248Y40381200D01*
X102705300Y40369560D01*
X102705177Y40367435D01*
X102705177Y40367431D01*
X102700221Y40281485D01*
X102684658Y40011573D01*
X98065500Y40011573D01*
X98065500Y40766633D01*
X98065608Y40770768D01*
X98065661Y40771788D01*
X98067846Y40813462D01*
X98058535Y40837718D01*
X98055019Y40849587D01*
X98049616Y40875006D01*
X98044294Y40882330D01*
X98034449Y40900463D01*
X98034181Y40901162D01*
X98034180Y40901163D01*
X98031206Y40908912D01*
X98012842Y40927276D01*
X98004795Y40936696D01*
X97989521Y40957719D01*
X97981671Y40962251D01*
X97965314Y40974804D01*
X97175988Y41764130D01*
X97173140Y41767130D01*
X97150078Y41792743D01*
X97150079Y41792743D01*
X97144521Y41798915D01*
X97136935Y41802292D01*
X97136933Y41802294D01*
X97120794Y41809479D01*
X97109900Y41815394D01*
X97095079Y41825019D01*
X97095076Y41825020D01*
X97088113Y41829542D01*
X97079663Y41830881D01*
X97079168Y41830959D01*
X97059397Y41836815D01*
X97051120Y41840500D01*
X97025143Y41840500D01*
X97012785Y41841473D01*
X96995336Y41844237D01*
X96995334Y41844237D01*
X96987132Y41845536D01*
X96978513Y41843226D01*
X96978384Y41843192D01*
X96957937Y41840500D01*
X95742681Y41840500D01*
X95691901Y41858982D01*
X95664881Y41905782D01*
X95672292Y41955365D01*
X95727082Y42062895D01*
X95727084Y42062902D01*
X95729905Y42068438D01*
X95730901Y42074722D01*
X95749769Y42193857D01*
X95750742Y42200000D01*
X95747117Y42222889D01*
X95730878Y42325421D01*
X95730877Y42325423D01*
X95729905Y42331562D01*
X95669433Y42450245D01*
X95575245Y42544433D01*
X95469545Y42598290D01*
X95432691Y42637811D01*
X95427199Y42679810D01*
X95434842Y42733512D01*
X95434843Y42733519D01*
X95435205Y42736066D01*
X95435268Y42742072D01*
X95435324Y42747412D01*
X95435324Y42747414D01*
X95435351Y42750000D01*
X95431895Y42778562D01*
X95416717Y42903984D01*
X95416716Y42903987D01*
X95416145Y42908708D01*
X95359636Y43058254D01*
X95300522Y43144266D01*
X95271787Y43186077D01*
X95271785Y43186079D01*
X95269087Y43190005D01*
X95149725Y43296352D01*
X95008440Y43371159D01*
X95003825Y43372318D01*
X95003823Y43372319D01*
X94930915Y43390632D01*
X94853391Y43410105D01*
X94848631Y43410130D01*
X94848630Y43410130D01*
X94776061Y43410510D01*
X94693526Y43410942D01*
X94593958Y43387038D01*
X94542712Y43374735D01*
X94542710Y43374734D01*
X94538077Y43373622D01*
X94533845Y43371438D01*
X94533843Y43371437D01*
X94528986Y43368930D01*
X94396017Y43300299D01*
X94387861Y43293184D01*
X94309657Y43224962D01*
X94275548Y43195207D01*
X94224035Y43121911D01*
X94199324Y43086751D01*
X94155004Y43055832D01*
X94101178Y43060636D01*
X94069584Y43087430D01*
X94001787Y43186077D01*
X94001785Y43186079D01*
X93999087Y43190005D01*
X93879725Y43296352D01*
X93738440Y43371159D01*
X93733825Y43372318D01*
X93733823Y43372319D01*
X93660915Y43390632D01*
X93583391Y43410105D01*
X93578631Y43410130D01*
X93578630Y43410130D01*
X93506061Y43410510D01*
X93423526Y43410942D01*
X93323958Y43387038D01*
X93272712Y43374735D01*
X93272710Y43374734D01*
X93268077Y43373622D01*
X93263845Y43371438D01*
X93263843Y43371437D01*
X93258986Y43368930D01*
X93126017Y43300299D01*
X93117861Y43293184D01*
X93039657Y43224962D01*
X93005548Y43195207D01*
X92989488Y43172355D01*
X92953558Y43121232D01*
X92909238Y43090313D01*
X92855413Y43095117D01*
X92823818Y43121911D01*
X92761634Y43212390D01*
X92755374Y43219490D01*
X92635993Y43325855D01*
X92628221Y43331257D01*
X92486914Y43406075D01*
X92478079Y43409467D01*
X92343509Y43443269D01*
X92332215Y43442102D01*
X92330408Y43440237D01*
X92330000Y43438326D01*
X92330000Y42729000D01*
X92311518Y42678220D01*
X92264718Y42651200D01*
X92251000Y42650000D01*
X91550683Y42650000D01*
X91540012Y42646116D01*
X91537636Y42642001D01*
X91542967Y42593713D01*
X91545127Y42584506D01*
X91600076Y42434350D01*
X91604373Y42425917D01*
X91693556Y42293199D01*
X91699735Y42286040D01*
X91818002Y42178425D01*
X91825712Y42172947D01*
X91966232Y42096650D01*
X91975029Y42093167D01*
X92134301Y42051383D01*
X92133873Y42049750D01*
X92175860Y42027622D01*
X92196287Y41977592D01*
X92179777Y41926137D01*
X92176054Y41921684D01*
X92173999Y41919402D01*
X92167281Y41914521D01*
X92162749Y41906671D01*
X92150196Y41890314D01*
X92123521Y41863639D01*
X92074545Y41840801D01*
X92067660Y41840500D01*
X90208366Y41840500D01*
X90204231Y41840608D01*
X90169825Y41842412D01*
X90169823Y41842412D01*
X90161537Y41842846D01*
X90153790Y41839872D01*
X90153789Y41839872D01*
X90137287Y41833537D01*
X90125399Y41830016D01*
X90108114Y41826342D01*
X90099994Y41824616D01*
X90092663Y41819290D01*
X90074545Y41809452D01*
X90066088Y41806206D01*
X90047724Y41787842D01*
X90038304Y41779795D01*
X90017281Y41764521D01*
X90012749Y41756671D01*
X90000196Y41740314D01*
X89335870Y41075988D01*
X89332870Y41073140D01*
X89301085Y41044521D01*
X89297708Y41036935D01*
X89297706Y41036933D01*
X89290521Y41020794D01*
X89284606Y41009900D01*
X89274981Y40995079D01*
X89274980Y40995076D01*
X89270458Y40988113D01*
X89269159Y40979912D01*
X89266184Y40972162D01*
X89262466Y40973589D01*
X89244150Y40940669D01*
X89224485Y40928175D01*
X89160357Y40899690D01*
X89144728Y40892748D01*
X89066955Y40814840D01*
X89064007Y40808171D01*
X89064006Y40808170D01*
X89026452Y40723224D01*
X89022444Y40714157D01*
X89019500Y40688906D01*
X89019500Y40331094D01*
X89022565Y40305332D01*
X89024971Y40299916D01*
X89024971Y40299915D01*
X89047145Y40249994D01*
X89067252Y40204728D01*
X89072415Y40199574D01*
X89139691Y40132415D01*
X89145160Y40126955D01*
X89151829Y40124007D01*
X89151830Y40124006D01*
X89220995Y40093429D01*
X89245843Y40082444D01*
X89271094Y40079500D01*
X89728906Y40079500D01*
X89754668Y40082565D01*
X89760700Y40085244D01*
X89848604Y40124290D01*
X89848605Y40124290D01*
X89855272Y40127252D01*
X89869771Y40141776D01*
X89917800Y40189888D01*
X89966757Y40212768D01*
X90018967Y40198827D01*
X90045309Y40167461D01*
X90054272Y40148239D01*
X90062081Y40137087D01*
X90137087Y40062081D01*
X90148240Y40054271D01*
X90158843Y40049327D01*
X90197054Y40011115D01*
X90201763Y39957281D01*
X90171029Y39913796D01*
X90166847Y39911939D01*
X90087759Y39832713D01*
X90084811Y39826046D01*
X90080688Y39820024D01*
X90077626Y39822120D01*
X90050408Y39793662D01*
X90015436Y39785500D01*
X89975220Y39785500D01*
X89924440Y39803982D01*
X89919407Y39808590D01*
X89860001Y39867893D01*
X89854840Y39873045D01*
X89848171Y39875993D01*
X89848170Y39875994D01*
X89759593Y39915153D01*
X89759592Y39915153D01*
X89754157Y39917556D01*
X89728906Y39920500D01*
X89271094Y39920500D01*
X89245332Y39917435D01*
X89239916Y39915029D01*
X89239915Y39915029D01*
X89151396Y39875710D01*
X89144728Y39872748D01*
X89066955Y39794840D01*
X89064007Y39788171D01*
X89064006Y39788170D01*
X89036898Y39726852D01*
X89022444Y39694157D01*
X89019500Y39668906D01*
X89019500Y39311094D01*
X89022565Y39285332D01*
X89024971Y39279916D01*
X89024971Y39279915D01*
X89057427Y39206847D01*
X89067252Y39184728D01*
X89103426Y39148617D01*
X89139691Y39112415D01*
X89145160Y39106955D01*
X89151829Y39104007D01*
X89151830Y39104006D01*
X89240127Y39064971D01*
X89245843Y39062444D01*
X89271094Y39059500D01*
X89728906Y39059500D01*
X89754668Y39062565D01*
X89793389Y39079764D01*
X89848604Y39104290D01*
X89848605Y39104290D01*
X89855272Y39107252D01*
X89933045Y39185160D01*
X89933864Y39184342D01*
X89971923Y39211590D01*
X89993168Y39214500D01*
X90047712Y39214500D01*
X90098492Y39196018D01*
X90103525Y39191410D01*
X90167287Y39127759D01*
X90165345Y39125814D01*
X90189927Y39091461D01*
X90185770Y39037582D01*
X90169694Y39014372D01*
X90155567Y39000245D01*
X90152745Y38994706D01*
X90152744Y38994705D01*
X90137354Y38964500D01*
X90095095Y38881562D01*
X90094123Y38875423D01*
X90094122Y38875421D01*
X90081822Y38797756D01*
X90074258Y38750000D01*
X90075231Y38743857D01*
X90088854Y38657845D01*
X90095095Y38618438D01*
X90115991Y38577427D01*
X90149472Y38511718D01*
X90155567Y38499755D01*
X90249755Y38405567D01*
X90255294Y38402745D01*
X90255295Y38402744D01*
X90286279Y38386957D01*
X90368438Y38345095D01*
X90374577Y38344123D01*
X90374579Y38344122D01*
X90399572Y38340164D01*
X90422892Y38336471D01*
X90470155Y38310273D01*
X90489521Y38259823D01*
X90471928Y38208728D01*
X90447365Y38189896D01*
X90447404Y38189839D01*
X90446303Y38189082D01*
X90442606Y38186248D01*
X90441398Y38185711D01*
X90441397Y38185710D01*
X90434728Y38182748D01*
X90356955Y38104840D01*
X90354007Y38098171D01*
X90354006Y38098170D01*
X90327210Y38037557D01*
X90289774Y37998586D01*
X90254956Y37990500D01*
X88008375Y37990500D01*
X88004240Y37990608D01*
X87969827Y37992412D01*
X87969825Y37992412D01*
X87961538Y37992846D01*
X87953788Y37989871D01*
X87953787Y37989871D01*
X87937288Y37983538D01*
X87925403Y37980017D01*
X87920215Y37978914D01*
X87899994Y37974616D01*
X87893276Y37969735D01*
X87893274Y37969734D01*
X87892664Y37969291D01*
X87874544Y37959453D01*
X87873843Y37959184D01*
X87873842Y37959183D01*
X87866088Y37956207D01*
X87847720Y37937839D01*
X87838294Y37929788D01*
X87817281Y37914521D01*
X87813130Y37907331D01*
X87812751Y37906675D01*
X87800196Y37890315D01*
X86754582Y36844700D01*
X85723521Y35813639D01*
X85674545Y35790801D01*
X85667660Y35790500D01*
X85489500Y35790500D01*
X85438720Y35808982D01*
X85411700Y35855782D01*
X85410500Y35869500D01*
X85410500Y36134172D01*
X85400070Y36205026D01*
X85347176Y36312757D01*
X85262238Y36397547D01*
X85154415Y36450253D01*
X85128225Y36454074D01*
X85086999Y36460088D01*
X85086994Y36460088D01*
X85084172Y36460500D01*
X84415828Y36460500D01*
X84344974Y36450070D01*
X84237243Y36397176D01*
X84152453Y36312238D01*
X84099747Y36204415D01*
X84097056Y36185965D01*
X84089916Y36137022D01*
X84089500Y36134172D01*
X84089500Y34965828D01*
X82449544Y34965828D01*
X82450000Y34971621D01*
X82450000Y35436070D01*
X82446116Y35446741D01*
X82440472Y35450000D01*
X81863930Y35450000D01*
X81853259Y35446116D01*
X81850000Y35440472D01*
X81850000Y34613931D01*
X81650000Y34613931D01*
X81650000Y35436070D01*
X81646116Y35446741D01*
X81640472Y35450000D01*
X81063931Y35450000D01*
X81053260Y35446116D01*
X81050001Y35440472D01*
X81050001Y34971626D01*
X76160500Y34971626D01*
X76160500Y35663930D01*
X81050000Y35663930D01*
X81053884Y35653259D01*
X81059528Y35650000D01*
X81636070Y35650000D01*
X81646741Y35653884D01*
X81650000Y35659528D01*
X81650000Y35663930D01*
X81850000Y35663930D01*
X81853884Y35653259D01*
X81859528Y35650000D01*
X82436069Y35650000D01*
X82446740Y35653884D01*
X82449999Y35659528D01*
X82449999Y36128374D01*
X82449514Y36134545D01*
X82436138Y36219005D01*
X82432340Y36230692D01*
X82380464Y36332504D01*
X82373243Y36342443D01*
X82292443Y36423243D01*
X82282504Y36430464D01*
X82180689Y36482341D01*
X82169006Y36486138D01*
X82084547Y36499514D01*
X82078379Y36500000D01*
X81863930Y36500000D01*
X81853259Y36496116D01*
X81850000Y36490472D01*
X81850000Y35663930D01*
X81650000Y35663930D01*
X81650000Y36486069D01*
X81646116Y36496740D01*
X81640472Y36499999D01*
X81421626Y36499999D01*
X81415455Y36499514D01*
X81330995Y36486138D01*
X81319308Y36482340D01*
X81217496Y36430464D01*
X81207557Y36423243D01*
X81126757Y36342443D01*
X81119536Y36332504D01*
X81067659Y36230689D01*
X81063862Y36219006D01*
X81050486Y36134547D01*
X81050000Y36128379D01*
X81050000Y35663930D01*
X76160500Y35663930D01*
X76160500Y39972583D01*
X76162540Y39990421D01*
X76163617Y39995069D01*
X76164627Y39999425D01*
X76164628Y40000000D01*
X76163531Y40004807D01*
X76163307Y40007288D01*
X76163138Y40008797D01*
X76163170Y40008801D01*
X76162919Y40011573D01*
X77684658Y40011573D01*
X77684766Y40009440D01*
X77684766Y40009431D01*
X77702267Y39663971D01*
X77702800Y39653450D01*
X77730542Y39480250D01*
X77758009Y39308768D01*
X77759512Y39299382D01*
X77760073Y39297330D01*
X77760074Y39297327D01*
X77837483Y39014372D01*
X77854133Y38953509D01*
X77917584Y38792429D01*
X77975484Y38645441D01*
X77985553Y38619878D01*
X78152237Y38302393D01*
X78153432Y38300614D01*
X78153433Y38300613D01*
X78348990Y38009593D01*
X78352234Y38004765D01*
X78353599Y38003144D01*
X78353605Y38003136D01*
X78550773Y37768993D01*
X78583205Y37730479D01*
X78671486Y37646116D01*
X78833787Y37491018D01*
X78842448Y37482741D01*
X79126930Y37264450D01*
X79128756Y37263340D01*
X79128760Y37263337D01*
X79261786Y37182456D01*
X79433323Y37078160D01*
X79603834Y36998287D01*
X79756107Y36926957D01*
X79756113Y36926955D01*
X79758044Y36926050D01*
X79760064Y36925358D01*
X79760065Y36925358D01*
X79908606Y36874501D01*
X80097292Y36809899D01*
X80335191Y36756286D01*
X80445006Y36731538D01*
X80445008Y36731538D01*
X80447101Y36731066D01*
X80803378Y36690474D01*
X80994260Y36689474D01*
X81159819Y36688607D01*
X81159822Y36688607D01*
X81161955Y36688596D01*
X81164073Y36688815D01*
X81164076Y36688815D01*
X81302146Y36703084D01*
X81518637Y36725456D01*
X81544806Y36731066D01*
X81724085Y36769500D01*
X81869252Y36800621D01*
X81871279Y36801291D01*
X81871285Y36801293D01*
X82034008Y36855109D01*
X82209699Y36913213D01*
X82211631Y36914094D01*
X82211640Y36914097D01*
X82534053Y37061029D01*
X82534059Y37061032D01*
X82535994Y37061914D01*
X82537827Y37063003D01*
X82537832Y37063005D01*
X82831088Y37237129D01*
X82844321Y37244986D01*
X83131074Y37460285D01*
X83155071Y37482741D01*
X83391335Y37703834D01*
X83391337Y37703836D01*
X83392896Y37705295D01*
X83572859Y37914521D01*
X83625333Y37975527D01*
X83625335Y37975530D01*
X83626727Y37977148D01*
X83635472Y37989871D01*
X83794259Y38220908D01*
X83829830Y38272664D01*
X83833673Y38279800D01*
X83998819Y38586512D01*
X83998820Y38586514D01*
X83999829Y38588388D01*
X84134736Y38920624D01*
X84141355Y38943857D01*
X84232389Y39263437D01*
X84232973Y39265487D01*
X84237921Y39294433D01*
X84293030Y39616835D01*
X84293030Y39616838D01*
X84293390Y39618942D01*
X84294862Y39642999D01*
X84315212Y39975724D01*
X84315212Y39975730D01*
X84315281Y39976855D01*
X84315362Y40000000D01*
X84315127Y40004349D01*
X84296086Y40355915D01*
X84295970Y40358057D01*
X84295009Y40363930D01*
X84249723Y40640472D01*
X84238022Y40711925D01*
X84237403Y40714157D01*
X84142768Y41055401D01*
X84142766Y41055406D01*
X84142195Y41057466D01*
X84017640Y41370458D01*
X84010403Y41388645D01*
X84010402Y41388646D01*
X84009611Y41390635D01*
X83947311Y41508300D01*
X83842815Y41705659D01*
X83842814Y41705661D01*
X83841820Y41707538D01*
X83640785Y42004465D01*
X83639397Y42006102D01*
X83410240Y42276315D01*
X83410235Y42276320D01*
X83408858Y42277944D01*
X83148752Y42524775D01*
X82863510Y42742072D01*
X82854892Y42747271D01*
X82661704Y42863809D01*
X91538909Y42863809D01*
X91541366Y42852725D01*
X91544917Y42850000D01*
X92116070Y42850000D01*
X92126741Y42853884D01*
X92130000Y42859528D01*
X92130000Y43431988D01*
X92126116Y43442659D01*
X92123675Y43444069D01*
X92122096Y43444020D01*
X91988843Y43412029D01*
X91979974Y43408731D01*
X91837886Y43335394D01*
X91830063Y43330077D01*
X91709567Y43224962D01*
X91703238Y43217932D01*
X91611294Y43087110D01*
X91606828Y43078781D01*
X91548742Y42929799D01*
X91546390Y42920636D01*
X91538909Y42863809D01*
X82661704Y42863809D01*
X82558308Y42926181D01*
X82558309Y42926181D01*
X82556468Y42927291D01*
X82554523Y42928194D01*
X82554517Y42928197D01*
X82233156Y43077368D01*
X82233154Y43077369D01*
X82231219Y43078267D01*
X82229207Y43078948D01*
X82229202Y43078950D01*
X81912708Y43186077D01*
X81891567Y43193233D01*
X81889486Y43193694D01*
X81889480Y43193696D01*
X81743095Y43226148D01*
X81541485Y43270844D01*
X81539358Y43271079D01*
X81539351Y43271080D01*
X81333438Y43293813D01*
X81185068Y43310193D01*
X81182934Y43310197D01*
X81182929Y43310197D01*
X81006343Y43310505D01*
X80826487Y43310818D01*
X80469936Y43272714D01*
X80467853Y43272260D01*
X80467848Y43272259D01*
X80250926Y43224962D01*
X80119585Y43196325D01*
X80117565Y43195649D01*
X80117561Y43195648D01*
X80047946Y43172355D01*
X79779534Y43082546D01*
X79453759Y42932706D01*
X79451937Y42931616D01*
X79451934Y42931614D01*
X79160120Y42756967D01*
X79146073Y42748560D01*
X79144374Y42747275D01*
X79144368Y42747271D01*
X78870354Y42540035D01*
X78860074Y42532260D01*
X78747226Y42425917D01*
X78606389Y42293199D01*
X78599108Y42286338D01*
X78597721Y42284714D01*
X78597720Y42284713D01*
X78584824Y42269614D01*
X78366228Y42013671D01*
X78164158Y41717447D01*
X78163150Y41715559D01*
X78010943Y41430500D01*
X77995262Y41401133D01*
X77994465Y41399151D01*
X77994462Y41399144D01*
X77873266Y41097659D01*
X77861515Y41068427D01*
X77860937Y41066372D01*
X77860935Y41066365D01*
X77814085Y40899690D01*
X77764483Y40723224D01*
X77751684Y40646741D01*
X77707248Y40381200D01*
X77705300Y40369560D01*
X77705177Y40367435D01*
X77705177Y40367431D01*
X77700221Y40281485D01*
X77684658Y40011573D01*
X76162919Y40011573D01*
X76161627Y40025824D01*
X76162011Y40034606D01*
X76174102Y40311538D01*
X76178766Y40418347D01*
X76179367Y40425212D01*
X76233573Y40836952D01*
X76234770Y40843740D01*
X76245192Y40890748D01*
X76291038Y41097547D01*
X76324654Y41249180D01*
X76326437Y41255837D01*
X76451321Y41651916D01*
X76453678Y41658392D01*
X76612605Y42042079D01*
X76615518Y42048325D01*
X76620962Y42058782D01*
X76807276Y42416688D01*
X76810722Y42422657D01*
X77033863Y42772917D01*
X77037816Y42778562D01*
X77290626Y43108031D01*
X77295056Y43113311D01*
X77575627Y43419500D01*
X77580500Y43424373D01*
X77886689Y43704944D01*
X77891969Y43709374D01*
X78221438Y43962184D01*
X78227083Y43966137D01*
X78577343Y44189278D01*
X78583312Y44192724D01*
X78951675Y44384482D01*
X78957921Y44387395D01*
X79341608Y44546322D01*
X79348084Y44548679D01*
X79744163Y44673563D01*
X79750820Y44675346D01*
X80156260Y44765230D01*
X80163048Y44766427D01*
X80574788Y44820633D01*
X80581653Y44821234D01*
X80757858Y44828928D01*
X80973970Y44838364D01*
X80984745Y44837377D01*
X80991042Y44837366D01*
X80999713Y44835372D01*
X81009347Y44837552D01*
X81026782Y44839500D01*
X105972794Y44839500D01*
X105990498Y44837491D01*
G37*
%TD.AperFunction*%
%TA.AperFunction,Conductor*%
G36*
X96218440Y35541018D02*
G01*
X96223521Y35536361D01*
X100557502Y31202379D01*
X100580340Y31153403D01*
X100579669Y31134165D01*
X100574258Y31100000D01*
X100575231Y31093857D01*
X100590832Y30995357D01*
X100595095Y30968438D01*
X100655567Y30849755D01*
X100749755Y30755567D01*
X100755294Y30752745D01*
X100755295Y30752744D01*
X100800832Y30729542D01*
X100868438Y30695095D01*
X100874577Y30694123D01*
X100874579Y30694122D01*
X100994051Y30675200D01*
X101041315Y30649002D01*
X101060681Y30598552D01*
X101043088Y30547457D01*
X101037554Y30541312D01*
X100905861Y30409619D01*
X100856885Y30386781D01*
X100804687Y30400767D01*
X100794139Y30409619D01*
X100200532Y31003226D01*
X100179835Y31047610D01*
X100178366Y31047377D01*
X100158502Y31172798D01*
X100158501Y31172800D01*
X100157529Y31178939D01*
X100118192Y31256143D01*
X100099880Y31292082D01*
X100099879Y31292083D01*
X100097057Y31297622D01*
X100002869Y31391810D01*
X99884186Y31452282D01*
X99878047Y31453254D01*
X99878045Y31453255D01*
X99758767Y31472146D01*
X99752624Y31473119D01*
X99746481Y31472146D01*
X99627203Y31453255D01*
X99627201Y31453254D01*
X99621062Y31452282D01*
X99502379Y31391810D01*
X99408191Y31297622D01*
X99405369Y31292083D01*
X99405368Y31292082D01*
X99387056Y31256143D01*
X99347719Y31178939D01*
X99346747Y31172800D01*
X99346746Y31172798D01*
X99332815Y31084837D01*
X99326882Y31047377D01*
X99329888Y31028398D01*
X99345291Y30931147D01*
X99347719Y30915815D01*
X99350540Y30910279D01*
X99350542Y30910272D01*
X99387938Y30836879D01*
X99394524Y30783243D01*
X99365092Y30737922D01*
X99313415Y30722122D01*
X99292787Y30726506D01*
X99288113Y30729542D01*
X99279913Y30730841D01*
X99279910Y30730842D01*
X99279168Y30730959D01*
X99259397Y30736815D01*
X99251120Y30740500D01*
X99225143Y30740500D01*
X99212785Y30741473D01*
X99195336Y30744237D01*
X99195334Y30744237D01*
X99187132Y30745536D01*
X99178513Y30743226D01*
X99178384Y30743192D01*
X99157937Y30740500D01*
X97384211Y30740500D01*
X97333431Y30758982D01*
X97328350Y30763639D01*
X95377858Y32714130D01*
X95375010Y32717130D01*
X95351948Y32742743D01*
X95351949Y32742743D01*
X95346391Y32748915D01*
X95338805Y32752292D01*
X95338803Y32752294D01*
X95322664Y32759479D01*
X95311770Y32765394D01*
X95296949Y32775019D01*
X95296946Y32775020D01*
X95289983Y32779542D01*
X95281533Y32780881D01*
X95281038Y32780959D01*
X95261267Y32786815D01*
X95252990Y32790500D01*
X95227013Y32790500D01*
X95214655Y32791473D01*
X95197206Y32794237D01*
X95197204Y32794237D01*
X95189002Y32795536D01*
X95180383Y32793226D01*
X95180254Y32793192D01*
X95159807Y32790500D01*
X94432340Y32790500D01*
X94381560Y32808982D01*
X94376479Y32813639D01*
X94333350Y32856768D01*
X94310512Y32905744D01*
X94324498Y32957942D01*
X94373800Y32990111D01*
X94424501Y33000195D01*
X94432133Y33001713D01*
X94501762Y33048238D01*
X94548287Y33117867D01*
X94549804Y33125494D01*
X94549805Y33125496D01*
X94559742Y33175455D01*
X94559742Y33175457D01*
X94560500Y33179267D01*
X94560499Y33860500D01*
X94578981Y33911280D01*
X94625781Y33938300D01*
X94639499Y33939500D01*
X95275892Y33939501D01*
X95320732Y33939501D01*
X95382133Y33951713D01*
X95451762Y33998238D01*
X95498287Y34067867D01*
X95499804Y34075494D01*
X95499805Y34075496D01*
X95509742Y34125456D01*
X95509743Y34125463D01*
X95510500Y34129267D01*
X95510499Y34270732D01*
X95498287Y34332133D01*
X95493963Y34338604D01*
X95493962Y34338607D01*
X95482267Y34356109D01*
X95469421Y34408599D01*
X95482267Y34443891D01*
X95493963Y34461395D01*
X95493964Y34461397D01*
X95498287Y34467867D01*
X95510500Y34529267D01*
X95510500Y34600000D01*
X95510499Y34666855D01*
X95510499Y34670732D01*
X95498287Y34732133D01*
X95493963Y34738604D01*
X95493962Y34738607D01*
X95482267Y34756109D01*
X95469421Y34808599D01*
X95482267Y34843891D01*
X95493963Y34861395D01*
X95493964Y34861397D01*
X95498287Y34867867D01*
X95510500Y34929267D01*
X95510499Y35070732D01*
X95498287Y35132133D01*
X95493963Y35138604D01*
X95493962Y35138607D01*
X95482267Y35156109D01*
X95469421Y35208599D01*
X95482267Y35243891D01*
X95493963Y35261395D01*
X95493964Y35261397D01*
X95498287Y35267867D01*
X95509385Y35323659D01*
X95509742Y35325456D01*
X95510500Y35329267D01*
X95510499Y35470732D01*
X95510018Y35473150D01*
X95523333Y35525104D01*
X95567259Y35556580D01*
X95588537Y35559500D01*
X96167660Y35559500D01*
X96218440Y35541018D01*
G37*
%TD.AperFunction*%
%TA.AperFunction,Conductor*%
G36*
X96032631Y39217414D02*
G01*
X96064645Y39190597D01*
X96067252Y39184728D01*
X96103426Y39148617D01*
X96139691Y39112415D01*
X96145160Y39106955D01*
X96167443Y39097104D01*
X96206414Y39059668D01*
X96214500Y39024850D01*
X96214500Y38801474D01*
X96214153Y38796745D01*
X96212671Y38792429D01*
X96214033Y38756143D01*
X96214444Y38745202D01*
X96214500Y38742238D01*
X96214500Y38723448D01*
X96215166Y38719871D01*
X96215355Y38717828D01*
X96215633Y38713531D01*
X96216661Y38686147D01*
X96221640Y38674558D01*
X96226717Y38657845D01*
X96227691Y38652616D01*
X96227692Y38652612D01*
X96229028Y38645441D01*
X96232855Y38639233D01*
X96242888Y38622955D01*
X96248220Y38612690D01*
X96258645Y38588426D01*
X96262457Y38583785D01*
X96267848Y38578394D01*
X96279237Y38563986D01*
X96281007Y38561114D01*
X96281010Y38561111D01*
X96284837Y38554902D01*
X96294023Y38547917D01*
X96307722Y38537500D01*
X96315765Y38530477D01*
X100470881Y34375361D01*
X100493719Y34326385D01*
X100479733Y34274187D01*
X100435467Y34243192D01*
X100415020Y34240500D01*
X99136080Y34240500D01*
X99085300Y34258982D01*
X99080219Y34263639D01*
X96740688Y36603170D01*
X96737840Y36606170D01*
X96714778Y36631783D01*
X96714779Y36631783D01*
X96709221Y36637955D01*
X96701635Y36641332D01*
X96701633Y36641334D01*
X96685494Y36648519D01*
X96674600Y36654434D01*
X96659779Y36664059D01*
X96659776Y36664060D01*
X96652813Y36668582D01*
X96644363Y36669921D01*
X96643868Y36669999D01*
X96624097Y36675855D01*
X96615820Y36679540D01*
X96589843Y36679540D01*
X96577485Y36680513D01*
X96560036Y36683277D01*
X96560034Y36683277D01*
X96551832Y36684576D01*
X96543213Y36682266D01*
X96543084Y36682232D01*
X96522637Y36679540D01*
X96296455Y36679540D01*
X96245675Y36698022D01*
X96218428Y36746182D01*
X96205878Y36825421D01*
X96205877Y36825423D01*
X96204905Y36831562D01*
X96147688Y36943857D01*
X96147256Y36944705D01*
X96147255Y36944706D01*
X96144433Y36950245D01*
X96050245Y37044433D01*
X96018889Y37060410D01*
X95984052Y37078160D01*
X95931562Y37104905D01*
X95925423Y37105877D01*
X95925421Y37105878D01*
X95806143Y37124769D01*
X95800000Y37125742D01*
X95793857Y37124769D01*
X95674579Y37105878D01*
X95674577Y37105877D01*
X95668438Y37104905D01*
X95615948Y37078160D01*
X95581112Y37060410D01*
X95549755Y37044433D01*
X95455567Y36950245D01*
X95452745Y36944706D01*
X95452744Y36944705D01*
X95452312Y36943857D01*
X95395095Y36831562D01*
X95394123Y36825423D01*
X95394122Y36825421D01*
X95383173Y36756286D01*
X95356975Y36709022D01*
X95306525Y36689656D01*
X95302047Y36690087D01*
X95301120Y36690500D01*
X95275143Y36690500D01*
X95262785Y36691473D01*
X95245336Y36694237D01*
X95245334Y36694237D01*
X95237132Y36695536D01*
X95228513Y36693226D01*
X95228384Y36693192D01*
X95207937Y36690500D01*
X94639499Y36690500D01*
X94588719Y36708982D01*
X94561699Y36755782D01*
X94560499Y36769500D01*
X94560499Y36820732D01*
X94548287Y36882133D01*
X94501762Y36951762D01*
X94432133Y36998287D01*
X94424506Y36999804D01*
X94424504Y36999805D01*
X94374544Y37009742D01*
X94370733Y37010500D01*
X94362624Y37010500D01*
X94293155Y37010499D01*
X94242376Y37028981D01*
X94215355Y37075780D01*
X94220168Y37119731D01*
X94221061Y37121886D01*
X94225385Y37128358D01*
X94240500Y37204346D01*
X94245603Y37230000D01*
X94244085Y37237632D01*
X94242039Y37247918D01*
X94250260Y37301329D01*
X94281257Y37329833D01*
X94280476Y37330969D01*
X94286486Y37335100D01*
X94293153Y37338061D01*
X94372241Y37417287D01*
X94417506Y37519673D01*
X94418193Y37525567D01*
X94418194Y37525570D01*
X94420236Y37543087D01*
X94420236Y37543092D01*
X94420500Y37545354D01*
X94420500Y37954646D01*
X94417382Y37980846D01*
X94387353Y38048451D01*
X94374901Y38076486D01*
X94374899Y38076489D01*
X94371939Y38083153D01*
X94292713Y38162241D01*
X94294162Y38163692D01*
X94268409Y38199668D01*
X94265500Y38220908D01*
X94265500Y38229020D01*
X94283982Y38279800D01*
X94288639Y38284881D01*
X94515476Y38511718D01*
X94519071Y38514822D01*
X94523171Y38516826D01*
X94555331Y38551495D01*
X94557388Y38553630D01*
X94570654Y38566896D01*
X94572716Y38569902D01*
X94574010Y38571459D01*
X94576853Y38574696D01*
X94585520Y38584039D01*
X94633605Y38608698D01*
X94679302Y38600702D01*
X94739897Y38569828D01*
X94788438Y38545095D01*
X94794577Y38544123D01*
X94794579Y38544122D01*
X94913857Y38525231D01*
X94920000Y38524258D01*
X94926143Y38525231D01*
X95045421Y38544122D01*
X95045423Y38544123D01*
X95051562Y38545095D01*
X95124793Y38582408D01*
X95164705Y38602744D01*
X95164706Y38602745D01*
X95170245Y38605567D01*
X95264433Y38699755D01*
X95278362Y38727091D01*
X95307938Y38785138D01*
X95324905Y38818438D01*
X95327439Y38834433D01*
X95344769Y38943857D01*
X95345742Y38950000D01*
X95342868Y38968144D01*
X95353181Y39021190D01*
X95395178Y39055197D01*
X95420896Y39059500D01*
X95728906Y39059500D01*
X95754668Y39062565D01*
X95793389Y39079764D01*
X95848604Y39104290D01*
X95848605Y39104290D01*
X95855272Y39107252D01*
X95933045Y39185160D01*
X95935424Y39190541D01*
X95978751Y39221560D01*
X96032631Y39217414D01*
G37*
%TD.AperFunction*%
%TA.AperFunction,Conductor*%
G36*
X93716166Y41491018D02*
G01*
X93721247Y41486361D01*
X93771738Y41435870D01*
X93774586Y41432870D01*
X93803205Y41401085D01*
X93810791Y41397708D01*
X93810793Y41397706D01*
X93826932Y41390521D01*
X93837826Y41384606D01*
X93852647Y41374981D01*
X93852650Y41374980D01*
X93859613Y41370458D01*
X93867814Y41369159D01*
X93868558Y41369041D01*
X93888329Y41363185D01*
X93896606Y41359500D01*
X93922583Y41359500D01*
X93934941Y41358527D01*
X93952390Y41355763D01*
X93952392Y41355763D01*
X93960594Y41354464D01*
X93969341Y41356808D01*
X93989789Y41359500D01*
X96867660Y41359500D01*
X96918440Y41341018D01*
X96923521Y41336361D01*
X97561361Y40698521D01*
X97584199Y40649545D01*
X97584500Y40642660D01*
X97584500Y38608375D01*
X97584392Y38604240D01*
X97582660Y38571186D01*
X97582154Y38561538D01*
X97591465Y38537282D01*
X97594981Y38525413D01*
X97600384Y38499994D01*
X97605706Y38492670D01*
X97615551Y38474537D01*
X97618794Y38466088D01*
X97637158Y38447724D01*
X97645205Y38438304D01*
X97660479Y38417281D01*
X97668329Y38412749D01*
X97684686Y38400196D01*
X100699012Y35385870D01*
X100701860Y35382870D01*
X100730479Y35351085D01*
X100738065Y35347708D01*
X100738067Y35347706D01*
X100754206Y35340521D01*
X100765100Y35334606D01*
X100779921Y35324981D01*
X100779924Y35324980D01*
X100786887Y35320458D01*
X100795088Y35319159D01*
X100795832Y35319041D01*
X100815603Y35313185D01*
X100823880Y35309500D01*
X100849857Y35309500D01*
X100862215Y35308527D01*
X100879664Y35305763D01*
X100879666Y35305763D01*
X100887868Y35304464D01*
X100896615Y35306808D01*
X100917063Y35309500D01*
X101510500Y35309500D01*
X101561280Y35291018D01*
X101588300Y35244218D01*
X101589500Y35230500D01*
X101589500Y34965828D01*
X101599930Y34894974D01*
X101609492Y34875499D01*
X101646896Y34799317D01*
X101652685Y34745589D01*
X101622585Y34700710D01*
X101575982Y34685500D01*
X101000980Y34685500D01*
X100950200Y34703982D01*
X100945119Y34708639D01*
X96808639Y38845119D01*
X96785801Y38894095D01*
X96785500Y38900980D01*
X96785500Y39024908D01*
X96803982Y39075688D01*
X96832431Y39097106D01*
X96848603Y39104289D01*
X96848606Y39104291D01*
X96855272Y39107252D01*
X96933045Y39185160D01*
X96937676Y39195634D01*
X96975153Y39280407D01*
X96975153Y39280408D01*
X96977556Y39285843D01*
X96980500Y39311094D01*
X96980500Y39668906D01*
X96977435Y39694668D01*
X96972255Y39706331D01*
X96935710Y39788604D01*
X96935710Y39788605D01*
X96932748Y39795272D01*
X96867094Y39860812D01*
X96860001Y39867893D01*
X96854840Y39873045D01*
X96848171Y39875993D01*
X96848170Y39875994D01*
X96781089Y39905650D01*
X96742118Y39943087D01*
X96736329Y39996815D01*
X96766430Y40041695D01*
X96779645Y40049502D01*
X96873846Y40093429D01*
X96885001Y40101240D01*
X96958760Y40174999D01*
X96966571Y40186154D01*
X97011022Y40281478D01*
X97014366Y40292952D01*
X97019662Y40333176D01*
X97020000Y40338335D01*
X97020000Y40396070D01*
X97016116Y40406741D01*
X97010472Y40410000D01*
X94993931Y40410000D01*
X94983260Y40406116D01*
X94980001Y40400472D01*
X94980001Y40338337D01*
X94980340Y40333174D01*
X94985634Y40292950D01*
X94988977Y40281480D01*
X95033429Y40186154D01*
X95041240Y40174999D01*
X95114999Y40101240D01*
X95126154Y40093429D01*
X95220301Y40049527D01*
X95258512Y40011315D01*
X95263222Y39957482D01*
X95232226Y39913216D01*
X95218984Y39905732D01*
X95190922Y39893267D01*
X95152036Y39875994D01*
X95144728Y39872748D01*
X95139574Y39867585D01*
X95087009Y39814929D01*
X95038052Y39792049D01*
X94985842Y39805990D01*
X94975238Y39814881D01*
X94875978Y39914141D01*
X94873130Y39917141D01*
X94850078Y39942743D01*
X94850079Y39942743D01*
X94844521Y39948915D01*
X94836935Y39952292D01*
X94836933Y39952294D01*
X94820794Y39959479D01*
X94809900Y39965394D01*
X94795079Y39975019D01*
X94795076Y39975020D01*
X94788113Y39979542D01*
X94779663Y39980881D01*
X94779168Y39980959D01*
X94759397Y39986815D01*
X94751120Y39990500D01*
X94741702Y39990500D01*
X94740137Y39991070D01*
X94734696Y39992226D01*
X94734859Y39992991D01*
X94690922Y40008982D01*
X94663902Y40055782D01*
X94664220Y40084912D01*
X94674242Y40135296D01*
X94674463Y40137545D01*
X94671116Y40146741D01*
X94665472Y40150000D01*
X94329000Y40150000D01*
X94278220Y40168482D01*
X94251200Y40215282D01*
X94250000Y40229000D01*
X94250000Y40363930D01*
X94450000Y40363930D01*
X94453884Y40353259D01*
X94459528Y40350000D01*
X94661070Y40350000D01*
X94671741Y40353884D01*
X94674788Y40359161D01*
X94674242Y40364703D01*
X94662738Y40422538D01*
X94656898Y40436636D01*
X94643886Y40456110D01*
X94631042Y40508600D01*
X94643886Y40543890D01*
X94656898Y40563364D01*
X94662738Y40577462D01*
X94671981Y40623930D01*
X94980000Y40623930D01*
X94983884Y40613259D01*
X94989528Y40610000D01*
X95386070Y40610000D01*
X95396741Y40613884D01*
X95400000Y40619528D01*
X95400000Y40623930D01*
X95600000Y40623930D01*
X95603884Y40613259D01*
X95609528Y40610000D01*
X96386070Y40610000D01*
X96396741Y40613884D01*
X96400000Y40619528D01*
X96400000Y40623930D01*
X96600000Y40623930D01*
X96603884Y40613259D01*
X96609528Y40610000D01*
X97006069Y40610000D01*
X97016740Y40613884D01*
X97019999Y40619528D01*
X97019999Y40681662D01*
X97019660Y40686826D01*
X97014366Y40727050D01*
X97011023Y40738520D01*
X96966571Y40833846D01*
X96958760Y40845001D01*
X96885001Y40918760D01*
X96873846Y40926571D01*
X96778522Y40971022D01*
X96767048Y40974366D01*
X96726824Y40979662D01*
X96721665Y40980000D01*
X96613930Y40980000D01*
X96603259Y40976116D01*
X96600000Y40970472D01*
X96600000Y40623930D01*
X96400000Y40623930D01*
X96400000Y40966069D01*
X96396116Y40976740D01*
X96390472Y40979999D01*
X96278338Y40979999D01*
X96273174Y40979660D01*
X96232950Y40974366D01*
X96221480Y40971023D01*
X96126154Y40926571D01*
X96114999Y40918760D01*
X96055861Y40859622D01*
X96006885Y40836784D01*
X95954687Y40850770D01*
X95944139Y40859622D01*
X95885001Y40918760D01*
X95873846Y40926571D01*
X95778522Y40971022D01*
X95767048Y40974366D01*
X95726824Y40979662D01*
X95721665Y40980000D01*
X95613930Y40980000D01*
X95603259Y40976116D01*
X95600000Y40970472D01*
X95600000Y40623930D01*
X95400000Y40623930D01*
X95400000Y40966069D01*
X95396116Y40976740D01*
X95390472Y40979999D01*
X95278338Y40979999D01*
X95273174Y40979660D01*
X95232950Y40974366D01*
X95221480Y40971023D01*
X95126154Y40926571D01*
X95114999Y40918760D01*
X95041240Y40845001D01*
X95033429Y40833846D01*
X94988978Y40738522D01*
X94985634Y40727048D01*
X94980338Y40686824D01*
X94980000Y40681665D01*
X94980000Y40623930D01*
X94671981Y40623930D01*
X94674242Y40635297D01*
X94674463Y40637545D01*
X94671116Y40646741D01*
X94665472Y40650000D01*
X94463930Y40650000D01*
X94453259Y40646116D01*
X94450000Y40640472D01*
X94450000Y40363930D01*
X94250000Y40363930D01*
X94250000Y40863930D01*
X94450000Y40863930D01*
X94453884Y40853259D01*
X94459528Y40850000D01*
X94661070Y40850000D01*
X94671741Y40853884D01*
X94674788Y40859161D01*
X94674242Y40864703D01*
X94662738Y40922538D01*
X94656898Y40936636D01*
X94613049Y41002261D01*
X94602261Y41013049D01*
X94536636Y41056898D01*
X94522538Y41062738D01*
X94464703Y41074242D01*
X94462455Y41074463D01*
X94453259Y41071116D01*
X94450000Y41065472D01*
X94450000Y40863930D01*
X94250000Y40863930D01*
X94250000Y41061070D01*
X94246116Y41071741D01*
X94240839Y41074788D01*
X94235297Y41074242D01*
X94177462Y41062738D01*
X94156174Y41053920D01*
X94155391Y41055810D01*
X94112914Y41045414D01*
X94089568Y41051691D01*
X93992583Y41094568D01*
X93981243Y41097659D01*
X93963454Y41099733D01*
X93958868Y41100000D01*
X93613930Y41100000D01*
X93603259Y41096116D01*
X93600000Y41090472D01*
X93600000Y40113930D01*
X93603884Y40103259D01*
X93609528Y40100000D01*
X94051966Y40100000D01*
X94102746Y40081518D01*
X94129766Y40034718D01*
X94117652Y39977111D01*
X94089588Y39935109D01*
X94046008Y39903156D01*
X94023902Y39900000D01*
X93613930Y39900000D01*
X93603259Y39896116D01*
X93600000Y39890472D01*
X93600000Y38913931D01*
X93603884Y38903260D01*
X93609528Y38900001D01*
X93905521Y38900001D01*
X93956301Y38881519D01*
X93983321Y38834719D01*
X93973937Y38781501D01*
X93961382Y38765140D01*
X93814524Y38618282D01*
X93810929Y38615178D01*
X93806829Y38613174D01*
X93779567Y38583785D01*
X93774669Y38578505D01*
X93772612Y38576370D01*
X93759346Y38563104D01*
X93757284Y38560098D01*
X93755990Y38558541D01*
X93753149Y38555306D01*
X93734498Y38535200D01*
X93731795Y38528424D01*
X93729825Y38523487D01*
X93721596Y38508075D01*
X93714459Y38497672D01*
X93712775Y38490574D01*
X93708361Y38471973D01*
X93704872Y38460942D01*
X93695086Y38436414D01*
X93694500Y38430437D01*
X93694500Y38422807D01*
X93692365Y38404568D01*
X93689902Y38394188D01*
X93690886Y38386958D01*
X93690886Y38386957D01*
X93693778Y38365709D01*
X93694500Y38355055D01*
X93694500Y38220888D01*
X93676018Y38170108D01*
X93667193Y38162093D01*
X93666847Y38161939D01*
X93587759Y38082713D01*
X93586085Y38078926D01*
X93543517Y38048451D01*
X93489637Y38052597D01*
X93450675Y38091153D01*
X93445729Y38101760D01*
X93437919Y38112913D01*
X93362913Y38187919D01*
X93351758Y38195730D01*
X93254836Y38240926D01*
X93243362Y38244270D01*
X93202409Y38249662D01*
X93197250Y38250000D01*
X93133930Y38250000D01*
X93123259Y38246116D01*
X93120000Y38240472D01*
X93120000Y37729000D01*
X93101518Y37678220D01*
X93054718Y37651200D01*
X93041000Y37650000D01*
X92553930Y37650000D01*
X92543259Y37646116D01*
X92540000Y37640472D01*
X92540000Y37552750D01*
X92540338Y37547592D01*
X92542679Y37529812D01*
X92530983Y37477054D01*
X92488111Y37444157D01*
X92464355Y37440500D01*
X92408367Y37440500D01*
X92404232Y37440608D01*
X92369825Y37442412D01*
X92369823Y37442412D01*
X92361537Y37442846D01*
X92353790Y37439872D01*
X92353789Y37439872D01*
X92337287Y37433537D01*
X92325399Y37430016D01*
X92308116Y37426343D01*
X92308113Y37426342D01*
X92299994Y37424616D01*
X92296584Y37422139D01*
X92245156Y37418544D01*
X92201437Y37450308D01*
X92188464Y37503632D01*
X92189701Y37514242D01*
X92190500Y37521094D01*
X92190500Y37863930D01*
X92540000Y37863930D01*
X92543884Y37853259D01*
X92549528Y37850000D01*
X92906070Y37850000D01*
X92916741Y37853884D01*
X92920000Y37859528D01*
X92920000Y38236070D01*
X92916116Y38246741D01*
X92910472Y38250000D01*
X92842750Y38250000D01*
X92837591Y38249662D01*
X92796638Y38244270D01*
X92785164Y38240926D01*
X92688242Y38195730D01*
X92677087Y38187919D01*
X92602081Y38112913D01*
X92594270Y38101758D01*
X92549074Y38004836D01*
X92545730Y37993362D01*
X92540338Y37952409D01*
X92540000Y37947250D01*
X92540000Y37863930D01*
X92190500Y37863930D01*
X92190500Y37978906D01*
X92187435Y38004668D01*
X92155535Y38076486D01*
X92145710Y38098604D01*
X92145710Y38098605D01*
X92142748Y38105272D01*
X92111004Y38136961D01*
X92088124Y38185917D01*
X92102492Y38237814D01*
X92104433Y38239755D01*
X92164905Y38358438D01*
X92171692Y38401287D01*
X92184769Y38483857D01*
X92185742Y38490000D01*
X92178583Y38535200D01*
X92165878Y38615421D01*
X92165877Y38615423D01*
X92164905Y38621562D01*
X92127305Y38695357D01*
X92107256Y38734705D01*
X92107255Y38734706D01*
X92104433Y38740245D01*
X92010245Y38834433D01*
X91891562Y38894905D01*
X91885423Y38895877D01*
X91885421Y38895878D01*
X91766143Y38914769D01*
X91760000Y38915742D01*
X91753857Y38914769D01*
X91634579Y38895878D01*
X91634577Y38895877D01*
X91628438Y38894905D01*
X91509755Y38834433D01*
X91415567Y38740245D01*
X91412745Y38734706D01*
X91412744Y38734705D01*
X91392695Y38695357D01*
X91355095Y38621562D01*
X91354123Y38615423D01*
X91354122Y38615421D01*
X91341417Y38535200D01*
X91334258Y38490000D01*
X91335231Y38483857D01*
X91348309Y38401287D01*
X91355095Y38358438D01*
X91415567Y38239755D01*
X91417537Y38237785D01*
X91432001Y38187347D01*
X91409103Y38137044D01*
X91376955Y38104840D01*
X91332444Y38004157D01*
X91329500Y37978906D01*
X91329500Y37521094D01*
X91332565Y37495332D01*
X91334971Y37489916D01*
X91334971Y37489915D01*
X91374097Y37401830D01*
X91377252Y37394728D01*
X91382415Y37389574D01*
X91449691Y37322415D01*
X91455160Y37316955D01*
X91461829Y37314007D01*
X91461830Y37314006D01*
X91520861Y37287909D01*
X91555843Y37272444D01*
X91581094Y37269500D01*
X91711938Y37269500D01*
X91762718Y37251018D01*
X91789738Y37204218D01*
X91782327Y37154634D01*
X91747917Y37087102D01*
X91747916Y37087098D01*
X91745095Y37081562D01*
X91744123Y37075423D01*
X91744122Y37075421D01*
X91737090Y37031022D01*
X91724258Y36950000D01*
X91725231Y36943857D01*
X91740936Y36844700D01*
X91745095Y36818438D01*
X91747917Y36812900D01*
X91800866Y36708982D01*
X91805567Y36699755D01*
X91899755Y36605567D01*
X91905294Y36602745D01*
X91905295Y36602744D01*
X91922737Y36593857D01*
X92018438Y36545095D01*
X92024577Y36544123D01*
X92024579Y36544122D01*
X92143857Y36525231D01*
X92150000Y36524258D01*
X92156143Y36525231D01*
X92275421Y36544122D01*
X92275423Y36544123D01*
X92281562Y36545095D01*
X92287098Y36547916D01*
X92287102Y36547917D01*
X92324634Y36567041D01*
X92378271Y36573627D01*
X92423592Y36544196D01*
X92439500Y36496652D01*
X92439501Y36139500D01*
X92421019Y36088720D01*
X92374219Y36061700D01*
X92360501Y36060500D01*
X91724108Y36060499D01*
X91679268Y36060499D01*
X91617867Y36048287D01*
X91614221Y36045851D01*
X91587321Y36040500D01*
X91532341Y36040500D01*
X91481561Y36058982D01*
X91476480Y36063639D01*
X91003639Y36536479D01*
X90980801Y36585455D01*
X90980500Y36592340D01*
X90980500Y37237129D01*
X90998982Y37287909D01*
X91027431Y37309327D01*
X91032283Y37311482D01*
X91045272Y37317252D01*
X91123045Y37395160D01*
X91127929Y37406206D01*
X91165153Y37490407D01*
X91165153Y37490408D01*
X91167556Y37495843D01*
X91170500Y37521094D01*
X91170500Y37978906D01*
X91167435Y38004668D01*
X91135535Y38076486D01*
X91125710Y38098604D01*
X91125710Y38098605D01*
X91122748Y38105272D01*
X91064227Y38163692D01*
X91050001Y38177893D01*
X91044840Y38183045D01*
X91038171Y38185993D01*
X91038170Y38185994D01*
X90949593Y38225153D01*
X90949592Y38225153D01*
X90944157Y38227556D01*
X90918906Y38230500D01*
X90735716Y38230500D01*
X90684936Y38248982D01*
X90657916Y38295782D01*
X90667300Y38349000D01*
X90699851Y38379890D01*
X90744705Y38402744D01*
X90744706Y38402745D01*
X90750245Y38405567D01*
X90844433Y38499755D01*
X90850529Y38511718D01*
X90884009Y38577427D01*
X90904905Y38618438D01*
X90911147Y38657845D01*
X90924769Y38743857D01*
X90925742Y38750000D01*
X90918178Y38797756D01*
X90905878Y38875421D01*
X90905877Y38875423D01*
X90904905Y38881562D01*
X90862646Y38964500D01*
X90847256Y38994705D01*
X90847255Y38994706D01*
X90844433Y39000245D01*
X90830291Y39014387D01*
X90807453Y39063363D01*
X90821439Y39115561D01*
X90833600Y39127615D01*
X90833153Y39128061D01*
X90896295Y39191313D01*
X90945251Y39214193D01*
X90952205Y39214500D01*
X91047712Y39214500D01*
X91098492Y39196018D01*
X91103524Y39191411D01*
X91167287Y39127759D01*
X91269673Y39082494D01*
X91275567Y39081807D01*
X91275570Y39081806D01*
X91293087Y39079764D01*
X91293092Y39079764D01*
X91295354Y39079500D01*
X91704646Y39079500D01*
X91730846Y39082618D01*
X91765666Y39098085D01*
X91826486Y39125099D01*
X91826489Y39125101D01*
X91833153Y39128061D01*
X91844746Y39139675D01*
X91893700Y39162556D01*
X91945911Y39148617D01*
X91956518Y39139724D01*
X92011718Y39084524D01*
X92014822Y39080929D01*
X92016826Y39076829D01*
X92022173Y39071869D01*
X92051495Y39044669D01*
X92053630Y39042612D01*
X92066896Y39029346D01*
X92069902Y39027284D01*
X92071459Y39025990D01*
X92074694Y39023149D01*
X92094800Y39004498D01*
X92101576Y39001795D01*
X92101577Y39001794D01*
X92106517Y38999823D01*
X92121926Y38991595D01*
X92126310Y38988588D01*
X92132328Y38984460D01*
X92139424Y38982776D01*
X92139426Y38982775D01*
X92158023Y38978362D01*
X92169055Y38974873D01*
X92193586Y38965086D01*
X92199563Y38964500D01*
X92207192Y38964500D01*
X92225434Y38962365D01*
X92235812Y38959902D01*
X92243042Y38960886D01*
X92243043Y38960886D01*
X92264291Y38963778D01*
X92274945Y38964500D01*
X92676552Y38964500D01*
X92676554Y38964501D01*
X92757000Y38964501D01*
X92814756Y38975988D01*
X92816013Y38976828D01*
X92866429Y38979026D01*
X92898481Y38959595D01*
X92904114Y38953972D01*
X92915945Y38945871D01*
X93007417Y38905432D01*
X93018757Y38902341D01*
X93036546Y38900267D01*
X93041132Y38900000D01*
X93386070Y38900000D01*
X93396741Y38903884D01*
X93400000Y38909528D01*
X93400000Y41086069D01*
X93396116Y41096740D01*
X93390472Y41099999D01*
X93041181Y41099999D01*
X93036501Y41099722D01*
X93018213Y41097547D01*
X93006913Y41094441D01*
X92915497Y41053836D01*
X92903676Y41045711D01*
X92898507Y41040533D01*
X92849551Y41017653D01*
X92816737Y41022688D01*
X92814756Y41024012D01*
X92807126Y41025530D01*
X92807125Y41025530D01*
X92760813Y41034742D01*
X92760811Y41034742D01*
X92757001Y41035500D01*
X92753115Y41035500D01*
X92649876Y41035499D01*
X92543000Y41035499D01*
X92534910Y41033890D01*
X92481500Y41042111D01*
X92445871Y41082741D01*
X92440500Y41111372D01*
X92440500Y41430500D01*
X92458982Y41481280D01*
X92505782Y41508300D01*
X92519500Y41509500D01*
X93665386Y41509500D01*
X93716166Y41491018D01*
G37*
%TD.AperFunction*%
%TA.AperFunction,Conductor*%
G36*
X93586204Y37421029D02*
G01*
X93588061Y37416847D01*
X93640014Y37364985D01*
X93648278Y37356735D01*
X93671158Y37307779D01*
X93660448Y37265907D01*
X93661915Y37265300D01*
X93658937Y37258110D01*
X93654615Y37251642D01*
X93653098Y37244013D01*
X93653097Y37244012D01*
X93651828Y37237632D01*
X93634397Y37150000D01*
X93635915Y37142369D01*
X93637982Y37131977D01*
X93639500Y37116565D01*
X93639500Y37112500D01*
X93619894Y37060410D01*
X93600029Y37037759D01*
X93600000Y37037605D01*
X93600000Y34979000D01*
X93581518Y34928220D01*
X93534718Y34901200D01*
X93521000Y34900000D01*
X93479000Y34900000D01*
X93428220Y34918482D01*
X93401200Y34965282D01*
X93400000Y34979000D01*
X93400000Y37031022D01*
X93396116Y37041693D01*
X93392950Y37043521D01*
X93392795Y37043519D01*
X93378365Y37040649D01*
X93324955Y37048870D01*
X93307576Y37065003D01*
X93306207Y37063634D01*
X93287839Y37082002D01*
X93279788Y37091428D01*
X93269402Y37105723D01*
X93264521Y37112441D01*
X93257334Y37116591D01*
X93257330Y37116594D01*
X93256676Y37116971D01*
X93240317Y37129525D01*
X93236362Y37133480D01*
X93213524Y37182456D01*
X93227510Y37234654D01*
X93258836Y37260939D01*
X93351758Y37304270D01*
X93362913Y37312081D01*
X93437919Y37387087D01*
X93445729Y37398240D01*
X93450673Y37408843D01*
X93488885Y37447054D01*
X93542719Y37451763D01*
X93586204Y37421029D01*
G37*
%TD.AperFunction*%
%TA.AperFunction,Conductor*%
G36*
X91931280Y41341018D02*
G01*
X91958300Y41294218D01*
X91959500Y41280500D01*
X91959500Y40979494D01*
X91941018Y40928714D01*
X91894218Y40901694D01*
X91847113Y40907896D01*
X91754836Y40950926D01*
X91743362Y40954270D01*
X91702409Y40959662D01*
X91697250Y40960000D01*
X91613930Y40960000D01*
X91603259Y40956116D01*
X91600000Y40950472D01*
X91600000Y40459000D01*
X91581518Y40408220D01*
X91534718Y40381200D01*
X91521000Y40380000D01*
X90479000Y40380000D01*
X90428220Y40398482D01*
X90401200Y40445282D01*
X90400000Y40459000D01*
X90400000Y40593930D01*
X90600000Y40593930D01*
X90603884Y40583259D01*
X90609528Y40580000D01*
X91386070Y40580000D01*
X91396741Y40583884D01*
X91400000Y40589528D01*
X91400000Y40946070D01*
X91396116Y40956741D01*
X91390472Y40960000D01*
X91302750Y40960000D01*
X91297591Y40959662D01*
X91256638Y40954270D01*
X91245164Y40950926D01*
X91148242Y40905730D01*
X91137087Y40897919D01*
X91057192Y40818024D01*
X91055203Y40820013D01*
X91020449Y40795677D01*
X90966616Y40800385D01*
X90944079Y40819295D01*
X90942808Y40818024D01*
X90862913Y40897919D01*
X90851758Y40905730D01*
X90754836Y40950926D01*
X90743362Y40954270D01*
X90702409Y40959662D01*
X90697250Y40960000D01*
X90613930Y40960000D01*
X90603259Y40956116D01*
X90600000Y40950472D01*
X90600000Y40593930D01*
X90400000Y40593930D01*
X90400000Y40946070D01*
X90396116Y40956741D01*
X90390472Y40960000D01*
X90302750Y40960000D01*
X90297591Y40959662D01*
X90256638Y40954270D01*
X90245164Y40950926D01*
X90148242Y40905730D01*
X90137087Y40897919D01*
X90062082Y40822914D01*
X90058663Y40818031D01*
X90014397Y40787034D01*
X89960563Y40791743D01*
X89932758Y40815282D01*
X89932748Y40815272D01*
X89932621Y40815399D01*
X89899950Y40848013D01*
X89877070Y40896969D01*
X89891011Y40949179D01*
X89899902Y40959784D01*
X90276479Y41336361D01*
X90325455Y41359199D01*
X90332340Y41359500D01*
X91880500Y41359500D01*
X91931280Y41341018D01*
G37*
%TD.AperFunction*%
%TA.AperFunction,NonConductor*%
G36*
X143990498Y44837491D02*
G01*
X143999713Y44835372D01*
X144008390Y44837336D01*
X144013848Y44837326D01*
X144025616Y44838382D01*
X144223325Y44829749D01*
X144418347Y44821234D01*
X144425212Y44820633D01*
X144836952Y44766427D01*
X144843740Y44765230D01*
X145249180Y44675346D01*
X145255837Y44673563D01*
X145651916Y44548679D01*
X145658392Y44546322D01*
X146042079Y44387395D01*
X146048325Y44384482D01*
X146416688Y44192724D01*
X146422657Y44189278D01*
X146772917Y43966137D01*
X146778562Y43962184D01*
X147108031Y43709374D01*
X147113311Y43704944D01*
X147419500Y43424373D01*
X147424373Y43419500D01*
X147704944Y43113311D01*
X147709374Y43108031D01*
X147962184Y42778562D01*
X147966137Y42772917D01*
X148189278Y42422657D01*
X148192724Y42416688D01*
X148384482Y42048325D01*
X148387395Y42042079D01*
X148546322Y41658392D01*
X148548679Y41651916D01*
X148673563Y41255837D01*
X148675346Y41249180D01*
X148765230Y40843740D01*
X148766427Y40836952D01*
X148820633Y40425212D01*
X148821234Y40418347D01*
X148838364Y40026033D01*
X148837377Y40015255D01*
X148837366Y40008958D01*
X148835372Y40000287D01*
X148837336Y39991609D01*
X148837552Y39990653D01*
X148839500Y39973218D01*
X148839500Y5027206D01*
X148837491Y5009502D01*
X148835372Y5000287D01*
X148837336Y4991610D01*
X148837326Y4986152D01*
X148838382Y4974384D01*
X148836782Y4937746D01*
X148821234Y4581653D01*
X148820633Y4574788D01*
X148766427Y4163048D01*
X148765230Y4156260D01*
X148675346Y3750820D01*
X148673563Y3744163D01*
X148548679Y3348084D01*
X148546322Y3341608D01*
X148387395Y2957921D01*
X148384482Y2951675D01*
X148192724Y2583312D01*
X148189278Y2577343D01*
X147966137Y2227083D01*
X147962184Y2221438D01*
X147709374Y1891969D01*
X147704944Y1886689D01*
X147424373Y1580500D01*
X147419500Y1575627D01*
X147113311Y1295056D01*
X147108031Y1290626D01*
X146778562Y1037816D01*
X146772917Y1033863D01*
X146422657Y810722D01*
X146416688Y807276D01*
X146048325Y615518D01*
X146042079Y612605D01*
X145658392Y453678D01*
X145651916Y451321D01*
X145255837Y326437D01*
X145249180Y324654D01*
X144843740Y234770D01*
X144836952Y233573D01*
X144425212Y179367D01*
X144418347Y178766D01*
X144242142Y171072D01*
X144026030Y161636D01*
X144015255Y162623D01*
X144008958Y162634D01*
X144000287Y164628D01*
X143990653Y162448D01*
X143973218Y160500D01*
X119027206Y160500D01*
X119009502Y162509D01*
X119000287Y164628D01*
X118991610Y162664D01*
X118986152Y162674D01*
X118974384Y161618D01*
X118776675Y170251D01*
X118581653Y178766D01*
X118574788Y179367D01*
X118163048Y233573D01*
X118156260Y234770D01*
X117750820Y324654D01*
X117744163Y326437D01*
X117348084Y451321D01*
X117341608Y453678D01*
X116957921Y612605D01*
X116951675Y615518D01*
X116583312Y807276D01*
X116577343Y810722D01*
X116227083Y1033863D01*
X116221438Y1037816D01*
X115891969Y1290626D01*
X115886689Y1295056D01*
X115580500Y1575627D01*
X115575627Y1580500D01*
X115295056Y1886689D01*
X115290626Y1891969D01*
X115037816Y2221438D01*
X115033863Y2227083D01*
X114810722Y2577343D01*
X114807276Y2583312D01*
X114615518Y2951675D01*
X114612605Y2957921D01*
X114453678Y3341608D01*
X114451321Y3348084D01*
X114326437Y3744163D01*
X114324654Y3750820D01*
X114234770Y4156260D01*
X114233573Y4163048D01*
X114179367Y4574788D01*
X114178766Y4581653D01*
X114161646Y4973758D01*
X114163202Y4990621D01*
X114163106Y4990632D01*
X114163594Y4994866D01*
X114163610Y4995038D01*
X114163618Y4995072D01*
X114163618Y4995073D01*
X114164627Y4999425D01*
X114164628Y5000000D01*
X117484829Y5000000D01*
X117503483Y4762975D01*
X117558987Y4531786D01*
X117649973Y4312127D01*
X117774201Y4109405D01*
X117928612Y3928612D01*
X117930969Y3926599D01*
X118064996Y3812130D01*
X118109405Y3774201D01*
X118312127Y3649973D01*
X118531786Y3558987D01*
X118534803Y3558263D01*
X118534805Y3558262D01*
X118628472Y3535775D01*
X118762975Y3503483D01*
X119000000Y3484829D01*
X119237025Y3503483D01*
X119371528Y3535775D01*
X119465195Y3558262D01*
X119465197Y3558263D01*
X119468214Y3558987D01*
X119687873Y3649973D01*
X119890595Y3774201D01*
X119935005Y3812130D01*
X120069031Y3926599D01*
X120071388Y3928612D01*
X120225799Y4109405D01*
X120350027Y4312127D01*
X120441013Y4531786D01*
X120496517Y4762975D01*
X120515171Y5000000D01*
X142484829Y5000000D01*
X142503483Y4762975D01*
X142558987Y4531786D01*
X142649973Y4312127D01*
X142774201Y4109405D01*
X142928612Y3928612D01*
X142930969Y3926599D01*
X143064996Y3812130D01*
X143109405Y3774201D01*
X143312127Y3649973D01*
X143531786Y3558987D01*
X143534803Y3558263D01*
X143534805Y3558262D01*
X143628472Y3535775D01*
X143762975Y3503483D01*
X144000000Y3484829D01*
X144237025Y3503483D01*
X144371528Y3535775D01*
X144465195Y3558262D01*
X144465197Y3558263D01*
X144468214Y3558987D01*
X144687873Y3649973D01*
X144890595Y3774201D01*
X144935005Y3812130D01*
X145069031Y3926599D01*
X145071388Y3928612D01*
X145225799Y4109405D01*
X145350027Y4312127D01*
X145441013Y4531786D01*
X145496517Y4762975D01*
X145515171Y5000000D01*
X145496517Y5237025D01*
X145441013Y5468214D01*
X145350027Y5687873D01*
X145225799Y5890595D01*
X145180449Y5943694D01*
X145073401Y6069031D01*
X145071388Y6071388D01*
X144940725Y6182984D01*
X144892958Y6223781D01*
X144892957Y6223782D01*
X144890595Y6225799D01*
X144687873Y6350027D01*
X144468214Y6441013D01*
X144465197Y6441737D01*
X144465195Y6441738D01*
X144371528Y6464225D01*
X144237025Y6496517D01*
X144000000Y6515171D01*
X143762975Y6496517D01*
X143628472Y6464225D01*
X143534805Y6441738D01*
X143534803Y6441737D01*
X143531786Y6441013D01*
X143312127Y6350027D01*
X143109405Y6225799D01*
X143107043Y6223782D01*
X143107042Y6223781D01*
X143059275Y6182984D01*
X142928612Y6071388D01*
X142926599Y6069031D01*
X142819552Y5943694D01*
X142774201Y5890595D01*
X142649973Y5687873D01*
X142558987Y5468214D01*
X142503483Y5237025D01*
X142503239Y5233920D01*
X142487279Y5031137D01*
X142485577Y5009502D01*
X142484829Y5000000D01*
X120515171Y5000000D01*
X120496517Y5237025D01*
X120441013Y5468214D01*
X120350027Y5687873D01*
X120225799Y5890595D01*
X120180449Y5943694D01*
X120073401Y6069031D01*
X120071388Y6071388D01*
X119940725Y6182984D01*
X119892958Y6223781D01*
X119892957Y6223782D01*
X119890595Y6225799D01*
X119687873Y6350027D01*
X119468214Y6441013D01*
X119465197Y6441737D01*
X119465195Y6441738D01*
X119371528Y6464225D01*
X119237025Y6496517D01*
X119000000Y6515171D01*
X118762975Y6496517D01*
X118628472Y6464225D01*
X118534805Y6441738D01*
X118534803Y6441737D01*
X118531786Y6441013D01*
X118312127Y6350027D01*
X118109405Y6225799D01*
X118107043Y6223782D01*
X118107042Y6223781D01*
X118059275Y6182984D01*
X117928612Y6071388D01*
X117926599Y6069031D01*
X117819552Y5943694D01*
X117774201Y5890595D01*
X117649973Y5687873D01*
X117558987Y5468214D01*
X117503483Y5237025D01*
X117503239Y5233920D01*
X117487279Y5031137D01*
X117485577Y5009502D01*
X117484829Y5000000D01*
X114164628Y5000000D01*
X114163635Y5004355D01*
X114163634Y5004360D01*
X114162478Y5009427D01*
X114160500Y5026995D01*
X114160500Y19472583D01*
X114162540Y19490421D01*
X114163890Y19496247D01*
X114164627Y19499425D01*
X114164628Y19500000D01*
X114164679Y19500000D01*
X114160497Y19537116D01*
X114160000Y19545961D01*
X114160000Y25454031D01*
X114160122Y25458413D01*
X114160124Y25458449D01*
X114161964Y25462747D01*
X114160500Y25462912D01*
X114163118Y25486144D01*
X114163118Y25486145D01*
X114164602Y25499318D01*
X114164627Y25499425D01*
X114164627Y25499540D01*
X114164679Y25500000D01*
X114164628Y25500000D01*
X114161856Y25512153D01*
X114162014Y25513550D01*
X114160500Y25526995D01*
X114160500Y32500000D01*
X119584365Y32500000D01*
X119604872Y32239437D01*
X119665887Y31985290D01*
X119765908Y31743818D01*
X119902473Y31520964D01*
X120072218Y31322218D01*
X120074575Y31320205D01*
X120261566Y31160500D01*
X120270964Y31152473D01*
X120493818Y31015908D01*
X120735290Y30915887D01*
X120738307Y30915163D01*
X120738309Y30915162D01*
X120842299Y30890196D01*
X120989437Y30854872D01*
X121250000Y30834365D01*
X121510563Y30854872D01*
X121657701Y30890196D01*
X121761691Y30915162D01*
X121761693Y30915163D01*
X121764710Y30915887D01*
X122006182Y31015908D01*
X122229036Y31152473D01*
X122238435Y31160500D01*
X122425425Y31320205D01*
X122427782Y31322218D01*
X122597527Y31520964D01*
X122734092Y31743818D01*
X122834113Y31985290D01*
X122895128Y32239437D01*
X122915635Y32500000D01*
X140084365Y32500000D01*
X140104872Y32239437D01*
X140165887Y31985290D01*
X140265908Y31743818D01*
X140402473Y31520964D01*
X140572218Y31322218D01*
X140574575Y31320205D01*
X140761566Y31160500D01*
X140770964Y31152473D01*
X140993818Y31015908D01*
X141235290Y30915887D01*
X141238307Y30915163D01*
X141238309Y30915162D01*
X141342299Y30890196D01*
X141489437Y30854872D01*
X141750000Y30834365D01*
X142010563Y30854872D01*
X142157701Y30890196D01*
X142261691Y30915162D01*
X142261693Y30915163D01*
X142264710Y30915887D01*
X142506182Y31015908D01*
X142729036Y31152473D01*
X142738435Y31160500D01*
X142925425Y31320205D01*
X142927782Y31322218D01*
X143097527Y31520964D01*
X143234092Y31743818D01*
X143334113Y31985290D01*
X143395128Y32239437D01*
X143415635Y32500000D01*
X143395128Y32760563D01*
X143334113Y33014710D01*
X143234092Y33256182D01*
X143097527Y33479036D01*
X142927782Y33677782D01*
X142762261Y33819150D01*
X142731399Y33845509D01*
X142731398Y33845510D01*
X142729036Y33847527D01*
X142506182Y33984092D01*
X142264710Y34084113D01*
X142261693Y34084837D01*
X142261691Y34084838D01*
X142157701Y34109804D01*
X142010563Y34145128D01*
X141750000Y34165635D01*
X141489437Y34145128D01*
X141342299Y34109804D01*
X141238309Y34084838D01*
X141238307Y34084837D01*
X141235290Y34084113D01*
X140993818Y33984092D01*
X140770964Y33847527D01*
X140768602Y33845510D01*
X140768601Y33845509D01*
X140737739Y33819150D01*
X140572218Y33677782D01*
X140402473Y33479036D01*
X140265908Y33256182D01*
X140165887Y33014710D01*
X140104872Y32760563D01*
X140084365Y32500000D01*
X122915635Y32500000D01*
X122895128Y32760563D01*
X122834113Y33014710D01*
X122734092Y33256182D01*
X122597527Y33479036D01*
X122427782Y33677782D01*
X122262261Y33819150D01*
X122231399Y33845509D01*
X122231398Y33845510D01*
X122229036Y33847527D01*
X122006182Y33984092D01*
X121764710Y34084113D01*
X121761693Y34084837D01*
X121761691Y34084838D01*
X121657701Y34109804D01*
X121510563Y34145128D01*
X121250000Y34165635D01*
X120989437Y34145128D01*
X120842299Y34109804D01*
X120738309Y34084838D01*
X120738307Y34084837D01*
X120735290Y34084113D01*
X120493818Y33984092D01*
X120270964Y33847527D01*
X120268602Y33845510D01*
X120268601Y33845509D01*
X120237739Y33819150D01*
X120072218Y33677782D01*
X119902473Y33479036D01*
X119765908Y33256182D01*
X119665887Y33014710D01*
X119604872Y32760563D01*
X119584365Y32500000D01*
X114160500Y32500000D01*
X114160500Y39972583D01*
X114162540Y39990421D01*
X114163617Y39995069D01*
X114164627Y39999425D01*
X114164628Y40000000D01*
X117484829Y40000000D01*
X117503483Y39762975D01*
X117558987Y39531786D01*
X117649973Y39312127D01*
X117774201Y39109405D01*
X117928612Y38928612D01*
X117930969Y38926599D01*
X118064996Y38812130D01*
X118109405Y38774201D01*
X118312127Y38649973D01*
X118531786Y38558987D01*
X118534803Y38558263D01*
X118534805Y38558262D01*
X118628472Y38535775D01*
X118762975Y38503483D01*
X119000000Y38484829D01*
X119237025Y38503483D01*
X119371528Y38535775D01*
X119465195Y38558262D01*
X119465197Y38558263D01*
X119468214Y38558987D01*
X119687873Y38649973D01*
X119890595Y38774201D01*
X119935005Y38812130D01*
X120069031Y38926599D01*
X120071388Y38928612D01*
X120225799Y39109405D01*
X120350027Y39312127D01*
X120441013Y39531786D01*
X120496517Y39762975D01*
X120515171Y40000000D01*
X142484829Y40000000D01*
X142503483Y39762975D01*
X142558987Y39531786D01*
X142649973Y39312127D01*
X142774201Y39109405D01*
X142928612Y38928612D01*
X142930969Y38926599D01*
X143064996Y38812130D01*
X143109405Y38774201D01*
X143312127Y38649973D01*
X143531786Y38558987D01*
X143534803Y38558263D01*
X143534805Y38558262D01*
X143628472Y38535775D01*
X143762975Y38503483D01*
X144000000Y38484829D01*
X144237025Y38503483D01*
X144371528Y38535775D01*
X144465195Y38558262D01*
X144465197Y38558263D01*
X144468214Y38558987D01*
X144687873Y38649973D01*
X144890595Y38774201D01*
X144935005Y38812130D01*
X145069031Y38926599D01*
X145071388Y38928612D01*
X145225799Y39109405D01*
X145350027Y39312127D01*
X145441013Y39531786D01*
X145496517Y39762975D01*
X145515171Y40000000D01*
X145496517Y40237025D01*
X145441013Y40468214D01*
X145350027Y40687873D01*
X145225799Y40890595D01*
X145180449Y40943694D01*
X145073401Y41069031D01*
X145071388Y41071388D01*
X144940725Y41182984D01*
X144892958Y41223781D01*
X144892957Y41223782D01*
X144890595Y41225799D01*
X144687873Y41350027D01*
X144468214Y41441013D01*
X144465197Y41441737D01*
X144465195Y41441738D01*
X144371528Y41464225D01*
X144237025Y41496517D01*
X144000000Y41515171D01*
X143762975Y41496517D01*
X143628472Y41464225D01*
X143534805Y41441738D01*
X143534803Y41441737D01*
X143531786Y41441013D01*
X143312127Y41350027D01*
X143109405Y41225799D01*
X143107043Y41223782D01*
X143107042Y41223781D01*
X143059275Y41182984D01*
X142928612Y41071388D01*
X142926599Y41069031D01*
X142819552Y40943694D01*
X142774201Y40890595D01*
X142649973Y40687873D01*
X142558987Y40468214D01*
X142503483Y40237025D01*
X142503239Y40233920D01*
X142487279Y40031137D01*
X142485522Y40008801D01*
X142484829Y40000000D01*
X120515171Y40000000D01*
X120496517Y40237025D01*
X120441013Y40468214D01*
X120350027Y40687873D01*
X120225799Y40890595D01*
X120180449Y40943694D01*
X120073401Y41069031D01*
X120071388Y41071388D01*
X119940725Y41182984D01*
X119892958Y41223781D01*
X119892957Y41223782D01*
X119890595Y41225799D01*
X119687873Y41350027D01*
X119468214Y41441013D01*
X119465197Y41441737D01*
X119465195Y41441738D01*
X119371528Y41464225D01*
X119237025Y41496517D01*
X119000000Y41515171D01*
X118762975Y41496517D01*
X118628472Y41464225D01*
X118534805Y41441738D01*
X118534803Y41441737D01*
X118531786Y41441013D01*
X118312127Y41350027D01*
X118109405Y41225799D01*
X118107043Y41223782D01*
X118107042Y41223781D01*
X118059275Y41182984D01*
X117928612Y41071388D01*
X117926599Y41069031D01*
X117819552Y40943694D01*
X117774201Y40890595D01*
X117649973Y40687873D01*
X117558987Y40468214D01*
X117503483Y40237025D01*
X117503239Y40233920D01*
X117487279Y40031137D01*
X117485522Y40008801D01*
X117484829Y40000000D01*
X114164628Y40000000D01*
X114163531Y40004807D01*
X114163307Y40007288D01*
X114163138Y40008797D01*
X114163170Y40008801D01*
X114161627Y40025824D01*
X114178766Y40418347D01*
X114179367Y40425212D01*
X114233573Y40836952D01*
X114234770Y40843740D01*
X114324654Y41249180D01*
X114326437Y41255837D01*
X114451321Y41651916D01*
X114453678Y41658392D01*
X114612605Y42042079D01*
X114615518Y42048325D01*
X114807276Y42416688D01*
X114810722Y42422657D01*
X115033863Y42772917D01*
X115037816Y42778562D01*
X115290626Y43108031D01*
X115295056Y43113311D01*
X115575627Y43419500D01*
X115580500Y43424373D01*
X115886689Y43704944D01*
X115891969Y43709374D01*
X116221438Y43962184D01*
X116227083Y43966137D01*
X116577343Y44189278D01*
X116583312Y44192724D01*
X116951675Y44384482D01*
X116957921Y44387395D01*
X117341608Y44546322D01*
X117348084Y44548679D01*
X117744163Y44673563D01*
X117750820Y44675346D01*
X118156260Y44765230D01*
X118163048Y44766427D01*
X118574788Y44820633D01*
X118581653Y44821234D01*
X118757858Y44828928D01*
X118973970Y44838364D01*
X118984745Y44837377D01*
X118991042Y44837366D01*
X118999713Y44835372D01*
X119009347Y44837552D01*
X119026782Y44839500D01*
X143972794Y44839500D01*
X143990498Y44837491D01*
G37*
%TD.AperFunction*%
%TA.AperFunction,NonConductor*%
G36*
X29990498Y44837491D02*
G01*
X29999713Y44835372D01*
X30008390Y44837336D01*
X30013848Y44837326D01*
X30025616Y44838382D01*
X30223325Y44829749D01*
X30418347Y44821234D01*
X30425212Y44820633D01*
X30836952Y44766427D01*
X30843740Y44765230D01*
X31249180Y44675346D01*
X31255837Y44673563D01*
X31651916Y44548679D01*
X31658392Y44546322D01*
X32042079Y44387395D01*
X32048325Y44384482D01*
X32416688Y44192724D01*
X32422657Y44189278D01*
X32772917Y43966137D01*
X32778562Y43962184D01*
X33108031Y43709374D01*
X33113311Y43704944D01*
X33419500Y43424373D01*
X33424373Y43419500D01*
X33704944Y43113311D01*
X33709374Y43108031D01*
X33962184Y42778562D01*
X33966137Y42772917D01*
X34189278Y42422657D01*
X34192724Y42416688D01*
X34384482Y42048325D01*
X34387395Y42042079D01*
X34546322Y41658392D01*
X34548679Y41651916D01*
X34673563Y41255837D01*
X34675346Y41249180D01*
X34764631Y40846444D01*
X34765230Y40843740D01*
X34766427Y40836952D01*
X34820633Y40425212D01*
X34821234Y40418347D01*
X34838364Y40026033D01*
X34837377Y40015255D01*
X34837366Y40008958D01*
X34835372Y40000287D01*
X34837336Y39991609D01*
X34837552Y39990653D01*
X34839500Y39973218D01*
X34839500Y25527206D01*
X34837491Y25509502D01*
X34835372Y25500287D01*
X34835437Y25500000D01*
X34835321Y25500000D01*
X34836642Y25488278D01*
X34839503Y25462884D01*
X34840000Y25454039D01*
X34840000Y19545969D01*
X34839871Y19541462D01*
X34839869Y19541427D01*
X34838073Y19537250D01*
X34839500Y19537089D01*
X34835321Y19500000D01*
X34835437Y19500000D01*
X34838129Y19488105D01*
X34837982Y19486804D01*
X34839500Y19473218D01*
X34839500Y5027206D01*
X34837491Y5009502D01*
X34835372Y5000287D01*
X34837336Y4991610D01*
X34837326Y4986152D01*
X34838382Y4974384D01*
X34836535Y4932081D01*
X34821234Y4581653D01*
X34820633Y4574788D01*
X34766427Y4163048D01*
X34765230Y4156262D01*
X34764618Y4153501D01*
X34675346Y3750820D01*
X34673563Y3744163D01*
X34548679Y3348084D01*
X34546322Y3341608D01*
X34387395Y2957921D01*
X34384482Y2951675D01*
X34192724Y2583312D01*
X34189278Y2577343D01*
X33966137Y2227083D01*
X33962184Y2221438D01*
X33709374Y1891969D01*
X33704944Y1886689D01*
X33424373Y1580500D01*
X33419500Y1575627D01*
X33113311Y1295056D01*
X33108031Y1290626D01*
X32778562Y1037816D01*
X32772917Y1033863D01*
X32422657Y810722D01*
X32416688Y807276D01*
X32048325Y615518D01*
X32042079Y612605D01*
X31658392Y453678D01*
X31651916Y451321D01*
X31255837Y326437D01*
X31249180Y324654D01*
X30843740Y234770D01*
X30836952Y233573D01*
X30425212Y179367D01*
X30418347Y178766D01*
X30242142Y171072D01*
X30026030Y161636D01*
X30015255Y162623D01*
X30008958Y162634D01*
X30000287Y164628D01*
X29990653Y162448D01*
X29973218Y160500D01*
X5027206Y160500D01*
X5009502Y162509D01*
X5000287Y164628D01*
X4991610Y162664D01*
X4986152Y162674D01*
X4974384Y161618D01*
X4776675Y170251D01*
X4581653Y178766D01*
X4574788Y179367D01*
X4163048Y233573D01*
X4156260Y234770D01*
X3750820Y324654D01*
X3744163Y326437D01*
X3348084Y451321D01*
X3341608Y453678D01*
X2957921Y612605D01*
X2951675Y615518D01*
X2583312Y807276D01*
X2577343Y810722D01*
X2227083Y1033863D01*
X2221438Y1037816D01*
X1891969Y1290626D01*
X1886689Y1295056D01*
X1580500Y1575627D01*
X1575627Y1580500D01*
X1295056Y1886689D01*
X1290626Y1891969D01*
X1037816Y2221438D01*
X1033863Y2227083D01*
X810722Y2577343D01*
X807276Y2583312D01*
X626468Y2930640D01*
X13339500Y2930640D01*
X13346735Y2831757D01*
X13396707Y2624408D01*
X13398181Y2621106D01*
X13398182Y2621102D01*
X13417711Y2577343D01*
X13483628Y2429638D01*
X13604587Y2253970D01*
X13755534Y2103286D01*
X13931413Y1982634D01*
X14126335Y1896053D01*
X14129860Y1895210D01*
X14129863Y1895209D01*
X14295883Y1855505D01*
X14333770Y1846444D01*
X14336982Y1846214D01*
X14336987Y1846213D01*
X14385640Y1842726D01*
X14430640Y1839500D01*
X15569360Y1839500D01*
X15668243Y1846735D01*
X15671382Y1847492D01*
X15671385Y1847492D01*
X15754210Y1867453D01*
X15875592Y1896707D01*
X15878894Y1898181D01*
X15878898Y1898182D01*
X16067055Y1982152D01*
X16067056Y1982153D01*
X16070362Y1983628D01*
X16241165Y2101237D01*
X16243049Y2102534D01*
X16243052Y2102536D01*
X16246030Y2104587D01*
X16396714Y2255534D01*
X16439087Y2317302D01*
X16515315Y2428423D01*
X16515316Y2428424D01*
X16517366Y2431413D01*
X16603947Y2626335D01*
X16653556Y2833770D01*
X16660500Y2930640D01*
X18339500Y2930640D01*
X18346735Y2831757D01*
X18396707Y2624408D01*
X18398181Y2621106D01*
X18398182Y2621102D01*
X18417711Y2577343D01*
X18483628Y2429638D01*
X18604587Y2253970D01*
X18755534Y2103286D01*
X18931413Y1982634D01*
X19126335Y1896053D01*
X19129860Y1895210D01*
X19129863Y1895209D01*
X19295883Y1855505D01*
X19333770Y1846444D01*
X19336982Y1846214D01*
X19336987Y1846213D01*
X19385640Y1842726D01*
X19430640Y1839500D01*
X20569360Y1839500D01*
X20668243Y1846735D01*
X20671382Y1847492D01*
X20671385Y1847492D01*
X20754210Y1867453D01*
X20875592Y1896707D01*
X20878894Y1898181D01*
X20878898Y1898182D01*
X21067055Y1982152D01*
X21067056Y1982153D01*
X21070362Y1983628D01*
X21241165Y2101237D01*
X21243049Y2102534D01*
X21243052Y2102536D01*
X21246030Y2104587D01*
X21396714Y2255534D01*
X21439087Y2317302D01*
X21515315Y2428423D01*
X21515316Y2428424D01*
X21517366Y2431413D01*
X21603947Y2626335D01*
X21653556Y2833770D01*
X21660500Y2930640D01*
X21660500Y3069360D01*
X21653265Y3168243D01*
X21603293Y3375592D01*
X21516372Y3570362D01*
X21455893Y3658196D01*
X21397466Y3743049D01*
X21397464Y3743052D01*
X21395413Y3746030D01*
X21244466Y3896714D01*
X21116227Y3984685D01*
X21071577Y4015315D01*
X21071576Y4015316D01*
X21068587Y4017366D01*
X20873665Y4103947D01*
X20870140Y4104790D01*
X20870137Y4104791D01*
X20669370Y4152805D01*
X20669371Y4152805D01*
X20666230Y4153556D01*
X20663018Y4153786D01*
X20663013Y4153787D01*
X20614360Y4157274D01*
X20569360Y4160500D01*
X19430640Y4160500D01*
X19331757Y4153265D01*
X19328618Y4152508D01*
X19328615Y4152508D01*
X19245790Y4132547D01*
X19124408Y4103293D01*
X19121106Y4101819D01*
X19121102Y4101818D01*
X18932945Y4017848D01*
X18929638Y4016372D01*
X18885066Y3985681D01*
X18756951Y3897466D01*
X18756948Y3897464D01*
X18753970Y3895413D01*
X18603286Y3744466D01*
X18560913Y3682698D01*
X18485897Y3573343D01*
X18482634Y3568587D01*
X18396053Y3373665D01*
X18346444Y3166230D01*
X18339500Y3069360D01*
X18339500Y2930640D01*
X16660500Y2930640D01*
X16660500Y3069360D01*
X16653265Y3168243D01*
X16603293Y3375592D01*
X16516372Y3570362D01*
X16455893Y3658196D01*
X16397466Y3743049D01*
X16397464Y3743052D01*
X16395413Y3746030D01*
X16244466Y3896714D01*
X16116227Y3984685D01*
X16071577Y4015315D01*
X16071576Y4015316D01*
X16068587Y4017366D01*
X15873665Y4103947D01*
X15870140Y4104790D01*
X15870137Y4104791D01*
X15669370Y4152805D01*
X15669371Y4152805D01*
X15666230Y4153556D01*
X15663018Y4153786D01*
X15663013Y4153787D01*
X15614360Y4157274D01*
X15569360Y4160500D01*
X14430640Y4160500D01*
X14331757Y4153265D01*
X14328618Y4152508D01*
X14328615Y4152508D01*
X14245790Y4132547D01*
X14124408Y4103293D01*
X14121106Y4101819D01*
X14121102Y4101818D01*
X13932945Y4017848D01*
X13929638Y4016372D01*
X13885066Y3985681D01*
X13756951Y3897466D01*
X13756948Y3897464D01*
X13753970Y3895413D01*
X13603286Y3744466D01*
X13560913Y3682698D01*
X13485897Y3573343D01*
X13482634Y3568587D01*
X13396053Y3373665D01*
X13346444Y3166230D01*
X13339500Y3069360D01*
X13339500Y2930640D01*
X626468Y2930640D01*
X615518Y2951675D01*
X612605Y2957921D01*
X453678Y3341608D01*
X451321Y3348084D01*
X326437Y3744163D01*
X324654Y3750820D01*
X235382Y4153501D01*
X234770Y4156262D01*
X233573Y4163048D01*
X179367Y4574788D01*
X178766Y4581653D01*
X163529Y4930640D01*
X16339500Y4930640D01*
X16346735Y4831757D01*
X16396707Y4624408D01*
X16398181Y4621106D01*
X16398182Y4621102D01*
X16481357Y4434727D01*
X16483628Y4429638D01*
X16604587Y4253970D01*
X16755534Y4103286D01*
X16758521Y4101237D01*
X16885225Y4014319D01*
X16931413Y3982634D01*
X17126335Y3896053D01*
X17129860Y3895210D01*
X17129863Y3895209D01*
X17295883Y3855505D01*
X17333770Y3846444D01*
X17336982Y3846214D01*
X17336987Y3846213D01*
X17385640Y3842726D01*
X17430640Y3839500D01*
X17569360Y3839500D01*
X17668243Y3846735D01*
X17671382Y3847492D01*
X17671385Y3847492D01*
X17754210Y3867453D01*
X17875592Y3896707D01*
X17878894Y3898181D01*
X17878898Y3898182D01*
X18067055Y3982152D01*
X18067056Y3982153D01*
X18070362Y3983628D01*
X18242963Y4102475D01*
X18243049Y4102534D01*
X18243052Y4102536D01*
X18246030Y4104587D01*
X18396714Y4255534D01*
X18439087Y4317302D01*
X18515315Y4428423D01*
X18515316Y4428424D01*
X18517366Y4431413D01*
X18603947Y4626335D01*
X18653556Y4833770D01*
X18660500Y4930640D01*
X18660500Y6069360D01*
X18653265Y6168243D01*
X18603293Y6375592D01*
X18516372Y6570362D01*
X18395413Y6746030D01*
X18244466Y6896714D01*
X18068587Y7017366D01*
X17873665Y7103947D01*
X17870140Y7104790D01*
X17870137Y7104791D01*
X17669370Y7152805D01*
X17669371Y7152805D01*
X17666230Y7153556D01*
X17663018Y7153786D01*
X17663013Y7153787D01*
X17614360Y7157274D01*
X17569360Y7160500D01*
X17430640Y7160500D01*
X17331757Y7153265D01*
X17328618Y7152508D01*
X17328615Y7152508D01*
X17245790Y7132547D01*
X17124408Y7103293D01*
X17121106Y7101819D01*
X17121102Y7101818D01*
X16932945Y7017848D01*
X16929638Y7016372D01*
X16841804Y6955892D01*
X16756951Y6897466D01*
X16756948Y6897464D01*
X16753970Y6895413D01*
X16603286Y6744466D01*
X16601237Y6741479D01*
X16485897Y6573343D01*
X16482634Y6568587D01*
X16396053Y6373665D01*
X16346444Y6166230D01*
X16339500Y6069360D01*
X16339500Y4930640D01*
X163529Y4930640D01*
X161646Y4973758D01*
X163202Y4990621D01*
X163106Y4990632D01*
X163594Y4994866D01*
X163610Y4995038D01*
X163618Y4995072D01*
X163618Y4995073D01*
X164627Y4999425D01*
X164628Y5000000D01*
X163635Y5004355D01*
X163634Y5004360D01*
X162478Y5009427D01*
X160500Y5026995D01*
X160500Y19430640D01*
X1839500Y19430640D01*
X1846735Y19331757D01*
X1896707Y19124408D01*
X1983628Y18929638D01*
X2104587Y18753970D01*
X2255534Y18603286D01*
X2431413Y18482634D01*
X2626335Y18396053D01*
X2629860Y18395210D01*
X2629863Y18395209D01*
X2795883Y18355505D01*
X2833770Y18346444D01*
X2836982Y18346214D01*
X2836987Y18346213D01*
X2885640Y18342726D01*
X2930640Y18339500D01*
X3069360Y18339500D01*
X3168243Y18346735D01*
X3171382Y18347492D01*
X3171385Y18347492D01*
X3254210Y18367453D01*
X3375592Y18396707D01*
X3378894Y18398181D01*
X3378898Y18398182D01*
X3567055Y18482152D01*
X3567056Y18482153D01*
X3570362Y18483628D01*
X3741165Y18601237D01*
X3743049Y18602534D01*
X3743052Y18602536D01*
X3746030Y18604587D01*
X3896714Y18755534D01*
X3939087Y18817302D01*
X4015315Y18928423D01*
X4015316Y18928424D01*
X4017366Y18931413D01*
X4103947Y19126335D01*
X4153556Y19333770D01*
X4160500Y19430640D01*
X4160500Y20569360D01*
X4153265Y20668243D01*
X4103293Y20875592D01*
X4016372Y21070362D01*
X3922652Y21206471D01*
X3897466Y21243049D01*
X3897464Y21243052D01*
X3895413Y21246030D01*
X3744466Y21396714D01*
X3616227Y21484685D01*
X3571577Y21515315D01*
X3571576Y21515316D01*
X3568587Y21517366D01*
X3373665Y21603947D01*
X3370140Y21604790D01*
X3370137Y21604791D01*
X3169370Y21652805D01*
X3169371Y21652805D01*
X3166230Y21653556D01*
X3163018Y21653786D01*
X3163013Y21653787D01*
X3114360Y21657274D01*
X3069360Y21660500D01*
X2930640Y21660500D01*
X2831757Y21653265D01*
X2828618Y21652508D01*
X2828615Y21652508D01*
X2745790Y21632547D01*
X2624408Y21603293D01*
X2621106Y21601819D01*
X2621102Y21601818D01*
X2432945Y21517848D01*
X2429638Y21516372D01*
X2385066Y21485681D01*
X2256951Y21397466D01*
X2256948Y21397464D01*
X2253970Y21395413D01*
X2251416Y21392854D01*
X2251413Y21392852D01*
X2206132Y21347492D01*
X2103286Y21244466D01*
X2101237Y21241479D01*
X1985897Y21073343D01*
X1982634Y21068587D01*
X1896053Y20873665D01*
X1846444Y20666230D01*
X1846214Y20663018D01*
X1846213Y20663013D01*
X1842726Y20614360D01*
X1839500Y20569360D01*
X1839500Y19430640D01*
X160500Y19430640D01*
X160500Y22430640D01*
X3839500Y22430640D01*
X3846735Y22331757D01*
X3847492Y22328618D01*
X3847492Y22328615D01*
X3867453Y22245790D01*
X3896707Y22124408D01*
X3898181Y22121106D01*
X3898182Y22121102D01*
X3969143Y21962095D01*
X3983628Y21929638D01*
X4104587Y21753970D01*
X4255534Y21603286D01*
X4258521Y21601237D01*
X4385225Y21514319D01*
X4431413Y21482634D01*
X4626335Y21396053D01*
X4629860Y21395210D01*
X4629863Y21395209D01*
X4795883Y21355505D01*
X4833770Y21346444D01*
X4836982Y21346214D01*
X4836987Y21346213D01*
X4885640Y21342726D01*
X4930640Y21339500D01*
X6069360Y21339500D01*
X6168243Y21346735D01*
X6171382Y21347492D01*
X6171385Y21347492D01*
X6285635Y21375027D01*
X6375592Y21396707D01*
X6378894Y21398181D01*
X6378898Y21398182D01*
X6567055Y21482152D01*
X6567056Y21482153D01*
X6570362Y21483628D01*
X6742963Y21602475D01*
X6743049Y21602534D01*
X6743052Y21602536D01*
X6746030Y21604587D01*
X6896714Y21755534D01*
X6944188Y21824739D01*
X7015315Y21928423D01*
X7015316Y21928424D01*
X7017366Y21931413D01*
X7103947Y22126335D01*
X7153556Y22333770D01*
X7160500Y22430640D01*
X7160500Y22569360D01*
X7153265Y22668243D01*
X7142812Y22711618D01*
X7113702Y22832400D01*
X7103293Y22875592D01*
X7082458Y22922280D01*
X7017848Y23067055D01*
X7017847Y23067056D01*
X7016372Y23070362D01*
X6895413Y23246030D01*
X6744466Y23396714D01*
X6657241Y23456550D01*
X6571577Y23515315D01*
X6571576Y23515316D01*
X6568587Y23517366D01*
X6373665Y23603947D01*
X6370140Y23604790D01*
X6370137Y23604791D01*
X6169370Y23652805D01*
X6169371Y23652805D01*
X6166230Y23653556D01*
X6163018Y23653786D01*
X6163013Y23653787D01*
X6114360Y23657274D01*
X6069360Y23660500D01*
X4930640Y23660500D01*
X4831757Y23653265D01*
X4828618Y23652508D01*
X4828615Y23652508D01*
X4745790Y23632547D01*
X4624408Y23603293D01*
X4621106Y23601819D01*
X4621102Y23601818D01*
X4432945Y23517848D01*
X4429638Y23516372D01*
X4385066Y23485681D01*
X4256951Y23397466D01*
X4256948Y23397464D01*
X4253970Y23395413D01*
X4103286Y23244466D01*
X4101237Y23241479D01*
X3985897Y23073343D01*
X3982634Y23068587D01*
X3981162Y23065273D01*
X3914241Y22914611D01*
X3896053Y22873665D01*
X3846444Y22666230D01*
X3839500Y22569360D01*
X3839500Y22430640D01*
X160500Y22430640D01*
X160500Y24430640D01*
X1839500Y24430640D01*
X1846735Y24331757D01*
X1847492Y24328618D01*
X1847492Y24328615D01*
X1867453Y24245790D01*
X1896707Y24124408D01*
X1983628Y23929638D01*
X1985681Y23926657D01*
X2081221Y23787905D01*
X2104587Y23753970D01*
X2107146Y23751416D01*
X2107148Y23751413D01*
X2163367Y23695292D01*
X2255534Y23603286D01*
X2258521Y23601237D01*
X2385225Y23514319D01*
X2431413Y23482634D01*
X2626335Y23396053D01*
X2629860Y23395210D01*
X2629863Y23395209D01*
X2795883Y23355505D01*
X2833770Y23346444D01*
X2836982Y23346214D01*
X2836987Y23346213D01*
X2885640Y23342726D01*
X2930640Y23339500D01*
X3069360Y23339500D01*
X3168243Y23346735D01*
X3171382Y23347492D01*
X3171385Y23347492D01*
X3254210Y23367453D01*
X3375592Y23396707D01*
X3378894Y23398181D01*
X3378898Y23398182D01*
X3567055Y23482152D01*
X3567056Y23482153D01*
X3570362Y23483628D01*
X3658196Y23544108D01*
X3743049Y23602534D01*
X3743052Y23602536D01*
X3746030Y23604587D01*
X3766381Y23624973D01*
X3888652Y23747458D01*
X3896714Y23755534D01*
X4013146Y23925261D01*
X4015315Y23928423D01*
X4015316Y23928424D01*
X4017366Y23931413D01*
X4103947Y24126335D01*
X4153556Y24333770D01*
X4156514Y24375027D01*
X4159565Y24417600D01*
X4160500Y24430640D01*
X4160500Y25569360D01*
X4153265Y25668243D01*
X4148265Y25688992D01*
X4132547Y25754210D01*
X4103293Y25875592D01*
X4084460Y25917794D01*
X4017848Y26067055D01*
X4017847Y26067056D01*
X4016372Y26070362D01*
X3895413Y26246030D01*
X3744466Y26396714D01*
X3568587Y26517366D01*
X3373665Y26603947D01*
X3370140Y26604790D01*
X3370137Y26604791D01*
X3169370Y26652805D01*
X3169371Y26652805D01*
X3166230Y26653556D01*
X3163018Y26653786D01*
X3163013Y26653787D01*
X3114360Y26657274D01*
X3069360Y26660500D01*
X2930640Y26660500D01*
X2831757Y26653265D01*
X2828618Y26652508D01*
X2828615Y26652508D01*
X2745790Y26632547D01*
X2624408Y26603293D01*
X2621106Y26601819D01*
X2621102Y26601818D01*
X2432945Y26517848D01*
X2429638Y26516372D01*
X2341804Y26455892D01*
X2256951Y26397466D01*
X2256948Y26397464D01*
X2253970Y26395413D01*
X2103286Y26244466D01*
X2101237Y26241479D01*
X1985897Y26073343D01*
X1982634Y26068587D01*
X1896053Y25873665D01*
X1846444Y25666230D01*
X1839500Y25569360D01*
X1839500Y24430640D01*
X160500Y24430640D01*
X160500Y34570000D01*
X5960000Y34570000D01*
X5966735Y34563270D01*
X14551931Y25984445D01*
X14574787Y25935478D01*
X14573449Y25912543D01*
X14566084Y25876979D01*
X14527154Y25688992D01*
X14496399Y25344392D01*
X14498825Y25251751D01*
X14503382Y25077720D01*
X14505455Y24998541D01*
X14505774Y24996296D01*
X14505775Y24996290D01*
X14550595Y24681376D01*
X14554203Y24656023D01*
X14641995Y24321378D01*
X14767669Y23999041D01*
X14768730Y23997037D01*
X14768731Y23997035D01*
X14900876Y23747458D01*
X14929559Y23693285D01*
X15125518Y23408163D01*
X15127013Y23406449D01*
X15127014Y23406448D01*
X15328692Y23175261D01*
X15352950Y23147453D01*
X15608839Y22914611D01*
X15889795Y22712724D01*
X16192094Y22544466D01*
X16194183Y22543601D01*
X16194199Y22543593D01*
X16271232Y22511685D01*
X16311074Y22475177D01*
X16320000Y22438699D01*
X16320000Y10549998D01*
X18679999Y10549998D01*
X18679999Y19430640D01*
X30839500Y19430640D01*
X30846735Y19331757D01*
X30896707Y19124408D01*
X30983628Y18929638D01*
X31104587Y18753970D01*
X31255534Y18603286D01*
X31431413Y18482634D01*
X31626335Y18396053D01*
X31629860Y18395210D01*
X31629863Y18395209D01*
X31795883Y18355505D01*
X31833770Y18346444D01*
X31836982Y18346214D01*
X31836987Y18346213D01*
X31885640Y18342726D01*
X31930640Y18339500D01*
X32069360Y18339500D01*
X32168243Y18346735D01*
X32171382Y18347492D01*
X32171385Y18347492D01*
X32254210Y18367453D01*
X32375592Y18396707D01*
X32378894Y18398181D01*
X32378898Y18398182D01*
X32567055Y18482152D01*
X32567056Y18482153D01*
X32570362Y18483628D01*
X32741165Y18601237D01*
X32743049Y18602534D01*
X32743052Y18602536D01*
X32746030Y18604587D01*
X32896714Y18755534D01*
X32939087Y18817302D01*
X33015315Y18928423D01*
X33015316Y18928424D01*
X33017366Y18931413D01*
X33103947Y19126335D01*
X33153556Y19333770D01*
X33160500Y19430640D01*
X33160500Y20569360D01*
X33153265Y20668243D01*
X33103293Y20875592D01*
X33016372Y21070362D01*
X32922652Y21206471D01*
X32897466Y21243049D01*
X32897464Y21243052D01*
X32895413Y21246030D01*
X32744466Y21396714D01*
X32616227Y21484685D01*
X32571577Y21515315D01*
X32571576Y21515316D01*
X32568587Y21517366D01*
X32373665Y21603947D01*
X32370140Y21604790D01*
X32370137Y21604791D01*
X32169370Y21652805D01*
X32169371Y21652805D01*
X32166230Y21653556D01*
X32163018Y21653786D01*
X32163013Y21653787D01*
X32114360Y21657274D01*
X32069360Y21660500D01*
X31930640Y21660500D01*
X31831757Y21653265D01*
X31828618Y21652508D01*
X31828615Y21652508D01*
X31745790Y21632547D01*
X31624408Y21603293D01*
X31621106Y21601819D01*
X31621102Y21601818D01*
X31432945Y21517848D01*
X31429638Y21516372D01*
X31385066Y21485681D01*
X31256951Y21397466D01*
X31256948Y21397464D01*
X31253970Y21395413D01*
X31251416Y21392854D01*
X31251413Y21392852D01*
X31206132Y21347492D01*
X31103286Y21244466D01*
X31101237Y21241479D01*
X30985897Y21073343D01*
X30982634Y21068587D01*
X30896053Y20873665D01*
X30846444Y20666230D01*
X30846214Y20663018D01*
X30846213Y20663013D01*
X30842726Y20614360D01*
X30839500Y20569360D01*
X30839500Y19430640D01*
X18679999Y19430640D01*
X18679999Y22430640D01*
X27839500Y22430640D01*
X27846735Y22331757D01*
X27847492Y22328618D01*
X27847492Y22328615D01*
X27867453Y22245790D01*
X27896707Y22124408D01*
X27898181Y22121106D01*
X27898182Y22121102D01*
X27969143Y21962095D01*
X27983628Y21929638D01*
X28104587Y21753970D01*
X28255534Y21603286D01*
X28258521Y21601237D01*
X28385225Y21514319D01*
X28431413Y21482634D01*
X28626335Y21396053D01*
X28629860Y21395210D01*
X28629863Y21395209D01*
X28795883Y21355505D01*
X28833770Y21346444D01*
X28836982Y21346214D01*
X28836987Y21346213D01*
X28885640Y21342726D01*
X28930640Y21339500D01*
X30069360Y21339500D01*
X30168243Y21346735D01*
X30171382Y21347492D01*
X30171385Y21347492D01*
X30285635Y21375027D01*
X30375592Y21396707D01*
X30378894Y21398181D01*
X30378898Y21398182D01*
X30567055Y21482152D01*
X30567056Y21482153D01*
X30570362Y21483628D01*
X30742963Y21602475D01*
X30743049Y21602534D01*
X30743052Y21602536D01*
X30746030Y21604587D01*
X30896714Y21755534D01*
X30944188Y21824739D01*
X31015315Y21928423D01*
X31015316Y21928424D01*
X31017366Y21931413D01*
X31103947Y22126335D01*
X31153556Y22333770D01*
X31160500Y22430640D01*
X31160500Y22569360D01*
X31153265Y22668243D01*
X31142812Y22711618D01*
X31113702Y22832400D01*
X31103293Y22875592D01*
X31082458Y22922280D01*
X31017848Y23067055D01*
X31017847Y23067056D01*
X31016372Y23070362D01*
X30895413Y23246030D01*
X30744466Y23396714D01*
X30657241Y23456550D01*
X30571577Y23515315D01*
X30571576Y23515316D01*
X30568587Y23517366D01*
X30373665Y23603947D01*
X30370140Y23604790D01*
X30370137Y23604791D01*
X30169370Y23652805D01*
X30169371Y23652805D01*
X30166230Y23653556D01*
X30163018Y23653786D01*
X30163013Y23653787D01*
X30114360Y23657274D01*
X30069360Y23660500D01*
X28930640Y23660500D01*
X28831757Y23653265D01*
X28828618Y23652508D01*
X28828615Y23652508D01*
X28745790Y23632547D01*
X28624408Y23603293D01*
X28621106Y23601819D01*
X28621102Y23601818D01*
X28432945Y23517848D01*
X28429638Y23516372D01*
X28385066Y23485681D01*
X28256951Y23397466D01*
X28256948Y23397464D01*
X28253970Y23395413D01*
X28103286Y23244466D01*
X28101237Y23241479D01*
X27985897Y23073343D01*
X27982634Y23068587D01*
X27981162Y23065273D01*
X27914241Y22914611D01*
X27896053Y22873665D01*
X27846444Y22666230D01*
X27839500Y22569360D01*
X27839500Y22430640D01*
X18679999Y22430640D01*
X18679999Y22439960D01*
X18698481Y22490740D01*
X18727244Y22512296D01*
X18864280Y22572451D01*
X18868196Y22574739D01*
X19033585Y22671385D01*
X19162988Y22747002D01*
X19276728Y22832400D01*
X19437830Y22953358D01*
X19437838Y22953365D01*
X19439655Y22954729D01*
X19441302Y22956292D01*
X19441308Y22956297D01*
X19688958Y23191308D01*
X19688962Y23191312D01*
X19690612Y23192878D01*
X19860330Y23395859D01*
X19911076Y23456550D01*
X19911078Y23456552D01*
X19912534Y23458294D01*
X19915031Y23462095D01*
X20101230Y23745556D01*
X20101233Y23745561D01*
X20102479Y23747458D01*
X20193495Y23928423D01*
X20256904Y24054496D01*
X20256907Y24054503D01*
X20257930Y24056537D01*
X20376826Y24381435D01*
X20388639Y24430640D01*
X30839500Y24430640D01*
X30846735Y24331757D01*
X30847492Y24328618D01*
X30847492Y24328615D01*
X30867453Y24245790D01*
X30896707Y24124408D01*
X30983628Y23929638D01*
X30985681Y23926657D01*
X31081221Y23787905D01*
X31104587Y23753970D01*
X31107146Y23751416D01*
X31107148Y23751413D01*
X31163367Y23695292D01*
X31255534Y23603286D01*
X31258521Y23601237D01*
X31385225Y23514319D01*
X31431413Y23482634D01*
X31626335Y23396053D01*
X31629860Y23395210D01*
X31629863Y23395209D01*
X31795883Y23355505D01*
X31833770Y23346444D01*
X31836982Y23346214D01*
X31836987Y23346213D01*
X31885640Y23342726D01*
X31930640Y23339500D01*
X32069360Y23339500D01*
X32168243Y23346735D01*
X32171382Y23347492D01*
X32171385Y23347492D01*
X32254210Y23367453D01*
X32375592Y23396707D01*
X32378894Y23398181D01*
X32378898Y23398182D01*
X32567055Y23482152D01*
X32567056Y23482153D01*
X32570362Y23483628D01*
X32658196Y23544108D01*
X32743049Y23602534D01*
X32743052Y23602536D01*
X32746030Y23604587D01*
X32766381Y23624973D01*
X32888652Y23747458D01*
X32896714Y23755534D01*
X33013146Y23925261D01*
X33015315Y23928423D01*
X33015316Y23928424D01*
X33017366Y23931413D01*
X33103947Y24126335D01*
X33153556Y24333770D01*
X33156514Y24375027D01*
X33159565Y24417600D01*
X33160500Y24430640D01*
X33160500Y25569360D01*
X33153265Y25668243D01*
X33148265Y25688992D01*
X33132547Y25754210D01*
X33103293Y25875592D01*
X33084460Y25917794D01*
X33017848Y26067055D01*
X33017847Y26067056D01*
X33016372Y26070362D01*
X32895413Y26246030D01*
X32744466Y26396714D01*
X32568587Y26517366D01*
X32373665Y26603947D01*
X32370140Y26604790D01*
X32370137Y26604791D01*
X32169370Y26652805D01*
X32169371Y26652805D01*
X32166230Y26653556D01*
X32163018Y26653786D01*
X32163013Y26653787D01*
X32114360Y26657274D01*
X32069360Y26660500D01*
X31930640Y26660500D01*
X31831757Y26653265D01*
X31828618Y26652508D01*
X31828615Y26652508D01*
X31745790Y26632547D01*
X31624408Y26603293D01*
X31621106Y26601819D01*
X31621102Y26601818D01*
X31432945Y26517848D01*
X31429638Y26516372D01*
X31341804Y26455892D01*
X31256951Y26397466D01*
X31256948Y26397464D01*
X31253970Y26395413D01*
X31103286Y26244466D01*
X31101237Y26241479D01*
X30985897Y26073343D01*
X30982634Y26068587D01*
X30896053Y25873665D01*
X30846444Y25666230D01*
X30839500Y25569360D01*
X30839500Y24430640D01*
X20388639Y24430640D01*
X20457590Y24717845D01*
X20499154Y25061309D01*
X20505084Y25250000D01*
X20485169Y25595396D01*
X20428901Y25917794D01*
X20438378Y25970996D01*
X20450884Y25987259D01*
X20862694Y26398763D01*
X29040000Y34570000D01*
X27365000Y36245000D01*
X19030097Y27901648D01*
X19027903Y27899452D01*
X18978938Y27876589D01*
X18935780Y27885084D01*
X18724293Y27994241D01*
X18722278Y27995281D01*
X18720160Y27996081D01*
X18720154Y27996084D01*
X18400777Y28116766D01*
X18400771Y28116768D01*
X18398643Y28117572D01*
X18396441Y28118125D01*
X18396435Y28118127D01*
X18065300Y28201303D01*
X18065294Y28201304D01*
X18063097Y28201856D01*
X18060844Y28202153D01*
X18060842Y28202153D01*
X17943486Y28217603D01*
X17720087Y28247014D01*
X17717809Y28247050D01*
X17717806Y28247050D01*
X17495408Y28250543D01*
X17374160Y28252448D01*
X17371887Y28252221D01*
X17371884Y28252221D01*
X17032163Y28218312D01*
X17032159Y28218311D01*
X17029901Y28218086D01*
X16691873Y28144384D01*
X16511498Y28082628D01*
X16366706Y28033055D01*
X16366702Y28033054D01*
X16364557Y28032319D01*
X16362507Y28031341D01*
X16362504Y28031340D01*
X16058223Y27886205D01*
X16004433Y27881025D01*
X15968352Y27901648D01*
X7630000Y36240000D01*
X5960000Y34570000D01*
X160500Y34570000D01*
X160500Y39972583D01*
X162540Y39990421D01*
X163617Y39995069D01*
X164627Y39999425D01*
X164628Y40000000D01*
X163531Y40004807D01*
X163307Y40007288D01*
X163138Y40008797D01*
X163170Y40008801D01*
X161627Y40025824D01*
X178766Y40418347D01*
X179367Y40425212D01*
X233573Y40836952D01*
X234770Y40843740D01*
X235370Y40846444D01*
X324654Y41249180D01*
X326437Y41255837D01*
X451321Y41651916D01*
X453678Y41658392D01*
X566446Y41930640D01*
X9839500Y41930640D01*
X9846735Y41831757D01*
X9896707Y41624408D01*
X9983628Y41429638D01*
X9985681Y41426657D01*
X10094988Y41267911D01*
X10104587Y41253970D01*
X10255534Y41103286D01*
X10431413Y40982634D01*
X10626335Y40896053D01*
X10629860Y40895210D01*
X10629863Y40895209D01*
X10795883Y40855505D01*
X10833770Y40846444D01*
X10836982Y40846214D01*
X10836987Y40846213D01*
X10885640Y40842726D01*
X10930640Y40839500D01*
X12069360Y40839500D01*
X12168243Y40846735D01*
X12171382Y40847492D01*
X12171385Y40847492D01*
X12254210Y40867453D01*
X12375592Y40896707D01*
X12378894Y40898181D01*
X12378898Y40898182D01*
X12567055Y40982152D01*
X12567056Y40982153D01*
X12570362Y40983628D01*
X12741165Y41101237D01*
X12743049Y41102534D01*
X12743052Y41102536D01*
X12746030Y41104587D01*
X12896714Y41255534D01*
X12939087Y41317302D01*
X13015315Y41428423D01*
X13015316Y41428424D01*
X13017366Y41431413D01*
X13103947Y41626335D01*
X13153556Y41833770D01*
X13160500Y41930640D01*
X21839500Y41930640D01*
X21846735Y41831757D01*
X21896707Y41624408D01*
X21983628Y41429638D01*
X21985681Y41426657D01*
X22094988Y41267911D01*
X22104587Y41253970D01*
X22255534Y41103286D01*
X22431413Y40982634D01*
X22626335Y40896053D01*
X22629860Y40895210D01*
X22629863Y40895209D01*
X22795883Y40855505D01*
X22833770Y40846444D01*
X22836982Y40846214D01*
X22836987Y40846213D01*
X22885640Y40842726D01*
X22930640Y40839500D01*
X24069360Y40839500D01*
X24168243Y40846735D01*
X24171382Y40847492D01*
X24171385Y40847492D01*
X24254210Y40867453D01*
X24375592Y40896707D01*
X24378894Y40898181D01*
X24378898Y40898182D01*
X24567055Y40982152D01*
X24567056Y40982153D01*
X24570362Y40983628D01*
X24741165Y41101237D01*
X24743049Y41102534D01*
X24743052Y41102536D01*
X24746030Y41104587D01*
X24896714Y41255534D01*
X24939087Y41317302D01*
X25015315Y41428423D01*
X25015316Y41428424D01*
X25017366Y41431413D01*
X25103947Y41626335D01*
X25153556Y41833770D01*
X25160500Y41930640D01*
X25160500Y42069360D01*
X25153265Y42168243D01*
X25103293Y42375592D01*
X25083587Y42419750D01*
X25017848Y42567055D01*
X25017847Y42567056D01*
X25016372Y42570362D01*
X24895413Y42746030D01*
X24744466Y42896714D01*
X24568587Y43017366D01*
X24373665Y43103947D01*
X24370140Y43104790D01*
X24370137Y43104791D01*
X24169370Y43152805D01*
X24169371Y43152805D01*
X24166230Y43153556D01*
X24163018Y43153786D01*
X24163013Y43153787D01*
X24114360Y43157274D01*
X24069360Y43160500D01*
X22930640Y43160500D01*
X22831757Y43153265D01*
X22828618Y43152508D01*
X22828615Y43152508D01*
X22745790Y43132547D01*
X22624408Y43103293D01*
X22621106Y43101819D01*
X22621102Y43101818D01*
X22432945Y43017848D01*
X22429638Y43016372D01*
X22341804Y42955892D01*
X22256951Y42897466D01*
X22256948Y42897464D01*
X22253970Y42895413D01*
X22103286Y42744466D01*
X22101237Y42741479D01*
X21985897Y42573343D01*
X21982634Y42568587D01*
X21896053Y42373665D01*
X21846444Y42166230D01*
X21839500Y42069360D01*
X21839500Y41930640D01*
X13160500Y41930640D01*
X13160500Y42069360D01*
X13153265Y42168243D01*
X13103293Y42375592D01*
X13083587Y42419750D01*
X13017848Y42567055D01*
X13017847Y42567056D01*
X13016372Y42570362D01*
X12895413Y42746030D01*
X12744466Y42896714D01*
X12568587Y43017366D01*
X12373665Y43103947D01*
X12370140Y43104790D01*
X12370137Y43104791D01*
X12169370Y43152805D01*
X12169371Y43152805D01*
X12166230Y43153556D01*
X12163018Y43153786D01*
X12163013Y43153787D01*
X12114360Y43157274D01*
X12069360Y43160500D01*
X10930640Y43160500D01*
X10831757Y43153265D01*
X10828618Y43152508D01*
X10828615Y43152508D01*
X10745790Y43132547D01*
X10624408Y43103293D01*
X10621106Y43101819D01*
X10621102Y43101818D01*
X10432945Y43017848D01*
X10429638Y43016372D01*
X10341804Y42955892D01*
X10256951Y42897466D01*
X10256948Y42897464D01*
X10253970Y42895413D01*
X10103286Y42744466D01*
X10101237Y42741479D01*
X9985897Y42573343D01*
X9982634Y42568587D01*
X9896053Y42373665D01*
X9846444Y42166230D01*
X9839500Y42069360D01*
X9839500Y41930640D01*
X566446Y41930640D01*
X612605Y42042079D01*
X615518Y42048325D01*
X807276Y42416688D01*
X810722Y42422657D01*
X1033863Y42772917D01*
X1037816Y42778562D01*
X1290626Y43108031D01*
X1295056Y43113311D01*
X1575627Y43419500D01*
X1580500Y43424373D01*
X1886689Y43704944D01*
X1891969Y43709374D01*
X2221438Y43962184D01*
X2227083Y43966137D01*
X2577343Y44189278D01*
X2583312Y44192724D01*
X2951675Y44384482D01*
X2957921Y44387395D01*
X3341608Y44546322D01*
X3348084Y44548679D01*
X3744163Y44673563D01*
X3750820Y44675346D01*
X4156260Y44765230D01*
X4163048Y44766427D01*
X4574788Y44820633D01*
X4581653Y44821234D01*
X4757858Y44828928D01*
X4973970Y44838364D01*
X4984745Y44837377D01*
X4991042Y44837366D01*
X4999713Y44835372D01*
X5009347Y44837552D01*
X5026782Y44839500D01*
X29972794Y44839500D01*
X29990498Y44837491D01*
G37*
%TD.AperFunction*%
M02*
