%TF.GenerationSoftware,KiCad,Pcbnew,(6.0.4-0)*%
%TF.CreationDate,2022-05-06T03:23:40+03:00*%
%TF.ProjectId,Flux_Capacitor_Mini,466c7578-5f43-4617-9061-6369746f725f,4*%
%TF.SameCoordinates,PX55d4a80PY7270e00*%
%TF.FileFunction,AssemblyDrawing,Bot*%
%FSLAX46Y46*%
G04 Gerber Fmt 4.6, Leading zero omitted, Abs format (unit mm)*
G04 Created by KiCad (PCBNEW (6.0.4-0)) date 2022-05-06 03:23:40*
%MOMM*%
%LPD*%
G01*
G04 APERTURE LIST*
%ADD10C,0.050000*%
%ADD11C,0.100000*%
%ADD12C,0.200000*%
%ADD13C,0.150000*%
%ADD14C,0.070000*%
G04 APERTURE END LIST*
D10*
X93728571Y35164286D02*
X93728571Y34921429D01*
X93714285Y34892858D01*
X93700000Y34878572D01*
X93671428Y34864286D01*
X93614285Y34864286D01*
X93585714Y34878572D01*
X93571428Y34892858D01*
X93557142Y34921429D01*
X93557142Y35164286D01*
X93257142Y34864286D02*
X93428571Y34864286D01*
X93342857Y34864286D02*
X93342857Y35164286D01*
X93371428Y35121429D01*
X93400000Y35092858D01*
X93428571Y35078572D01*
D11*
X93921428Y21042858D02*
X93835714Y21014286D01*
X93807142Y20985715D01*
X93778571Y20928572D01*
X93778571Y20842858D01*
X93807142Y20785715D01*
X93835714Y20757143D01*
X93892857Y20728572D01*
X94121428Y20728572D01*
X94121428Y21328572D01*
X93921428Y21328572D01*
X93864285Y21300000D01*
X93835714Y21271429D01*
X93807142Y21214286D01*
X93807142Y21157143D01*
X93835714Y21100000D01*
X93864285Y21071429D01*
X93921428Y21042858D01*
X94121428Y21042858D01*
X93607142Y21328572D02*
X93264285Y21328572D01*
X93435714Y20728572D02*
X93435714Y21328572D01*
X92750000Y20728572D02*
X93092857Y20728572D01*
X92921428Y20728572D02*
X92921428Y21328572D01*
X92978571Y21242858D01*
X93035714Y21185715D01*
X93092857Y21157143D01*
D10*
X93728571Y40164286D02*
X93728571Y39921429D01*
X93714285Y39892858D01*
X93700000Y39878572D01*
X93671428Y39864286D01*
X93614285Y39864286D01*
X93585714Y39878572D01*
X93571428Y39892858D01*
X93557142Y39921429D01*
X93557142Y40164286D01*
X93428571Y40135715D02*
X93414285Y40150000D01*
X93385714Y40164286D01*
X93314285Y40164286D01*
X93285714Y40150000D01*
X93271428Y40135715D01*
X93257142Y40107143D01*
X93257142Y40078572D01*
X93271428Y40035715D01*
X93442857Y39864286D01*
X93257142Y39864286D01*
D11*
X95000000Y36500000D02*
X92000000Y36500000D01*
X95000000Y33500000D02*
X95000000Y36500000D01*
X92000000Y33500000D02*
X95000000Y33500000D01*
X92000000Y36500000D02*
X92000000Y33500000D01*
D12*
X92600000Y36000000D02*
G75*
G03*
X92600000Y36000000I-100000J0D01*
G01*
D11*
X98250000Y15590000D02*
X95280000Y15590000D01*
D13*
X94000000Y16000000D02*
X93000000Y16000000D01*
D11*
X98250000Y16410000D02*
X95280000Y16410000D01*
X88750000Y17980000D02*
X91720000Y17980000D01*
X88750000Y16410000D02*
X91720000Y16410000D01*
X93500000Y29410000D02*
X93500000Y28410000D01*
X91720000Y17980000D02*
X91720000Y14020000D01*
X95280000Y17980000D02*
X95280000Y14020000D01*
X94000000Y28910000D02*
X93000000Y28910000D01*
X95280000Y17980000D02*
X91720000Y17980000D01*
X88750000Y14020000D02*
X91720000Y14020000D01*
X91450000Y15555000D02*
X91450000Y14055000D01*
X88750000Y15590000D02*
X91720000Y15590000D01*
X95550000Y16445000D02*
X95550000Y17945000D01*
X91450000Y17945000D02*
X91450000Y16445000D01*
X98250000Y17980000D02*
X95280000Y17980000D01*
X95255000Y27450000D02*
X91755000Y27450000D01*
X95550000Y14055000D02*
X95550000Y15555000D01*
X95280000Y14020000D02*
X91720000Y14020000D01*
X95105000Y30650000D02*
X91895000Y30650000D01*
X98250000Y14020000D02*
X95280000Y14020000D01*
X95255000Y27170000D02*
X95255000Y30500000D01*
X91745000Y30500000D02*
X91745000Y27170000D01*
X95255000Y27170000D02*
X91745000Y27170000D01*
X91745000Y27170000D02*
X91745000Y25470000D01*
X91745000Y25470000D02*
X95255000Y25470000D01*
X95255000Y25470000D02*
X95255000Y27170000D01*
X91895000Y30650000D02*
G75*
G03*
X91745000Y30500000I0J-150000D01*
G01*
X95255000Y30500000D02*
G75*
G03*
X95105000Y30650000I-150000J0D01*
G01*
X89150000Y17195000D02*
G75*
G03*
X89150000Y17195000I-400000J0D01*
G01*
X98650000Y14805000D02*
G75*
G03*
X98650000Y14805000I-400000J0D01*
G01*
X98650000Y17195000D02*
G75*
G03*
X98650000Y17195000I-400000J0D01*
G01*
X89535000Y17195000D02*
G75*
G03*
X89535000Y17195000I-785000J0D01*
G01*
X99035000Y14805000D02*
G75*
G03*
X99035000Y14805000I-785000J0D01*
G01*
X89150000Y14805000D02*
G75*
G03*
X89150000Y14805000I-400000J0D01*
G01*
X99035000Y17195000D02*
G75*
G03*
X99035000Y17195000I-785000J0D01*
G01*
X89535000Y14805000D02*
G75*
G03*
X89535000Y14805000I-785000J0D01*
G01*
X91750000Y39500000D02*
X91750000Y40500000D01*
D14*
X91500000Y40050000D02*
X91500000Y40150000D01*
X91500000Y39850000D02*
X91500000Y39950000D01*
D11*
X91250000Y39500000D02*
X91750000Y39500000D01*
X91250000Y40500000D02*
X91250000Y39500000D01*
D14*
X91600000Y39950000D02*
X91400000Y39950000D01*
D11*
X91750000Y39700000D02*
X91250000Y39700000D01*
D14*
X91600000Y40050000D02*
X91400000Y40050000D01*
D11*
X91750000Y40300000D02*
X91250000Y40300000D01*
X91750000Y40500000D02*
X91250000Y40500000D01*
X94770000Y42115000D02*
X92230000Y42115000D01*
X92230000Y43385000D02*
X94770000Y43385000D01*
X94770000Y42115000D02*
G75*
G03*
X94770000Y43385000I0J635000D01*
G01*
X92230000Y43385000D02*
G75*
G03*
X92230000Y42115000I0J-635000D01*
G01*
D10*
X89625000Y39925000D02*
X89375000Y39975000D01*
X89625000Y40025000D02*
X89375000Y40075000D01*
D11*
X89230000Y40525000D02*
X89230000Y39475000D01*
D10*
X89500000Y40175000D02*
X89500000Y40125000D01*
X89625000Y39925000D02*
X89500000Y39875000D01*
D11*
X89230000Y39475000D02*
X89770000Y39475000D01*
X89770000Y40310000D02*
X89230000Y40310000D01*
D10*
X89625000Y40025000D02*
X89375000Y39975000D01*
D11*
X89770000Y39475000D02*
X89770000Y40525000D01*
X89770000Y39690000D02*
X89230000Y39690000D01*
D10*
X89500000Y40125000D02*
X89375000Y40075000D01*
X89500000Y39875000D02*
X89500000Y39825000D01*
D11*
X89770000Y40525000D02*
X89230000Y40525000D01*
D10*
X91325000Y37875000D02*
X91275000Y37625000D01*
X91225000Y37875000D02*
X91175000Y37625000D01*
X91125000Y37750000D02*
X91175000Y37625000D01*
X91225000Y37875000D02*
X91275000Y37625000D01*
X91075000Y37750000D02*
X91125000Y37750000D01*
D11*
X90725000Y38020000D02*
X90725000Y37480000D01*
X91775000Y38020000D02*
X90725000Y38020000D01*
D10*
X91325000Y37875000D02*
X91375000Y37750000D01*
D11*
X90725000Y37480000D02*
X91775000Y37480000D01*
X90940000Y38020000D02*
X90940000Y37480000D01*
X91775000Y37480000D02*
X91775000Y38020000D01*
X91560000Y38020000D02*
X91560000Y37480000D01*
D10*
X91375000Y37750000D02*
X91425000Y37750000D01*
D11*
X94500000Y39000000D02*
X94500000Y41000000D01*
X92500000Y41000000D02*
X92500000Y39000000D01*
X92500000Y39000000D02*
X94500000Y39000000D01*
X94500000Y41000000D02*
X92500000Y41000000D01*
D12*
X92900000Y39350000D02*
G75*
G03*
X92900000Y39350000I-50000J0D01*
G01*
D11*
X96230000Y39475000D02*
X96770000Y39475000D01*
X96770000Y40310000D02*
X96230000Y40310000D01*
D10*
X96625000Y39925000D02*
X96375000Y39975000D01*
X96625000Y40025000D02*
X96375000Y40075000D01*
X96500000Y40125000D02*
X96375000Y40075000D01*
X96500000Y39875000D02*
X96500000Y39825000D01*
D11*
X96770000Y39690000D02*
X96230000Y39690000D01*
D10*
X96625000Y40025000D02*
X96375000Y39975000D01*
D11*
X96230000Y40525000D02*
X96230000Y39475000D01*
X96770000Y39475000D02*
X96770000Y40525000D01*
D10*
X96625000Y39925000D02*
X96500000Y39875000D01*
D11*
X96770000Y40525000D02*
X96230000Y40525000D01*
D10*
X96500000Y40175000D02*
X96500000Y40125000D01*
D11*
X90250000Y40500000D02*
X90250000Y39500000D01*
X90250000Y39500000D02*
X90750000Y39500000D01*
X90750000Y40300000D02*
X90250000Y40300000D01*
D14*
X90600000Y39950000D02*
X90400000Y39950000D01*
X90600000Y40050000D02*
X90400000Y40050000D01*
X90500000Y39850000D02*
X90500000Y39950000D01*
X90500000Y40050000D02*
X90500000Y40150000D01*
D11*
X90750000Y39500000D02*
X90750000Y40500000D01*
X90750000Y39700000D02*
X90250000Y39700000D01*
X90750000Y40500000D02*
X90250000Y40500000D01*
X93000000Y38000000D02*
X93000000Y37500000D01*
X94000000Y38000000D02*
X93000000Y38000000D01*
X93000000Y37500000D02*
X94000000Y37500000D01*
X94000000Y37500000D02*
X94000000Y38000000D01*
D14*
X93450000Y37850000D02*
X93450000Y37650000D01*
D11*
X93200000Y38000000D02*
X93200000Y37500000D01*
X93800000Y38000000D02*
X93800000Y37500000D01*
D14*
X93650000Y37750000D02*
X93550000Y37750000D01*
X93550000Y37850000D02*
X93550000Y37650000D01*
X93450000Y37750000D02*
X93350000Y37750000D01*
D11*
X104900000Y35900000D02*
X104900000Y34750000D01*
X102600000Y35150000D02*
X101900000Y35150000D01*
X105600000Y29100000D02*
X105600000Y30250000D01*
X102600000Y34750000D02*
X102600000Y35900000D01*
X104900000Y30250000D02*
X104900000Y29100000D01*
X102600000Y29100000D02*
X102600000Y30250000D01*
X101900000Y29850000D02*
X102600000Y29850000D01*
X101900000Y29100000D02*
X102600000Y29100000D01*
X101900000Y30250000D02*
X101900000Y29100000D01*
X104900000Y29850000D02*
X105600000Y29850000D01*
X106000000Y30250000D02*
X106000000Y34750000D01*
X101500000Y30250000D02*
X106000000Y30250000D01*
X105600000Y34750000D02*
X105600000Y35900000D01*
X105600000Y35900000D02*
X104900000Y35900000D01*
X101900000Y35900000D02*
X101900000Y34750000D01*
X102600000Y35900000D02*
X101900000Y35900000D01*
X106000000Y34750000D02*
X101500000Y34750000D01*
X105600000Y35150000D02*
X104900000Y35150000D01*
X104900000Y29100000D02*
X105600000Y29100000D01*
X101500000Y34750000D02*
X101500000Y30250000D01*
X105000000Y32500000D02*
G75*
G03*
X105000000Y32500000I-1250000J0D01*
G01*
X102550000Y34100000D02*
G75*
G03*
X102550000Y34100000I-400000J0D01*
G01*
X105750000Y34100000D02*
G75*
G03*
X105750000Y34100000I-400000J0D01*
G01*
X102550000Y30900000D02*
G75*
G03*
X102550000Y30900000I-400000J0D01*
G01*
X105750000Y30900000D02*
G75*
G03*
X105750000Y30900000I-400000J0D01*
G01*
D10*
X95625000Y40025000D02*
X95375000Y40075000D01*
D11*
X95770000Y39690000D02*
X95230000Y39690000D01*
X95230000Y40525000D02*
X95230000Y39475000D01*
X95230000Y39475000D02*
X95770000Y39475000D01*
D10*
X95500000Y40175000D02*
X95500000Y40125000D01*
X95625000Y40025000D02*
X95375000Y39975000D01*
X95625000Y39925000D02*
X95500000Y39875000D01*
X95625000Y39925000D02*
X95375000Y39975000D01*
D11*
X95770000Y40310000D02*
X95230000Y40310000D01*
X95770000Y40525000D02*
X95230000Y40525000D01*
X95770000Y39475000D02*
X95770000Y40525000D01*
D10*
X95500000Y39875000D02*
X95500000Y39825000D01*
X95500000Y40125000D02*
X95375000Y40075000D01*
D11*
X85500000Y30250000D02*
X85500000Y34750000D01*
X85100000Y29100000D02*
X85100000Y30250000D01*
X81000000Y34750000D02*
X81000000Y30250000D01*
X82100000Y35900000D02*
X81400000Y35900000D01*
X81400000Y30250000D02*
X81400000Y29100000D01*
X81400000Y29100000D02*
X82100000Y29100000D01*
X82100000Y35150000D02*
X81400000Y35150000D01*
X81000000Y30250000D02*
X85500000Y30250000D01*
X82100000Y34750000D02*
X82100000Y35900000D01*
X84400000Y35900000D02*
X84400000Y34750000D01*
X81400000Y35900000D02*
X81400000Y34750000D01*
X84400000Y30250000D02*
X84400000Y29100000D01*
X85100000Y35150000D02*
X84400000Y35150000D01*
X85500000Y34750000D02*
X81000000Y34750000D01*
X85100000Y34750000D02*
X85100000Y35900000D01*
X82100000Y29100000D02*
X82100000Y30250000D01*
X84400000Y29850000D02*
X85100000Y29850000D01*
X81400000Y29850000D02*
X82100000Y29850000D01*
X84400000Y29100000D02*
X85100000Y29100000D01*
X85100000Y35900000D02*
X84400000Y35900000D01*
X82050000Y30900000D02*
G75*
G03*
X82050000Y30900000I-400000J0D01*
G01*
X84500000Y32500000D02*
G75*
G03*
X84500000Y32500000I-1250000J0D01*
G01*
X85250000Y30900000D02*
G75*
G03*
X85250000Y30900000I-400000J0D01*
G01*
X85250000Y34100000D02*
G75*
G03*
X85250000Y34100000I-400000J0D01*
G01*
X82050000Y34100000D02*
G75*
G03*
X82050000Y34100000I-400000J0D01*
G01*
M02*
