%TF.GenerationSoftware,KiCad,Pcbnew,(6.0.4-0)*%
%TF.CreationDate,2022-05-06T03:23:39+03:00*%
%TF.ProjectId,Flux_Capacitor_Mini,466c7578-5f43-4617-9061-6369746f725f,4*%
%TF.SameCoordinates,PX55d4a80PY7270e00*%
%TF.FileFunction,Paste,Top*%
%TF.FilePolarity,Positive*%
%FSLAX46Y46*%
G04 Gerber Fmt 4.6, Leading zero omitted, Abs format (unit mm)*
G04 Created by KiCad (PCBNEW (6.0.4-0)) date 2022-05-06 03:23:39*
%MOMM*%
%LPD*%
G01*
G04 APERTURE LIST*
G04 Aperture macros list*
%AMRoundRect*
0 Rectangle with rounded corners*
0 $1 Rounding radius*
0 $2 $3 $4 $5 $6 $7 $8 $9 X,Y pos of 4 corners*
0 Add a 4 corners polygon primitive as box body*
4,1,4,$2,$3,$4,$5,$6,$7,$8,$9,$2,$3,0*
0 Add four circle primitives for the rounded corners*
1,1,$1+$1,$2,$3*
1,1,$1+$1,$4,$5*
1,1,$1+$1,$6,$7*
1,1,$1+$1,$8,$9*
0 Add four rect primitives between the rounded corners*
20,1,$1+$1,$2,$3,$4,$5,0*
20,1,$1+$1,$4,$5,$6,$7,0*
20,1,$1+$1,$6,$7,$8,$9,0*
20,1,$1+$1,$8,$9,$2,$3,0*%
G04 Aperture macros list end*
%ADD10C,0.600000*%
%ADD11RoundRect,0.150000X0.000000X-0.212132X0.212132X0.000000X0.000000X0.212132X-0.212132X0.000000X0*%
%ADD12RoundRect,0.150000X-0.150000X-0.150000X0.150000X-0.150000X0.150000X0.150000X-0.150000X0.150000X0*%
%ADD13RoundRect,0.150000X-0.212132X0.000000X0.000000X-0.212132X0.212132X0.000000X0.000000X0.212132X0*%
G04 APERTURE END LIST*
D10*
X99000000Y42000000D02*
X100000000Y42000000D01*
X61000000Y42000000D02*
X62000000Y42000000D01*
X93500000Y6000000D02*
X93500000Y5000000D01*
X96500000Y3000000D02*
X95500000Y3000000D01*
X91500000Y3000000D02*
X90500000Y3000000D01*
X82000000Y22500000D02*
X81000000Y22500000D01*
X79000000Y24500000D02*
X79000000Y25500000D01*
X79000000Y19500000D02*
X79000000Y20500000D01*
X87000000Y42000000D02*
X88000000Y42000000D01*
X53500000Y3000000D02*
X52500000Y3000000D01*
X58500000Y3000000D02*
X57500000Y3000000D01*
X55500000Y6000000D02*
X55500000Y5000000D01*
X49000000Y42000000D02*
X50000000Y42000000D01*
X105000000Y22500000D02*
X106000000Y22500000D01*
X108000000Y25500000D02*
X108000000Y24500000D01*
X108000000Y20500000D02*
X108000000Y19500000D01*
X67000000Y22500000D02*
X68000000Y22500000D01*
X70000000Y25500000D02*
X70000000Y24500000D01*
X70000000Y20500000D02*
X70000000Y19500000D01*
X44000000Y22500000D02*
X43000000Y22500000D01*
X41000000Y19500000D02*
X41000000Y20500000D01*
X41000000Y24500000D02*
X41000000Y25500000D01*
D11*
X84151543Y35151543D03*
X83048457Y34048457D03*
D12*
X92720000Y11700000D03*
X94280000Y11700000D03*
D13*
X95648457Y27951543D03*
X96751543Y26848457D03*
X101551543Y31648457D03*
X100448457Y32751543D03*
D12*
X94280000Y23600000D03*
X92720000Y23600000D03*
X92720000Y16800000D03*
X94280000Y16800000D03*
D13*
X96848457Y29151543D03*
X97951543Y28048457D03*
D12*
X94280000Y21900000D03*
X92720000Y21900000D03*
D13*
X99151543Y29248457D03*
X98048457Y30351543D03*
X102751543Y32848457D03*
X101648457Y33951543D03*
D11*
X92551543Y26751543D03*
X91448457Y25648457D03*
D12*
X92720000Y13400000D03*
X94280000Y13400000D03*
D11*
X89048457Y28048457D03*
X90151543Y29151543D03*
D13*
X100351543Y30448457D03*
X99248457Y31551543D03*
D11*
X86551543Y32751543D03*
X85448457Y31648457D03*
X88951543Y30351543D03*
X87848457Y29248457D03*
D13*
X103951543Y34048457D03*
X102848457Y35151543D03*
D12*
X92720000Y18500000D03*
X94280000Y18500000D03*
D11*
X90248457Y26848457D03*
X91351543Y27951543D03*
D12*
X94280000Y20200000D03*
X92720000Y20200000D03*
D11*
X86648457Y30448457D03*
X87751543Y31551543D03*
X85351543Y33951543D03*
X84248457Y32848457D03*
D12*
X94280000Y15100000D03*
X92720000Y15100000D03*
D13*
X95551543Y25648457D03*
X94448457Y26751543D03*
M02*
